<svg xmlns="http://www.w3.org/2000/svg" xmlns:xlink="http://www.w3.org/1999/xlink" viewBox="0 0 24 24" width="24" height="24"><defs><path d="M20.34 5.07l.28.09.25.11.24.15.21.17.19.19.16.21.13.23.1.25.06.26.02.27v10l-.02.27-.06.26-.1.25-.13.23-.16.21-.19.19-.21.17-.24.15-.25.11-.28.09-.28.05-.3.02H4.21l-.3-.02-.29-.05-.27-.09-.26-.11-.23-.15-.22-.17-.18-.19-.16-.21-.13-.23-.1-.25-.06-.26-.02-.27V7l.02-.27.06-.26.1-.25.13-.23.16-.21.18-.19.22-.17.23-.15.26-.11.27-.09.29-.05.3-.02h15.55l.3.02.28.05zM4.03 17h15.94V7H4.03v10z" id="a"/><path d="M4.97 7.97h14.01v8.06H4.97V7.97z" id="b"/></defs><use xlink:href="#a"/><use xlink:href="#a" fill-opacity="0" stroke="#000" stroke-opacity="0"/><g><use xlink:href="#b"/></g></svg>