<svg xmlns="http://www.w3.org/2000/svg" xmlns:xlink="http://www.w3.org/1999/xlink" viewBox="0 0 40 40" width="40" height="40"><defs><path d="M30.04 2.75A19.12 19.12 0 0 0 20 0c-3.63 0-6.97.91-10.04 2.75A20.52 20.52 0 0 0 0 20.5c0 4.46 1.27 8.48 3.82 12.05a19.62 19.62 0 0 0 9.85 7.41c.47.09.82.02 1.04-.19.23-.21.34-.48.34-.8l-.01-1.44-.01-2.38-.6.11c-.38.07-.87.1-1.45.09-.58-.01-1.18-.07-1.81-.18a4.17 4.17 0 0 1-1.74-.8 3.42 3.42 0 0 1-1.15-1.65l-.26-.61a6.71 6.71 0 0 0-.82-1.36c-.37-.5-.75-.84-1.13-1.02a2.8 2.8 0 0 1-.52-.45 1.55 1.55 0 0 1-.24-.37c-.05-.13-.01-.23.13-.31.14-.08.39-.12.76-.12l.52.08c.35.07.78.28 1.29.64s.93.82 1.26 1.39c.4.73.88 1.28 1.45 1.67.56.38 1.13.57 1.7.57a5.77 5.77 0 0 0 2.66-.53c.15-1.2.58-2.11 1.27-2.75-.98-.11-1.87-.27-2.66-.48-.79-.22-1.61-.56-2.45-1.05a7.15 7.15 0 0 1-2.1-1.78 8.98 8.98 0 0 1-1.37-2.81 13.8 13.8 0 0 1-.53-4 7.9 7.9 0 0 1 2.06-5.5c-.64-1.62-.58-3.43.18-5.45.5-.16 1.25-.04 2.24.37.99.4 1.71.74 2.17 1.02l1.11.72a18.18 18.18 0 0 1 10 0l.99-.64c.68-.42 1.48-.82 2.4-1.17.92-.36 1.62-.46 2.11-.29.78 2.01.85 3.82.2 5.44a7.86 7.86 0 0 1 2.06 5.5c0 1.51-.18 2.85-.53 4.02a8.5 8.5 0 0 1-1.38 2.8 7.65 7.65 0 0 1-2.11 1.78c-.84.48-1.66.82-2.45 1.04-.79.21-1.68.37-2.67.48.9.8 1.36 2.06 1.36 3.79v5.63c0 .32.1.59.32.8.22.21.56.28 1.03.19a19.65 19.65 0 0 0 9.86-7.41A20.3 20.3 0 0 0 40 20.5c0-3.72-.89-7.15-2.68-10.29a20.2 20.2 0 0 0-7.28-7.46z" id="a"/></defs><use xlink:href="#a"/><use xlink:href="#a" fill-opacity="0" stroke="#000" stroke-opacity="0"/></svg>