<svg height="24" viewBox="0 0 24 24" width="24" xmlns="http://www.w3.org/2000/svg"><path d="M19.43 12.98a7.8 7.8 0 0 0 0-1.96l2.11-1.65a.5.5 0 0 0 .12-.64l-2-3.46c-.12-.22-.39-.3-.61-.22l-2.49 1a7.3 7.3 0 0 0-1.69-.98l-.38-2.65A.49.49 0 0 0 14 2h-4a.49.49 0 0 0-.49.42l-.38 2.65c-.61.25-1.17.59-1.69.98l-2.49-1a.49.49 0 0 0-.61.22l-2 3.46a.5.5 0 0 0 .12.64l2.11 1.65a7.93 7.93 0 0 0 0 1.96l-2.11 1.65a.5.5 0 0 0-.12.64l2 3.46c.12.22.39.3.61.22l2.49-1c.52.4 1.08.73 1.69.98l.38 2.65c.03.24.24.42.49.42h4c.25 0 .46-.18.49-.42l.38-2.65a7.68 7.68 0 0 0 1.69-.98l2.49 1c.23.09.49 0 .61-.22l2-3.46a.5.5 0 0 0-.12-.64l-2.11-1.65zM12 15.5a3.5 3.5 0 1 1 0-7 3.5 3.5 0 0 1 0 7z"/></svg>