<?xml version="1.0" encoding="UTF-8" standalone="no"?>
<!DOCTYPE svg PUBLIC "-//W3C//DTD SVG 1.1//EN" "http://www.w3.org/Graphics/SVG/1.1/DTD/svg11.dtd">
<svg version="1.1" xmlns="http://www.w3.org/2000/svg" xmlns:xlink="http://www.w3.org/1999/xlink" preserveAspectRatio="xMidYMid meet" viewBox="0 0 640 640" width="640" height="640"><defs><path d="M322.24 0L326.46 0.08L331.76 0.42L337 0.94L342.18 1.68L347.3 2.62L352.32 3.76L357.3 5.1L362.18 6.62L366.98 8.32L371.68 10.2L376.3 12.26L380.82 14.5L384.24 16.34L384.58 16.56L398.34 25.48L411.72 34.9L424.74 44.82L437.34 55.24L449.54 66.1L461.3 77.44L472.64 89.2L483.5 101.4L493.92 114L503.84 127L513.26 140.4L522.18 154.16L530.58 168.28L538.44 182.74L545.76 197.54L552.5 212.66L558.68 228.06L564.26 243.78L569.22 259.76L573.58 276L577.3 292.48L580.38 309.2L582.8 326.14L584.54 343.3L585.6 360.64L585.96 378.16L585.66 392.72L585.66 392.84L585.36 397.68L584.28 408.32L582.78 418.84L580.86 429.22L578.56 439.46L575.86 449.54L572.76 459.46L569.3 469.2L565.48 478.76L561.28 488.14L556.76 497.32L551.88 506.3L546.66 515.06L541.12 523.6L535.28 531.92L529.12 539.98L522.66 547.82L515.9 555.38L508.88 562.68L501.58 569.72L494 576.46L486.18 582.92L478.12 589.08L469.8 594.94L461.26 600.46L452.5 605.68L443.52 610.56L434.34 615.1L424.96 619.28L415.4 623.12L405.64 626.58L395.72 629.66L385.64 632.36L375.42 634.68L365.04 636.58L354.52 638.08L343.88 639.16L333.12 639.82L324.56 640L315.38 640L306.88 639.82L296.12 639.16L285.48 638.08L274.96 636.58L264.58 634.68L254.34 632.36L244.26 629.66L234.36 626.58L224.6 623.12L215.04 619.28L205.66 615.1L196.48 610.56L187.5 605.68L178.74 600.46L170.2 594.94L161.88 589.08L153.82 582.92L145.98 576.46L138.42 569.72L131.12 562.68L124.08 555.38L117.34 547.82L110.88 539.98L104.72 531.92L98.88 523.6L93.34 515.06L88.12 506.3L83.24 497.32L78.7 488.14L74.52 478.76L70.68 469.2L67.22 459.46L64.14 449.54L61.44 439.46L59.12 429.22L57.22 418.84L55.72 408.32L54.64 397.68L54.34 392.86L54.34 392.72L54.04 378.16L54.4 360.64L55.46 343.3L57.2 326.14L59.62 309.2L62.68 292.48L66.42 276L70.76 259.76L75.74 243.78L81.32 228.06L87.5 212.66L94.24 197.54L101.56 182.74L109.42 168.28L117.82 154.16L126.74 140.4L136.16 127L146.08 114L156.5 101.4L167.36 89.2L178.7 77.44L190.46 66.1L202.66 55.24L215.26 44.82L228.26 34.9L241.66 25.48L255.42 16.56L255.76 16.36L259.16 14.5L263.7 12.26L268.32 10.2L273.02 8.32L277.82 6.62L282.7 5.1L287.66 3.76L292.7 2.62L297.82 1.68L303 0.94L308.24 0.42L313.54 0.08L317.78 0L319.98 0L322.24 0Z" id="c4svPkD5Dp"></path><path d="M322.24 0L326.46 0.08L331.76 0.42L337 0.94L342.18 1.68L347.3 2.62L352.32 3.76L357.3 5.1L362.18 6.62L366.98 8.32L371.68 10.2L376.3 12.26L380.82 14.5L384.24 16.34L384.58 16.56L398.34 25.48L411.72 34.9L424.74 44.82L437.34 55.24L449.54 66.1L461.3 77.44L472.64 89.2L483.5 101.4L493.92 114L503.84 127L513.26 140.4L522.18 154.16L530.58 168.28L538.44 182.74L545.76 197.54L552.5 212.66L558.68 228.06L564.26 243.78L569.22 259.76L573.58 276L577.3 292.48L580.38 309.2L582.8 326.14L584.54 343.3L585.6 360.64L585.96 378.16L585.66 392.72L585.66 392.84L585.36 397.68L584.28 408.32L582.78 418.84L580.86 429.22L578.56 439.46L575.86 449.54L572.76 459.46L569.3 469.2L565.48 478.76L561.28 488.14L556.76 497.32L551.88 506.3L546.66 515.06L541.12 523.6L535.28 531.92L529.12 539.98L522.66 547.82L515.9 555.38L508.88 562.68L501.58 569.72L494 576.46L486.18 582.92L478.12 589.08L469.8 594.94L461.26 600.46L452.5 605.68L443.52 610.56L434.34 615.1L424.96 619.28L415.4 623.12L405.64 626.58L395.72 629.66L385.64 632.36L375.42 634.68L365.04 636.58L354.52 638.08L343.88 639.16L333.12 639.82L324.56 640L315.38 640L306.88 639.82L296.12 639.16L285.48 638.08L274.96 636.58L264.58 634.68L254.34 632.36L244.26 629.66L234.36 626.58L224.6 623.12L215.04 619.28L205.66 615.1L196.48 610.56L187.5 605.68L178.74 600.46L170.2 594.94L161.88 589.08L153.82 582.92L145.98 576.46L138.42 569.72L131.12 562.68L124.08 555.38L117.34 547.82L110.88 539.98L104.72 531.92L98.88 523.6L93.34 515.06L88.12 506.3L83.24 497.32L78.7 488.14L74.52 478.76L70.68 469.2L67.22 459.46L64.14 449.54L61.44 439.46L59.12 429.22L57.22 418.84L55.72 408.32L54.64 397.68L54.34 392.86L54.34 392.72L54.04 378.16L54.4 360.64L55.46 343.3L57.2 326.14L59.62 309.2L62.68 292.48L66.42 276L70.76 259.76L75.74 243.78L81.32 228.06L87.5 212.66L94.24 197.54L101.56 182.74L109.42 168.28L117.82 154.16L126.74 140.4L136.16 127L146.08 114L156.5 101.4L167.36 89.2L178.7 77.44L190.46 66.1L202.66 55.24L215.26 44.82L228.26 34.9L241.66 25.48L255.42 16.56L255.76 16.36L259.16 14.5L263.7 12.26L268.32 10.2L273.02 8.32L277.82 6.62L282.7 5.1L287.66 3.76L292.7 2.62L297.82 1.68L303 0.94L308.24 0.42L313.54 0.08L317.78 0L319.98 0L322.24 0Z" id="a14rLXOKW2"></path><radialGradient id="gradientfoLQpz5qO" gradientUnits="userSpaceOnUse" cx="82.22" cy="26.02" r="691"><stop style="stop-color: #ffffff;stop-opacity: 0.1" offset="0%"></stop><stop style="stop-color: #ffffff;stop-opacity: 0" offset="100%"></stop></radialGradient><path d="M455 236.26L371.74 236.26L320 326.26L267.12 236.26L183.86 236.26L320 470.26L455 236.26Z" id="a1VNyINkq3"></path><path d="M320 624.56L95 236.4L183.92 236.4L320 470.34L454.96 236.4L545 236.4L320 624.56Z" id="ckC6kElUY"></path><path d="M319.98 0L319.98 0L321.91 0L321.91 0L322.28 0L326.46 0.09L331.76 0.41L337 0.94L342.18 1.68L347.29 2.62L352.33 3.76L357.29 5.09L362.18 6.61L366.98 8.32L371.69 10.2L376.31 12.26L380.83 14.5L384.24 16.35L384.58 16.55L398.34 25.47L411.73 34.9L424.73 44.82L437.34 55.23L449.53 66.1L461.3 77.43L472.63 89.2L483.5 101.39L487.12 105.77L485.87 108.26L483.5 105.39L472.63 93.2L461.3 81.43L449.53 70.1L437.34 59.23L424.73 48.82L411.73 38.9L398.34 29.47L384.58 20.55L384.24 20.35L380.83 18.5L376.31 16.26L371.69 14.2L366.98 12.32L362.18 10.61L357.29 9.09L352.33 7.76L347.29 6.62L342.18 5.68L337 4.94L331.76 4.41L326.46 4.09L322.28 4L321.91 4L321.91 4L319.98 4L319.98 4L318.25 4L318.25 4L317.74 4L313.54 4.09L308.24 4.41L303 4.94L297.82 5.68L292.71 6.62L287.67 7.76L282.71 9.09L277.82 10.61L273.02 12.31L268.31 14.2L263.7 16.26L259.17 18.5L255.75 20.36L255.42 20.55L241.66 29.47L228.27 38.9L215.27 48.82L202.66 59.23L190.47 70.1L178.7 81.43L167.37 93.2L156.5 105.39L154.13 108.26L152.89 105.77L156.5 101.39L156.5 101.39L167.37 89.2L178.7 77.43L190.47 66.1L202.66 55.23L215.27 44.82L228.27 34.9L241.66 25.47L255.42 16.55L255.43 16.55L255.75 16.36L259.17 14.5L263.7 12.26L268.31 10.2L273.02 8.31L277.82 6.61L282.71 5.09L287.67 3.76L292.71 2.62L297.82 1.68L303 0.94L308.24 0.41L313.54 0.09L317.74 0L318.25 0L318.25 0L319.98 0Z" id="a79S7hQBcv"></path><path d="M337 0.94L342.18 1.68L347.28 2.62L352.32 3.76L357.3 5.1L362.18 6.62L366.98 8.32L371.68 10.2L376.3 12.26L380.82 14.5L384.24 16.34L384.58 16.56L398.34 25.48L411.72 34.9L424.74 44.82L437.34 55.24L449.54 66.1L461.3 77.44L472.64 89.2L483.5 101.4L493.92 114L503.84 127L513.26 140.4L522.18 154.16L530.58 168.28L538.44 182.74L545.76 197.54L552.5 212.66L558.68 228.06L564.26 243.78L569.22 259.76L573.58 276L577.3 292.48L580.38 309.2L582.8 326.14L584.54 343.3L585.6 360.64L585.96 378.16L585.66 392.7L585.66 392.86L585.36 397.68L584.28 408.32L582.78 418.84L580.86 429.22L578.56 439.46L575.86 449.54L572.76 459.46L569.3 469.2L565.48 478.76L561.28 488.14L556.76 497.32L551.88 506.3L546.66 515.06L541.12 523.6L535.28 531.92L529.12 540L522.66 547.82L515.9 555.38L508.88 562.68L501.58 569.72L494 576.46L486.18 582.92L478.12 589.08L469.8 594.94L461.26 600.46L452.5 605.68L443.52 610.56L434.34 615.1L424.96 619.28L415.4 623.12L405.64 626.58L395.72 629.66L385.64 632.36L375.42 634.68L365.04 636.58L354.52 638.08L343.88 639.16L333.12 639.82L324.6 640L320 640L320 0L322.28 0L326.46 0.08L331.76 0.42L337 0.94Z" id="a3CDMyZjIJ"></path><path d="M316.44 639.97L316.44 639.98L315.42 639.97L306.88 639.8L296.12 639.14L285.47 638.06L274.96 636.56L264.58 634.65L254.35 632.34L244.27 629.64L234.35 626.55L224.61 623.09L215.04 619.26L205.66 615.07L196.48 610.54L187.5 605.66L178.74 600.45L170.2 594.91L161.89 589.06L153.82 582.9L145.99 576.44L138.43 569.69L131.12 562.66L124.09 555.36L117.35 547.79L110.89 539.97L104.73 531.9L98.88 523.59L93.34 515.05L88.13 506.28L83.25 497.31L78.71 488.12L74.52 478.75L70.7 469.18L67.23 459.43L64.15 449.52L61.44 439.44L59.13 429.21L57.22 418.83L55.72 408.31L54.64 397.67L54.35 392.82L54.34 392.73L54.05 378.15L54.05 378.15L54.09 376.16L54.09 376.16L54.34 388.73L54.35 388.82L54.64 393.67L55.72 404.31L57.22 414.83L59.13 425.21L61.44 435.44L64.15 445.52L67.23 455.43L70.7 465.18L74.52 474.75L78.71 484.12L83.25 493.31L88.13 502.28L93.34 511.05L98.88 519.59L104.73 527.9L110.89 535.97L117.35 543.79L124.09 551.36L131.12 558.66L138.43 565.69L145.99 572.44L153.82 578.9L161.89 585.06L170.2 590.91L178.74 596.45L187.5 601.66L196.48 606.54L205.66 611.07L215.04 615.26L224.61 619.09L234.35 622.55L244.27 625.64L254.35 628.34L264.58 630.65L274.96 632.56L285.47 634.06L296.12 635.14L306.88 635.8L315.42 635.97L316.44 635.98L316.44 635.97L319.95 635.97L319.95 635.97L323.88 635.97L323.88 635.97L324.61 635.97L333.11 635.8L343.88 635.14L354.52 634.06L365.03 632.56L375.41 630.65L385.65 628.34L395.72 625.64L405.64 622.55L415.39 619.09L424.95 615.26L434.33 611.07L443.51 606.54L452.49 601.66L461.25 596.44L469.79 590.91L478.1 585.06L486.18 578.9L494 572.44L501.57 565.69L508.87 558.66L515.9 551.36L522.65 543.79L529.11 535.97L535.26 527.9L541.12 519.59L546.65 511.05L551.86 502.28L556.74 493.31L561.28 484.12L565.47 474.75L569.3 465.18L572.76 455.43L575.85 445.52L578.55 435.44L580.86 425.21L582.77 414.83L584.27 404.31L585.35 393.67L585.65 388.79L585.65 388.75L585.91 376.16L585.91 376.16L585.95 378.15L585.95 378.15L585.65 392.75L585.65 392.79L585.35 397.67L584.27 408.31L582.77 418.83L580.86 429.21L578.55 439.44L575.85 449.52L572.76 459.43L569.3 469.18L565.47 478.75L561.28 488.12L556.74 497.31L551.86 506.28L546.65 515.05L541.12 523.59L535.26 531.9L529.11 539.97L522.65 547.79L515.9 555.36L508.87 562.66L501.57 569.69L494 576.44L486.18 582.9L478.1 589.06L469.79 594.91L461.25 600.44L452.49 605.66L443.51 610.54L434.33 615.07L424.95 619.26L415.39 623.09L405.64 626.55L395.72 629.64L385.65 632.34L375.41 634.65L365.03 636.56L354.52 638.06L343.88 639.14L333.11 639.8L324.61 639.97L323.88 639.97L323.88 639.97L319.95 639.97L319.95 639.97L316.44 639.97Z" id="d3aUFLIy0"></path></defs><g><g><g><use xlink:href="#c4svPkD5Dp" opacity="1" fill="#f0ead6" fill-opacity="1"></use><g><use xlink:href="#c4svPkD5Dp" opacity="1" fill-opacity="0" stroke="#000000" stroke-width="1" stroke-opacity="0"></use></g></g><g><use xlink:href="#a14rLXOKW2" opacity="1" fill="url(#gradientfoLQpz5qO)"></use><g><use xlink:href="#a14rLXOKW2" opacity="1" fill-opacity="0" stroke="#000000" stroke-width="1" stroke-opacity="0"></use></g></g><g><use xlink:href="#a1VNyINkq3" opacity="1" fill="#35495e" fill-opacity="1"></use><g><use xlink:href="#a1VNyINkq3" opacity="1" fill-opacity="0" stroke="#000000" stroke-width="1" stroke-opacity="0"></use></g></g><g><use xlink:href="#ckC6kElUY" opacity="1" fill="#41b883" fill-opacity="1"></use><g><use xlink:href="#ckC6kElUY" opacity="1" fill-opacity="0" stroke="#000000" stroke-width="1" stroke-opacity="0"></use></g></g><g><use xlink:href="#a79S7hQBcv" opacity="0.2" fill="#ffffff" fill-opacity="1"></use></g><g><use xlink:href="#a3CDMyZjIJ" opacity="0.2" fill="#000000" fill-opacity="1"></use><g><use xlink:href="#a3CDMyZjIJ" opacity="0.2" fill-opacity="0" stroke="#000000" stroke-width="1" stroke-opacity="0"></use></g></g><g><use xlink:href="#d3aUFLIy0" opacity="0.1" fill="#212121" fill-opacity="1"></use></g></g></g></svg>