<?xml version="1.0" encoding="UTF-8" standalone="no"?>
<!DOCTYPE svg PUBLIC "-//W3C//DTD SVG 1.1//EN" "http://www.w3.org/Graphics/SVG/1.1/DTD/svg11.dtd">
<svg version="1.1" xmlns="http://www.w3.org/2000/svg" xmlns:xlink="http://www.w3.org/1999/xlink" preserveAspectRatio="xMidYMid meet" viewBox="0 0 24 24" width="24" height="24"><defs><path d="M14.6 3.38L15.79 3.84L16.9 4.45L17.9 5.21L18.79 6.1L19.55 7.1L20.16 8.21L20.62 9.4L20.9 10.67L21 12L20.9 13.33L20.62 14.6L20.16 15.79L19.55 16.9L18.79 17.9L17.9 18.79L16.9 19.55L15.79 20.16L14.6 20.62L13.33 20.9L12 21L10.67 20.91L9.4 20.66L8.21 20.26L7.1 19.71L6.1 19.04L5.21 18.25L4.45 17.36L3.84 16.37L3.38 15.31L3.1 14.18L3 13L3.05 12.26L3.21 11.56L3.46 10.89L3.81 10.28L4.23 9.72L4.72 9.23L5.28 8.81L5.89 8.46L6.56 8.21L7.26 8.05L8 8L9.77 8L9.99 7.98L10.2 7.94L10.4 7.86L10.59 7.76L10.75 7.63L10.9 7.48L11.03 7.32L11.13 7.13L11.21 6.93L11.25 6.72L11.27 6.5L11.27 6.4L11.26 6.3L11.24 6.2L11.21 6.1L11.18 6.01L11.15 5.91L11.11 5.83L11.06 5.74L11.01 5.66L10.95 5.58L10.89 5.51L10.83 5.43L10.77 5.36L10.71 5.27L10.67 5.19L10.62 5.1L10.59 5L10.56 4.91L10.53 4.81L10.51 4.71L10.5 4.61L10.5 4.5L10.52 4.28L10.56 4.07L10.64 3.87L10.74 3.68L10.87 3.52L11.02 3.37L11.18 3.24L11.37 3.14L11.57 3.06L11.78 3.02L12 3L13.33 3.1L14.6 3.38ZM13.44 16.44L13.12 16.92L13 17.5L13.12 18.08L13.44 18.56L13.92 18.88L14.5 19L15.08 18.88L15.56 18.56L15.88 18.08L16 17.5L15.88 16.92L15.56 16.44L15.08 16.12L14.5 16L13.92 16.12L13.44 16.44ZM8.44 16.44L8.12 16.92L8 17.5L8.12 18.08L8.44 18.56L8.92 18.88L9.5 19L10.08 18.88L10.56 18.56L10.88 18.08L11 17.5L10.88 16.92L10.56 16.44L10.08 16.12L9.5 16L8.92 16.12L8.44 16.44ZM5.44 12.44L5.12 12.92L5 13.5L5.12 14.08L5.44 14.56L5.92 14.88L6.5 15L7.08 14.88L7.56 14.56L7.88 14.08L8 13.5L7.88 12.92L7.56 12.44L7.08 12.12L6.5 12L5.92 12.12L5.44 12.44ZM16.44 12.44L16.12 12.92L16 13.5L16.12 14.08L16.44 14.56L16.92 14.88L17.5 15L18.08 14.88L18.56 14.56L18.88 14.08L19 13.5L18.88 12.92L18.56 12.44L18.08 12.12L17.5 12L16.92 12.12L16.44 12.44Z" id="eTGK8N9wz"></path></defs><g><g><g><use xlink:href="#eTGK8N9wz" opacity="1" fill="#000000" fill-opacity="1"></use><g><use xlink:href="#eTGK8N9wz" opacity="1" fill-opacity="0" stroke="#000000" stroke-width="1" stroke-opacity="0"></use></g></g></g></g></svg>
