<?xml version="1.0" encoding="UTF-8" standalone="no"?>
<!DOCTYPE svg PUBLIC "-//W3C//DTD SVG 1.1//EN" "http://www.w3.org/Graphics/SVG/1.1/DTD/svg11.dtd">
<svg version="1.1" xmlns="http://www.w3.org/2000/svg" xmlns:xlink="http://www.w3.org/1999/xlink" preserveAspectRatio="xMidYMid meet" viewBox="0 0 24 24" width="24" height="24"><defs><path d="M20.34 5.07L20.62 5.16L20.87 5.27L21.11 5.42L21.32 5.59L21.51 5.78L21.67 5.99L21.8 6.22L21.9 6.47L21.96 6.73L21.98 7L21.98 17L21.96 17.27L21.9 17.53L21.8 17.78L21.67 18.01L21.51 18.22L21.32 18.41L21.11 18.58L20.87 18.73L20.62 18.84L20.34 18.93L20.06 18.98L19.76 19L4.21 19L3.91 18.98L3.62 18.93L3.35 18.84L3.09 18.73L2.86 18.58L2.64 18.41L2.46 18.22L2.3 18.01L2.17 17.78L2.07 17.53L2.01 17.27L1.99 17L1.99 7L2.01 6.73L2.07 6.47L2.17 6.22L2.3 5.99L2.46 5.78L2.64 5.59L2.86 5.42L3.09 5.27L3.35 5.16L3.62 5.07L3.91 5.02L4.21 5L19.76 5L20.06 5.02L20.34 5.07ZM4.03 17L19.97 17L19.97 7L4.03 7L4.03 17Z" id="b2gfyDAqn"></path><path d="M6 7.97L8.05 7.97L8.05 16.03L6 16.03L6 7.97Z" id="e1tee4y40h"></path></defs><g><g><g><use xlink:href="#b2gfyDAqn" opacity="1" fill="#000000" fill-opacity="1"></use><g><use xlink:href="#b2gfyDAqn" opacity="1" fill-opacity="0" stroke="#000000" stroke-width="1" stroke-opacity="0"></use></g></g><g><use xlink:href="#e1tee4y40h" opacity="1" fill="#000000" fill-opacity="1"></use></g></g></g></svg>