<?xml version="1.0" standalone="no"?>
<!DOCTYPE svg PUBLIC "-//W3C//DTD SVG 20010904//EN"
 "http://www.w3.org/TR/2001/REC-SVG-20010904/DTD/svg10.dtd">
<svg version="1.0" xmlns="http://www.w3.org/2000/svg"
 width="700.000000pt" height="700.000000pt" viewBox="0 0 700.000000 700.000000"
 preserveAspectRatio="xMidYMid meet">
<metadata>
Created by potrace 1.11, written by Peter Selinger 2001-2013
</metadata>
<g transform="translate(0.000000,700.000000) scale(0.100000,-0.100000)"
fill="#000000" stroke="none">
<path d="M3335 6993 c-153 -20 -350 -79 -470 -141 -170 -89 -455 -297 -685
-501 -149 -132 -434 -428 -454 -471 -7 -15 183 -402 882 -1800 l891 -1782 27
54 c170 333 1754 3509 1754 3517 0 15 -141 171 -285 316 -210 210 -433 391
-692 564 -112 75 -274 161 -302 161 -6 0 -19 4 -29 9 -21 12 -107 39 -147 46
-39 7 -74 13 -105 21 -30 7 -343 13 -385 7z"/>
<path d="M1649 5808 c-18 -24 -37 -47 -42 -53 -27 -31 -179 -241 -211 -291
-21 -33 -48 -72 -59 -89 -43 -61 -190 -324 -252 -450 -67 -137 -155 -339 -155
-356 0 -5 -5 -17 -10 -27 -12 -20 -68 -173 -80 -217 -5 -16 -20 -68 -35 -115
-27 -88 -90 -339 -100 -400 -3 -19 -10 -57 -15 -85 -18 -87 -19 -97 -25 -144
-3 -25 -7 -55 -9 -66 -2 -11 -7 -51 -11 -88 -3 -37 -8 -76 -10 -85 -9 -48 -25
-419 -18 -437 2 -7 255 -10 732 -10 l730 1 700 -1401 c385 -770 706 -1408 713
-1417 11 -15 105 167 721 1400 l708 1418 712 -1 c392 0 722 1 733 3 21 4 22 9
19 95 -4 111 -16 315 -20 337 -1 8 -6 51 -10 95 -4 44 -8 82 -10 85 -1 3 -6
32 -9 65 -4 33 -9 67 -11 75 -2 8 -7 31 -10 50 -3 19 -15 78 -26 131 -11 52
-21 105 -24 117 -24 126 -132 468 -205 653 -121 302 -280 602 -467 878 -91
133 -229 317 -269 358 -9 9 -219 -404 -916 -1798 -860 -1719 -906 -1809 -920
-1787 -8 13 -416 827 -908 1811 -491 983 -894 1787 -895 1787 -1 0 -17 -19
-36 -42z"/>
<path d="M810 2830 l-195 -5 1 -85 c1 -88 13 -261 19 -270 2 -3 6 -30 10 -60
3 -29 8 -56 9 -59 2 -3 7 -24 10 -46 21 -130 99 -387 170 -560 76 -181 236
-464 331 -584 7 -9 43 -54 80 -100 125 -156 258 -291 415 -419 36 -29 73 -60
83 -68 34 -27 202 -142 247 -168 281 -162 510 -258 780 -326 139 -35 209 -48
370 -69 72 -10 350 -15 350 -7 0 19 -1413 2826 -1423 2826 -146 4 -1115 4
-1257 0z"/>
<path d="M4920 2825 c-12 -14 -1410 -2811 -1410 -2821 0 -7 340 1 375 9 11 3
43 8 70 11 297 38 678 170 970 334 765 431 1303 1208 1430 2067 4 22 8 51 10
64 5 28 15 175 19 274 l3 67 -31 1 c-355 6 -1430 2 -1436 -6z"/>
</g>
</svg>
