<svg version="1" xmlns="http://www.w3.org/2000/svg" width="933.333" height="933.333" viewBox="0 0 700.000000 700.000000"><path d="M333.5.7c-15.3 2-35 7.9-47 14.1-17 8.9-45.5 29.7-68.5 50.1-14.9 13.2-43.4 42.8-45.4 47.1-.7 1.5 18.3 40.2 88.2 180l89.1 178.2 2.7-5.4c17-33.3 175.4-350.9 175.4-351.7 0-1.5-14.1-17.1-28.5-31.6-21-21-43.3-39.1-69.2-56.4C419.1 17.6 402.9 9 400.1 9c-.6 0-1.9-.4-2.9-.9-2.1-1.2-10.7-3.9-14.7-4.6-3.9-.7-7.4-1.3-10.5-2.1-3-.7-34.3-1.3-38.5-.7z"/><path d="M164.9 119.2c-1.8 2.4-3.7 4.7-4.2 5.3-2.7 3.1-17.9 24.1-21.1 29.1-2.1 3.3-4.8 7.2-5.9 8.9-4.3 6.1-19 32.4-25.2 45-6.7 13.7-15.5 33.9-15.5 35.6 0 .5-.5 1.7-1 2.7-1.2 2-6.8 17.3-8 21.7-.5 1.6-2 6.8-3.5 11.5-2.7 8.8-9 33.9-10 40-.3 1.9-1 5.7-1.5 8.5-1.8 8.7-1.9 9.7-2.5 14.4-.3 2.5-.7 5.5-.9 6.6-.2 1.1-.7 5.1-1.1 8.8-.3 3.7-.8 7.6-1 8.5-.9 4.8-2.5 41.9-1.8 43.7.2.7 25.5 1 73.2 1l73-.1 70 140.1c38.5 77 70.6 140.8 71.3 141.7 1.1 1.5 10.5-16.7 72.1-140l70.8-141.8 71.2.1c39.2 0 72.2-.1 73.3-.3 2.1-.4 2.2-.9 1.9-9.5-.4-11.1-1.6-31.5-2-33.7-.1-.8-.6-5.1-1-9.5s-.8-8.2-1-8.5c-.1-.3-.6-3.2-.9-6.5-.4-3.3-.9-6.7-1.1-7.5-.2-.8-.7-3.1-1-5-.3-1.9-1.5-7.8-2.6-13.1-1.1-5.2-2.1-10.5-2.4-11.7-2.4-12.6-13.2-46.8-20.5-65.3-12.1-30.2-28-60.2-46.7-87.8-9.1-13.3-22.9-31.7-26.9-35.8-.9-.9-21.9 40.4-91.6 179.8-86 171.9-90.6 180.9-92 178.7-.8-1.3-41.6-82.7-90.8-181.1-49.1-98.3-89.4-178.7-89.5-178.7-.1 0-1.7 1.9-3.6 4.2z"/><path d="M81 417l-19.5.5.1 8.5c.1 8.8 1.3 26.1 1.9 27 .2.3.6 3 1 6 .3 2.9.8 5.6.9 5.9.2.3.7 2.4 1 4.6 2.1 13 9.9 38.7 17 56 7.6 18.1 23.6 46.4 33.1 58.4.7.9 4.3 5.4 8 10 12.5 15.6 25.8 29.1 41.5 41.9 3.6 2.9 7.3 6 8.3 6.8 3.4 2.7 20.2 14.2 24.7 16.8 28.1 16.2 51 25.8 78 32.6 13.9 3.5 20.9 4.8 37 6.9 7.2 1 35 1.5 35 .7 0-1.9-141.3-282.6-142.3-282.6-14.6-.4-111.5-.4-125.7 0zM492 417.5c-1.2 1.4-141 281.1-141 282.1 0 .7 34-.1 37.5-.9 1.1-.3 4.3-.8 7-1.1 29.7-3.8 67.8-17 97-33.4 76.5-43.1 130.3-120.8 143-206.7.4-2.2.8-5.1 1-6.4.5-2.8 1.5-17.5 1.9-27.4l.3-6.7-3.1-.1c-35.5-.6-143-.2-143.6.6z"/></svg>