<?xml version="1.0" encoding="UTF-8" standalone="no"?>
<!DOCTYPE svg PUBLIC "-//W3C//DTD SVG 1.1//EN" "http://www.w3.org/Graphics/SVG/1.1/DTD/svg11.dtd">
<svg version="1.1" xmlns="http://www.w3.org/2000/svg" xmlns:xlink="http://www.w3.org/1999/xlink" preserveAspectRatio="xMidYMid meet" viewBox="0 0 640 640" width="640" height="640"><defs><path d="M513.26 140.39L522.18 154.16L530.58 168.28L538.44 182.74L545.75 197.54L552.5 212.65L558.67 228.06L564.25 243.76L569.22 259.74L573.58 275.98L577.3 292.47L580.38 309.2L582.79 326.14L584.54 343.29L585.59 360.63L585.95 378.15L585.95 378.15L585.65 392.74L585.65 392.81L585.35 397.67L584.27 408.32L582.77 418.83L580.86 429.21L578.55 439.44L575.85 449.52L572.76 459.44L569.3 469.18L565.47 478.75L561.28 488.13L556.75 497.31L551.87 506.29L546.66 515.05L541.12 523.59L535.27 531.9L529.11 539.97L522.65 547.8L515.9 555.36L508.87 562.67L501.57 569.7L494 576.44L486.18 582.9L478.11 589.06L469.8 594.91L461.26 600.45L452.49 605.66L443.52 610.54L434.33 615.08L424.96 619.26L415.39 623.09L405.64 626.56L395.73 629.64L385.65 632.35L375.42 634.66L365.04 636.57L354.52 638.07L343.88 639.15L333.12 639.8L324.57 639.98L323.89 639.98L323.89 639.98L320.02 639.98L431.89 416.25L450.94 378.15L585.95 378.15L585.59 360.65L584.54 343.31L582.79 326.16L580.38 309.22L577.3 292.49L573.58 276.01L569.22 259.77L564.25 243.79L558.67 228.08L552.5 212.67L545.75 197.56L543.51 193.01L543.24 192.48L538.44 182.76L530.58 168.3L522.18 154.18L513.26 140.42L503.83 127.03L493.91 114.02L487.12 105.79L443.51 193.01L418.12 243.79L403.75 272.52L320 440.02L236.24 272.52L152.89 105.79L146.09 114.02L136.17 127.03L126.74 140.42L117.82 154.18L109.42 168.3L101.56 182.76L96.76 192.48L96.5 193.01L94.25 197.56L87.5 212.67L81.33 228.08L75.75 243.79L70.78 259.77L66.42 276.01L62.7 292.5L59.62 309.22L57.21 326.16L55.46 343.31L54.41 360.65L54.05 378.15L189.05 378.15L208.1 416.25L319.97 639.98L319.96 639.98L319.96 639.98L316.44 639.98L316.44 639.98L315.41 639.98L306.88 639.8L296.12 639.15L285.48 638.07L274.96 636.57L264.58 634.66L254.35 632.35L244.27 629.64L234.36 626.56L224.61 623.09L215.04 619.26L205.67 615.08L196.48 610.54L187.51 605.66L178.74 600.45L170.2 594.91L161.89 589.06L153.82 582.9L146 576.44L138.43 569.7L131.13 562.67L124.1 555.36L117.35 547.8L110.89 539.97L104.73 531.9L98.88 523.59L93.34 515.05L88.13 506.29L83.25 497.31L78.72 488.13L74.53 478.75L70.7 469.18L67.24 459.44L64.15 449.52L61.45 439.44L59.14 429.21L57.23 418.83L55.73 408.32L54.65 397.67L54.35 392.81L54.35 392.74L54.05 378.16L54.05 378.16L54.41 360.63L55.46 343.29L57.21 326.14L59.62 309.2L62.7 292.47L66.42 275.98L70.78 259.74L75.75 243.77L81.33 228.06L87.5 212.65L94.25 197.54L101.56 182.74L109.42 168.28L117.82 154.16L126.74 140.39L136.17 127L146.09 114L152.89 105.77L236.24 272.5L320 440L403.75 272.5L487.12 105.77L493.91 114L503.83 127L503.83 127L513.26 140.39Z" id="e1ttSAjOHz"></path><path d="M503.83 127.03L513.26 140.42L522.18 154.18L530.58 168.3L538.44 182.76L543.24 192.48L543.51 193.01L545.75 197.56L552.5 212.67L558.67 228.08L564.25 243.79L569.22 259.77L573.58 276.01L577.3 292.49L580.38 309.22L582.79 326.16L584.54 343.31L585.59 360.65L585.95 378.15L450.94 378.15L431.89 416.25L320.01 640L319.98 640L208.1 416.25L189.05 378.15L54.05 378.15L54.41 360.65L55.46 343.31L57.21 326.16L59.62 309.22L62.7 292.5L66.42 276.01L70.78 259.77L75.75 243.79L81.33 228.08L87.5 212.67L94.25 197.56L96.5 193.01L96.76 192.48L101.56 182.76L109.42 168.3L117.82 154.18L126.74 140.42L136.17 127.03L146.09 114.02L152.89 105.79L236.24 272.52L320 440.02L403.75 272.52L418.12 243.79L443.51 193.01L487.12 105.79L493.91 114.02L503.83 127.03Z" id="c4fZl9XdKf"></path><path d="M317.99 635.97L319.95 635.97L319.95 635.97L322.01 635.97L320.01 639.97L319.99 639.97L319.99 639.97L317.99 635.97Z" id="c1zht8cbe0"></path><path d="M54.35 388.82L54.64 393.67L55.72 404.31L57.22 414.83L59.13 425.21L61.44 435.44L64.15 445.52L67.23 455.43L70.7 465.18L74.52 474.75L78.71 484.12L83.25 493.31L88.13 502.28L93.34 511.05L98.88 519.59L104.73 527.9L110.89 535.97L117.35 543.79L124.09 551.36L131.12 558.66L138.43 565.69L145.99 572.44L153.82 578.9L161.89 585.06L170.2 590.91L178.74 596.45L187.5 601.66L196.48 606.54L205.66 611.07L215.04 615.26L224.61 619.09L234.35 622.55L244.27 625.64L254.35 628.34L264.58 630.65L274.96 632.56L285.47 634.06L296.12 635.14L306.88 635.8L315.42 635.97L316.44 635.98L316.44 635.97L317.99 635.97L319.99 639.97L319.95 639.97L319.95 639.97L316.44 639.97L316.44 639.98L315.42 639.97L306.88 639.8L296.12 639.14L285.47 638.06L274.96 636.56L264.58 634.65L254.35 632.34L244.27 629.64L234.35 626.55L224.61 623.09L215.04 619.26L205.66 615.07L196.48 610.54L187.5 605.66L178.74 600.45L170.2 594.91L161.89 589.06L153.82 582.9L145.99 576.44L138.43 569.69L131.12 562.66L124.09 555.36L117.35 547.79L110.89 539.97L104.73 531.9L98.88 523.59L93.34 515.05L88.13 506.28L83.25 497.31L78.71 488.12L74.52 478.75L70.7 469.18L67.23 459.43L64.15 449.52L61.44 439.44L59.13 429.21L57.22 418.83L55.72 408.31L54.64 397.67L54.35 392.82L54.34 392.73L54.05 378.15L54.05 378.15L54.09 376.16L54.09 376.16L54.34 388.73L54.35 388.82ZM585.95 378.15L585.65 392.75L585.65 392.79L585.35 397.67L584.27 408.31L582.77 418.83L580.86 429.21L578.55 439.44L575.85 449.52L572.76 459.43L569.3 469.18L565.47 478.75L561.28 488.12L556.74 497.31L551.86 506.28L546.65 515.05L541.12 523.59L535.26 531.9L529.11 539.97L522.65 547.79L515.9 555.36L508.87 562.66L501.57 569.69L494 576.44L486.18 582.9L478.1 589.06L469.79 594.91L461.25 600.44L452.49 605.66L443.51 610.54L434.33 615.07L424.95 619.26L415.39 623.09L405.64 626.55L395.72 629.64L385.65 632.34L375.41 634.65L365.03 636.56L354.52 638.06L343.88 639.14L333.11 639.8L324.61 639.97L323.88 639.97L323.88 639.97L320.01 639.97L322.01 635.97L323.88 635.97L323.88 635.97L324.61 635.97L333.11 635.8L343.88 635.14L354.52 634.06L365.03 632.56L375.41 630.65L385.65 628.34L395.72 625.64L405.64 622.55L415.39 619.09L424.95 615.26L434.33 611.07L443.51 606.54L452.49 601.66L461.25 596.44L469.79 590.91L478.1 585.06L486.18 578.9L494 572.44L501.57 565.69L508.87 558.66L515.9 551.36L522.65 543.79L529.11 535.97L535.26 527.9L541.12 519.59L546.65 511.05L551.86 502.28L556.74 493.31L561.28 484.12L565.47 474.75L569.3 465.18L572.76 455.43L575.85 445.52L578.55 435.44L580.86 425.21L582.77 414.83L584.27 404.31L585.35 393.67L585.65 388.79L585.65 388.75L585.91 376.16L585.91 376.16L585.95 378.15L585.95 378.15Z" id="afKgRrdSJ"></path><path d="M331.76 0.41L337 0.94L342.18 1.68L347.29 2.62L352.33 3.76L357.29 5.09L362.18 6.61L366.98 8.32L371.69 10.2L376.31 12.26L380.83 14.5L384.24 16.35L384.58 16.55L398.34 25.47L411.73 34.9L424.73 44.82L437.34 55.23L449.53 66.1L461.3 77.43L472.63 89.2L483.5 101.39L493.91 114L503.83 127L513.26 140.39L522.18 154.16L530.58 168.28L538.44 182.74L545.75 197.54L552.5 212.65L558.67 228.06L564.25 243.76L569.22 259.74L573.58 275.98L577.3 292.47L580.38 309.2L582.79 326.14L584.54 343.29L585.59 360.63L585.95 378.15L585.95 378.15L585.65 392.74L585.65 392.81L585.35 397.67L584.27 408.32L582.77 418.83L580.86 429.21L578.55 439.44L575.85 449.52L572.76 459.44L569.3 469.18L565.47 478.75L561.28 488.13L556.75 497.31L551.87 506.29L546.66 515.05L541.12 523.59L535.27 531.9L529.11 539.97L522.65 547.8L515.9 555.36L508.87 562.67L501.57 569.7L494 576.44L486.18 582.9L478.11 589.06L469.8 594.91L461.26 600.45L452.49 605.66L443.52 610.54L434.33 615.08L424.96 619.26L415.39 623.09L405.64 626.56L395.73 629.64L385.65 632.35L375.42 634.66L365.04 636.57L354.52 638.07L343.88 639.15L333.12 639.8L324.57 639.98L323.89 639.98L323.89 639.98L320 639.98L320 0L321.91 0L321.91 0L322.28 0L326.46 0.09L326.46 0.09L331.76 0.41Z" id="ai4MwMAEB"></path><path d="M319.98 0L319.98 0L321.91 0L321.91 0L322.28 0L326.46 0.09L331.76 0.41L337 0.94L342.18 1.68L347.29 2.62L352.33 3.76L357.29 5.09L362.18 6.61L366.98 8.32L371.69 10.2L376.31 12.26L380.83 14.5L384.24 16.35L384.58 16.55L398.34 25.47L411.73 34.9L424.73 44.82L437.34 55.23L449.53 66.1L461.3 77.43L472.63 89.2L483.5 101.39L487.12 105.77L485.87 108.26L483.5 105.39L472.63 93.2L461.3 81.43L449.53 70.1L437.34 59.23L424.73 48.82L411.73 38.9L398.34 29.47L384.58 20.55L384.24 20.35L380.83 18.5L376.31 16.26L371.69 14.2L366.98 12.32L362.18 10.61L357.29 9.09L352.33 7.76L347.29 6.62L342.18 5.68L337 4.94L331.76 4.41L326.46 4.09L322.28 4L321.91 4L321.91 4L319.98 4L319.98 4L318.25 4L318.25 4L317.74 4L313.54 4.09L308.24 4.41L303 4.94L297.82 5.68L292.71 6.62L287.67 7.76L282.71 9.09L277.82 10.61L273.02 12.31L268.31 14.2L263.7 16.26L259.17 18.5L255.75 20.36L255.42 20.55L241.66 29.47L228.27 38.9L215.27 48.82L202.66 59.23L190.47 70.1L178.7 81.43L167.37 93.2L156.5 105.39L154.13 108.26L152.89 105.77L156.5 101.39L156.5 101.39L167.37 89.2L178.7 77.43L190.47 66.1L202.66 55.23L215.27 44.82L228.27 34.9L241.66 25.47L255.42 16.55L255.43 16.55L255.75 16.36L259.17 14.5L263.7 12.26L268.31 10.2L273.02 8.31L277.82 6.61L282.71 5.09L287.67 3.76L292.71 2.62L297.82 1.68L303 0.94L308.24 0.41L313.54 0.09L317.74 0L318.25 0L318.25 0L319.98 0Z" id="atgPNCHPG"></path><path d="M319.98 0L319.98 0L321.91 0L321.91 0L322.28 0L326.46 0.09L331.76 0.41L337 0.94L342.18 1.68L347.29 2.62L352.33 3.76L357.29 5.09L362.18 6.61L366.98 8.32L371.69 10.2L376.31 12.26L380.83 14.5L384.24 16.35L384.58 16.55L398.34 25.47L411.73 34.9L424.73 44.82L437.34 55.23L449.53 66.1L461.3 77.43L472.63 89.2L483.5 101.39L487.12 105.77L403.75 272.5L320 440L236.24 272.5L152.89 105.77L156.5 101.39L167.37 89.2L178.7 77.43L190.47 66.1L202.66 55.23L215.27 44.82L228.27 34.9L241.66 25.47L255.42 16.55L255.75 16.36L259.17 14.5L263.7 12.26L268.31 10.2L273.02 8.31L277.82 6.61L282.71 5.09L287.67 3.76L292.71 2.62L297.82 1.68L303 0.94L308.24 0.41L313.54 0.09L317.74 0L318.25 0L318.25 0L319.98 0Z" id="a2cSO77c7G"></path><path d="M355 370L390 300L320 300L250 300L285 370L320 440L355 370Z" id="c2yION93qs"></path><path d="M350 380L380 320L320 320L260 320L290 380L320 440L350 380Z" id="a18L17OWv9"></path><path d="M319.98 0L321.91 0L321.91 0L322.28 0L326.46 0.09L331.76 0.41L337 0.94L342.18 1.68L347.29 2.62L352.33 3.76L357.29 5.09L362.18 6.61L366.98 8.32L371.69 10.2L376.31 12.26L380.83 14.5L384.24 16.35L384.58 16.55L398.34 25.47L411.73 34.9L424.73 44.82L437.34 55.23L449.53 66.1L461.3 77.43L472.63 89.2L483.5 101.39L493.91 114L503.83 127L513.26 140.39L522.18 154.16L530.58 168.28L538.44 182.74L545.75 197.54L552.5 212.65L558.67 228.06L564.25 243.76L569.22 259.74L573.58 275.98L577.3 292.47L580.38 309.2L582.79 326.14L584.54 343.29L585.59 360.63L585.95 378.15L585.95 378.15L585.65 392.74L585.65 392.81L585.35 397.67L584.27 408.32L582.77 418.83L580.86 429.21L578.55 439.44L575.85 449.52L572.76 459.44L569.3 469.18L565.47 478.75L561.28 488.13L556.75 497.31L551.87 506.29L546.66 515.05L541.12 523.59L535.27 531.9L529.11 539.97L522.65 547.8L515.9 555.36L508.87 562.67L501.57 569.7L494 576.44L486.18 582.9L478.11 589.06L469.8 594.91L461.26 600.45L452.49 605.66L443.52 610.54L434.33 615.08L424.96 619.26L415.39 623.09L405.64 626.56L395.73 629.64L385.65 632.35L375.42 634.66L365.04 636.57L354.52 638.07L343.88 639.15L333.12 639.8L324.57 639.98L323.89 639.98L323.89 639.98L319.96 639.98L319.96 639.98L316.44 639.98L316.44 639.98L315.41 639.98L306.88 639.8L296.12 639.15L285.48 638.07L274.96 636.57L264.58 634.66L254.35 632.35L244.27 629.64L234.36 626.56L224.61 623.09L215.04 619.26L205.67 615.08L196.48 610.54L187.51 605.66L178.74 600.45L170.2 594.91L161.89 589.06L153.82 582.9L146 576.44L138.43 569.7L131.13 562.67L124.1 555.36L117.35 547.8L110.89 539.97L104.73 531.9L98.88 523.59L93.34 515.05L88.13 506.29L83.25 497.31L78.72 488.13L74.53 478.75L70.7 469.18L67.24 459.44L64.15 449.52L61.45 439.44L59.14 429.21L57.23 418.83L55.73 408.32L54.65 397.67L54.35 392.81L54.35 392.74L54.05 378.16L54.05 378.16L54.41 360.63L55.46 343.29L57.21 326.14L59.62 309.2L62.7 292.47L66.42 275.98L70.78 259.74L75.75 243.77L81.33 228.06L87.5 212.65L94.25 197.54L101.56 182.74L109.42 168.28L117.82 154.16L126.74 140.39L136.17 127L146.09 114L156.5 101.39L167.37 89.2L178.7 77.43L190.47 66.1L202.66 55.23L215.27 44.82L228.27 34.9L241.66 25.47L255.42 16.55L255.75 16.36L259.17 14.5L263.7 12.26L268.31 10.2L273.02 8.31L277.82 6.61L282.71 5.09L287.67 3.76L292.71 2.62L297.82 1.68L303 0.94L308.24 0.41L313.54 0.09L317.74 0L318.25 0L318.25 0L319.98 0L319.98 0L319.98 0Z" id="gheeRmsCF"></path><radialGradient id="gradientc3hfBwZf1" gradientUnits="userSpaceOnUse" cx="59.1" cy="-0.68" r="728.18"><stop style="stop-color: #ffffff;stop-opacity: 0.1" offset="0%"></stop><stop style="stop-color: #ffffff;stop-opacity: 0" offset="100%"></stop></radialGradient></defs><g><g><g><use xlink:href="#e1ttSAjOHz" opacity="1" fill="#2b6a73" fill-opacity="1"></use></g><g><use xlink:href="#c4fZl9XdKf" opacity="1" fill="#ffa901" fill-opacity="1"></use></g><g><use xlink:href="#c1zht8cbe0" opacity="0.2" fill="#bf3603" fill-opacity="1"></use></g><g><use xlink:href="#afKgRrdSJ" opacity="0.2" fill="#263238" fill-opacity="1"></use></g><g><use xlink:href="#ai4MwMAEB" opacity="0.2" fill="#000000" fill-opacity="1"></use></g><g><use xlink:href="#atgPNCHPG" opacity="0.2" fill="#ffffff" fill-opacity="1"></use></g><g><g><filter id="shadow8245078" x="111.89" y="-41" width="416.23" height="526" filterUnits="userSpaceOnUse" primitiveUnits="userSpaceOnUse"><feFlood></feFlood><feComposite in2="SourceAlpha" operator="in"></feComposite><feGaussianBlur stdDeviation="4"></feGaussianBlur><feOffset dx="0" dy="4" result="afterOffset"></feOffset><feFlood flood-color="#000000" flood-opacity="0.5"></feFlood><feComposite in2="afterOffset" operator="in"></feComposite><feMorphology operator="dilate" radius="0"></feMorphology><feComposite in2="SourceAlpha" operator="out"></feComposite></filter><path d="M319.98 0L319.98 0L321.91 0L321.91 0L322.28 0L326.46 0.09L331.76 0.41L337 0.94L342.18 1.68L347.29 2.62L352.33 3.76L357.29 5.09L362.18 6.61L366.98 8.32L371.69 10.2L376.31 12.26L380.83 14.5L384.24 16.35L384.58 16.55L398.34 25.47L411.73 34.9L424.73 44.82L437.34 55.23L449.53 66.1L461.3 77.43L472.63 89.2L483.5 101.39L487.12 105.77L403.75 272.5L320 440L236.24 272.5L152.89 105.77L156.5 101.39L167.37 89.2L178.7 77.43L190.47 66.1L202.66 55.23L215.27 44.82L228.27 34.9L241.66 25.47L255.42 16.55L255.75 16.36L259.17 14.5L263.7 12.26L268.31 10.2L273.02 8.31L277.82 6.61L282.71 5.09L287.67 3.76L292.71 2.62L297.82 1.68L303 0.94L308.24 0.41L313.54 0.09L317.74 0L318.25 0L318.25 0L319.98 0Z" id="btasdIn0z" fill="white" fill-opacity="1" filter="url(#shadow8245078)"></path></g><use xlink:href="#a2cSO77c7G" opacity="1" fill="#ea493f" fill-opacity="1"></use></g><g><use xlink:href="#c2yION93qs" opacity="1" fill="#ffffff" fill-opacity="1"></use></g><g><use xlink:href="#a18L17OWv9" opacity="1" fill="#000000" fill-opacity="1"></use></g><g><use xlink:href="#gheeRmsCF" opacity="0.6" fill="url(#gradientc3hfBwZf1)"></use></g></g></g></svg>