<?xml version="1.0" encoding="UTF-8" standalone="no"?>
<!DOCTYPE svg PUBLIC "-//W3C//DTD SVG 1.1//EN" "http://www.w3.org/Graphics/SVG/1.1/DTD/svg11.dtd">
<svg version="1.1" xmlns="http://www.w3.org/2000/svg" xmlns:xlink="http://www.w3.org/1999/xlink" preserveAspectRatio="xMidYMid meet" viewBox="0 0 640 640" width="640" height="640"><defs><path d="M289.21 381L236.81 276.21L154.11 110.79L147.37 118.96L137.52 131.86L128.17 145.14L119.32 158.8L110.99 172.81L103.19 187.16L95.93 201.83L89.24 216.83L83.12 232.12L77.58 247.7L72.65 263.55L68.32 279.66L64.63 296.02L61.58 312.61L59.18 329.42L57.45 346.44L56.4 363.65L56.05 381L189.99 381L208.89 418.81L319.88 640.77L319.86 640.77L319.86 640.77L316.38 640.77L316.38 640.77L315.34 640.77L306.89 640.59L296.21 639.94L285.66 638.87L275.22 637.38L264.93 635.49L254.77 633.2L244.77 630.51L234.94 627.45L225.27 624.02L215.78 620.22L206.47 616.06L197.36 611.56L188.46 606.72L179.76 601.55L171.29 596.06L163.04 590.25L155.04 584.14L147.27 577.73L139.77 571.04L132.52 564.07L125.55 556.82L118.85 549.31L112.44 541.55L106.33 533.54L100.53 525.3L95.03 516.82L89.86 508.13L85.02 499.22L80.52 490.11L76.37 480.81L72.57 471.32L69.13 461.65L66.07 451.81L63.39 441.81L61.1 431.66L59.2 421.36L57.71 410.93L56.64 400.37L56.35 395.53L56.35 395.5L56.05 381.01L56.05 381.01L56.4 363.62L57.45 346.42L59.18 329.4L61.58 312.59L64.63 296L68.32 279.64L72.65 263.53L77.58 247.68L83.12 232.1L89.24 216.8L95.93 201.81L103.19 187.13L110.99 172.78L119.32 158.78L128.17 145.12L137.52 131.84L147.37 118.93L154.11 110.77L236.81 276.19L319.9 442.37L403 276.19L485.71 110.77L492.44 118.93L502.29 131.84L511.64 145.12L520.49 158.78L528.83 172.78L536.63 187.13L543.88 201.81L550.57 216.8L556.7 232.1L562.23 247.68L567.17 263.53L571.49 279.64L575.18 296L578.23 312.59L580.63 329.4L582.36 346.42L583.41 363.62L583.76 381.01L583.76 381.01L583.47 395.47L583.46 395.56L583.17 400.37L582.1 410.93L580.61 421.36L578.71 431.66L576.42 441.81L573.74 451.81L570.68 461.65L567.24 471.32L563.44 480.81L559.29 490.11L554.79 499.22L549.95 508.13L544.78 516.82L539.28 525.3L533.48 533.54L527.37 541.55L520.96 549.31L514.27 556.82L507.29 564.06L500.05 571.04L492.54 577.73L484.78 584.14L476.77 590.25L468.52 596.06L460.05 601.55L451.36 606.72L442.45 611.56L433.34 616.06L424.04 620.22L414.54 624.02L404.88 627.45L395.04 630.51L385.04 633.2L374.89 635.49L364.59 637.38L354.16 638.87L343.6 639.94L332.92 640.59L324.45 640.77L323.76 640.77L323.76 640.77L319.92 640.77L430.91 418.81L449.81 381L583.76 381L583.41 363.65L582.36 346.44L580.63 329.42L578.23 312.61L575.18 296.02L571.49 279.66L567.17 263.55L562.23 247.7L556.7 232.12L550.57 216.83L543.88 201.83L541.65 197.32L541.39 196.8L536.63 187.16L528.83 172.81L520.49 158.8L511.64 145.14L502.29 131.86L492.44 118.95L485.71 110.79L442.44 197.33L403 276.21L319.9 442.39L319.9 442.39L289.21 381Z" id="b1YIkqft"></path><path d="M442.8 191.01L485.8 105L492.54 113.16L502.38 126.07L511.74 139.35L520.59 153.01L528.92 167.02L536.72 181.37L541.49 191.01L541.75 191.53L543.97 196.04L550.67 211.04L556.79 226.33L562.33 241.91L567.26 257.76L571.58 273.87L575.28 290.23L578.33 306.82L580.73 323.63L582.46 340.65L583.5 357.86L583.85 375.21L449.91 375.21L431.01 413.02L320.01 635L319.98 635L208.98 413.02L190.08 375.21L56.15 375.21L56.5 357.86L57.54 340.65L59.27 323.63L61.67 306.82L64.72 290.23L68.42 273.87L72.74 257.76L77.67 241.91L83.21 226.33L89.33 211.04L96.03 196.04L98.25 191.53L98.51 191.01L103.28 181.37L111.08 167.02L119.41 153.01L128.26 139.35L137.62 126.07L147.46 113.16L154.2 105L236.9 270.42L289.3 375.21L320 436.6L403.09 270.42L442.8 191.01Z" id="dqsuiwnU8"></path><path d="M319.93 0L319.93 0L321.82 0L321.82 0L322.14 0L326.27 0.09L331.45 0.4L336.57 0.92L341.63 1.64L346.62 2.56L351.55 3.67L356.4 4.97L361.17 6.46L365.86 8.13L370.47 9.97L374.98 11.98L379.4 14.17L382.73 15.98L383.06 16.17L396.51 24.89L409.6 34.11L422.31 43.81L434.63 53.97L446.54 64.6L458.04 75.67L469.11 87.17L479.74 99.09L483.27 103.37L401.8 266.31L319.95 430L238.1 266.31L156.64 103.37L160.17 99.09L170.79 87.17L181.86 75.67L193.36 64.6L205.28 53.98L217.6 43.81L230.31 34.11L243.4 24.89L256.85 16.18L257.17 15.98L260.51 14.17L264.93 11.98L269.44 9.97L274.05 8.13L278.74 6.46L283.51 4.97L288.36 3.67L293.28 2.56L298.28 1.64L303.34 0.92L308.46 0.4L313.64 0.09L317.73 0L318.24 0L318.24 0L319.93 0ZM489.91 111.41L483.27 103.37L483.27 103.37L489.91 111.41Z" id="a1pgyI3Pke"></path></defs><g><g><g><use xlink:href="#b1YIkqft" opacity="1" fill="#2b6a73" fill-opacity="1"></use></g><g><use xlink:href="#dqsuiwnU8" opacity="1" fill="#ffa901" fill-opacity="1"></use></g><g><use xlink:href="#a1pgyI3Pke" opacity="1" fill="#ea493f" fill-opacity="1"></use></g></g></g></svg>