<?xml version="1.0" encoding="UTF-8" standalone="no"?>
<!DOCTYPE svg PUBLIC "-//W3C//DTD SVG 1.1//EN" "http://www.w3.org/Graphics/SVG/1.1/DTD/svg11.dtd">
<svg version="1.1" xmlns="http://www.w3.org/2000/svg" xmlns:xlink="http://www.w3.org/1999/xlink" preserveAspectRatio="xMidYMid meet" viewBox="0 0 720 640" width="720" height="640"><defs><path d="M134.99 378.17L154.04 416.28L265.9 639.98L261.33 639.98L252.81 639.8L242.05 639.15L231.41 638.07L220.89 636.57L210.52 634.66L200.28 632.35L190.21 629.64L180.29 626.56L170.55 623.1L160.98 619.27L151.6 615.08L142.42 610.54L133.45 605.66L124.69 600.45L116.14 594.92L107.84 589.07L99.76 582.91L91.94 576.45L84.37 569.7L77.07 562.67L70.04 555.37L63.3 547.81L56.84 539.98L50.68 531.91L44.83 523.6L39.29 515.06L34.08 506.3L29.2 497.32L24.67 488.14L20.48 478.77L16.65 469.2L13.19 459.46L10.1 449.54L7.4 439.46L5.09 429.23L3.18 418.85L1.68 408.34L0.6 397.7L0.3 392.82L0.3 392.79L0 378.18L0 378.16L0.01 378.16L0.01 378.17L134.99 378.17Z" id="gozUByQNO"></path><path d="M477.72 254.69L488.36 255.77L498.87 257.27L509.25 259.18L519.48 261.49L529.56 264.19L539.48 267.28L549.22 270.74L558.79 274.57L568.16 278.76L577.35 283.29L586.32 288.17L595.08 293.38L603.62 298.92L611.93 304.77L620 310.93L627.83 317.39L635.39 324.13L642.7 331.16L649.72 338.47L656.47 346.03L662.93 353.85L669.09 361.93L674.94 370.24L680.47 378.78L685.69 387.54L690.56 396.51L695.1 405.69L699.29 415.07L703.12 424.64L706.58 434.38L709.67 444.3L712.37 454.38L714.68 464.61L716.59 474.98L718.09 485.5L719.17 496.14L719.83 506.9L720 515.42L720 520L496.3 408.14L458.2 389.09L458.2 254.1L458.18 254.1L458.2 254.1L472.8 254.39L472.85 254.39L477.72 254.69Z" id="a2bQtt27w"></path><path d="M0.3 388.78L0.59 393.63L1.68 404.27L3.18 414.79L5.09 425.16L7.4 435.4L10.1 445.47L13.18 455.39L16.65 465.13L20.48 474.7L24.66 484.08L29.2 493.26L34.08 502.23L39.29 511L44.83 519.54L50.68 527.85L56.83 535.92L63.29 543.74L70.04 551.31L77.07 558.61L84.37 565.64L91.94 572.38L99.76 578.84L107.83 585L116.14 590.85L124.68 596.39L133.44 601.6L142.42 606.48L151.6 611.01L160.98 615.2L170.54 619.03L180.29 622.49L190.2 625.58L200.28 628.28L210.51 630.59L220.89 632.5L231.4 634L242.05 635.08L252.81 635.74L261.34 635.91L263.91 635.91L265.91 639.91L261.32 639.91L252.81 639.74L242.05 639.08L231.4 638L220.89 636.5L210.51 634.59L200.28 632.28L190.2 629.58L180.29 626.49L170.54 623.03L160.98 619.2L151.6 615.01L142.42 610.48L133.44 605.6L124.68 600.39L116.14 594.85L107.83 589L99.76 582.84L91.94 576.38L84.37 569.64L77.07 562.61L70.04 555.31L63.29 547.74L56.83 539.92L50.68 531.84L44.83 523.54L39.29 514.99L34.08 506.23L29.2 497.26L24.66 488.08L20.48 478.7L16.65 469.13L13.18 459.39L10.1 449.47L7.4 439.4L5.09 429.16L3.18 418.79L1.68 408.27L0.59 397.63L0.3 392.78L0.3 392.69L0 378.11L0.04 376.12L0.3 388.69L0.3 388.78Z" id="btwBiVw0"></path><path d="M477.72 254.68L488.36 255.76L498.87 257.26L509.25 259.17L519.48 261.48L529.56 264.18L539.48 267.27L549.22 270.73L558.79 274.56L568.16 278.75L577.35 283.28L586.32 288.16L595.08 293.37L603.62 298.91L611.93 304.76L620 310.92L627.83 317.38L635.39 324.12L642.7 331.15L649.72 338.46L656.47 346.02L662.93 353.84L669.09 361.92L674.94 370.23L680.47 378.77L685.69 387.53L690.56 396.5L695.1 405.68L699.29 415.06L703.12 424.63L706.58 434.37L709.67 444.29L712.37 454.37L714.68 464.6L716.59 474.97L718.09 485.49L719.17 496.13L719.83 506.89L720 515.41L720 519.99L496.3 408.13L458.2 389.08L458.2 254.09L458.18 254.09L458.2 254.09L472.8 254.38L472.85 254.38L477.72 254.68Z" id="a4Klcd3UE"></path><path d="M459.16 140.47L468.08 154.23L476.48 168.35L484.34 182.81L491.65 197.6L498.4 212.71L504.57 228.12L510.15 243.83L515.12 259.8L519.48 276.04L523.2 292.53L526.27 309.25L528.69 326.19L530.43 343.34L531.49 360.68L531.76 374.08L534.37 374.08L534.37 374.07L534.37 374.09L534.08 388.9L534.07 388.98L533.78 393.91L532.68 404.72L531.17 415.4L529.24 425.94L526.91 436.33L524.18 446.56L521.06 456.63L517.57 466.53L513.7 476.25L509.48 485.77L504.9 495.09L499.97 504.21L494.71 513.11L489.12 521.78L483.22 530.22L477 538.42L470.48 546.36L463.67 554.05L456.57 561.47L449.2 568.6L441.56 575.46L433.67 582.02L425.52 588.27L417.13 594.21L408.51 599.84L399.66 605.13L390.6 610.08L381.33 614.69L371.87 618.94L362.21 622.83L352.37 626.35L342.36 629.48L332.19 632.23L321.86 634.57L311.38 636.51L300.77 638.04L290.03 639.14L279.16 639.8L270.57 639.98L265.94 639.98L265.93 640L265.91 640L154.04 416.28L134.99 378.17L0 378.17L0.36 360.68L1.41 343.34L3.15 326.19L5.57 309.25L8.65 292.53L12.37 276.04L16.73 259.8L21.7 243.83L27.28 228.12L33.45 212.71L40.19 197.6L42.56 192.81L47.5 182.81L55.36 168.35L63.76 154.23L72.68 140.47L82.11 127.08L92.03 114.07L98.82 105.84L182.17 272.56L265.92 440.04L349.67 272.56L389.42 193.06L389.68 192.53L433.02 105.84L439.81 114.07L449.74 127.08L459.16 140.47Z" id="a5AwFGSN8y"></path><path d="M531.55 392.71L531.55 392.76L531.25 397.63L530.17 408.27L528.67 418.79L526.76 429.16L524.45 439.39L521.75 449.47L518.66 459.39L515.2 469.13L511.37 478.7L507.19 488.08L502.65 497.26L497.77 506.23L492.56 514.99L487.02 523.53L481.17 531.84L475.01 539.91L468.56 547.74L461.81 555.3L454.78 562.61L447.48 569.64L439.91 576.38L432.09 582.84L424.02 589L415.71 594.85L407.17 600.39L398.41 605.6L389.43 610.48L380.25 615.01L370.87 619.2L361.31 623.03L351.56 626.49L341.65 629.58L331.57 632.28L321.34 634.59L310.96 636.5L300.44 638L289.8 639.08L279.04 639.74L270.5 639.91L265.94 639.91L267.94 635.91L270.53 635.91L279.04 635.74L289.8 635.08L300.44 634L310.96 632.5L321.34 630.59L331.57 628.28L341.65 625.58L351.56 622.49L361.31 619.03L370.87 615.2L380.25 611.01L389.43 606.48L398.41 601.6L407.17 596.39L415.71 590.85L424.02 585L432.09 578.84L439.91 572.38L447.48 565.64L454.78 558.61L461.81 551.31L468.56 543.74L475.01 535.92L481.17 527.84L487.02 519.54L492.56 510.99L497.77 502.23L502.65 493.26L507.19 484.08L511.37 474.7L515.2 465.13L518.66 455.39L521.75 445.47L524.45 435.4L526.76 425.16L528.67 414.79L530.17 404.27L531.25 393.63L531.55 388.76L531.55 388.71L531.81 376.12L531.85 378.11L531.55 392.71Z" id="b3ioIVRZKP"></path><path d="M282.85 0.96L288.03 1.7L293.14 2.64L298.18 3.78L303.14 5.11L308.02 6.63L312.82 8.34L317.54 10.22L322.15 12.28L326.68 14.52L330.09 16.38L330.42 16.57L344.18 25.49L357.58 34.92L370.58 44.85L383.19 55.25L395.38 66.12L407.15 77.45L418.48 89.22L429.35 101.41L439.75 114.02L449.68 127.02L459.11 140.42L468.03 154.18L476.43 168.3L484.29 182.76L491.6 197.56L498.35 212.67L504.52 228.08L510.1 243.79L515.07 259.76L519.42 276.01L523.15 292.49L526.22 309.22L528.64 326.16L530.39 343.31L531.44 360.65L531.8 378.18L531.5 392.77L531.5 392.83L531.2 397.69L530.12 408.34L528.62 418.85L526.71 429.23L524.4 439.46L521.7 449.54L518.61 459.46L515.15 469.2L511.32 478.77L507.13 488.15L502.59 497.33L497.71 506.31L492.5 515.07L486.97 523.61L481.11 531.92L474.96 539.99L468.5 547.82L461.75 555.38L454.72 562.69L447.42 569.72L439.85 576.47L432.03 582.92L423.95 589.08L415.64 594.93L407.1 600.47L398.34 605.68L389.36 610.56L380.18 615.1L370.8 619.29L361.24 623.12L351.49 626.58L341.57 629.66L331.5 632.37L321.26 634.68L310.88 636.59L300.37 638.09L289.73 639.17L278.96 639.82L270.44 640L265.85 640L265.85 0.02L268.1 0.02L272.31 0.11L277.61 0.43L282.85 0.96Z" id="c4c06N4EAa"></path><path d="M180.95 278.2L96.44 109.16L100.11 104.72L111.13 92.35L122.62 80.43L134.54 68.94L146.91 57.92L159.69 47.37L172.87 37.31L186.45 27.75L200.4 18.7L200.76 18.5L204.2 16.62L208.79 14.35L213.47 12.26L218.25 10.36L223.11 8.62L228.06 7.08L233.1 5.73L238.21 4.58L243.39 3.62L248.64 2.88L253.96 2.34L259.33 2.01L263.56 1.93L264.1 1.92L267.82 1.92L267.82 1.93L268.15 1.93L272.42 2.01L277.8 2.34L283.11 2.88L288.36 3.62L293.54 4.58L298.65 5.73L303.68 7.08L308.64 8.62L313.51 10.36L318.28 12.26L322.96 14.35L327.55 16.62L331.01 18.5L331.34 18.7L345.3 27.75L358.87 37.31L372.06 47.37L384.84 57.92L397.2 68.94L409.13 80.43L420.62 92.35L431.64 104.71L442.19 117.5L435.3 109.16L350.79 278.2L265.87 448.02L180.95 278.2Z" id="cdJYv9RQa"></path><linearGradient id="gradientg4OWzhEHi" gradientUnits="userSpaceOnUse" x1="261.31" y1="1.86" x2="263.1" y2="470"><stop style="stop-color: #000000;stop-opacity: 1" offset="0%"></stop><stop style="stop-color: #000000;stop-opacity: 0" offset="100%"></stop></linearGradient><path d="M182.17 272.54L98.82 105.82L102.44 101.45L113.31 89.25L124.64 77.49L136.4 66.16L148.59 55.29L161.2 44.88L174.2 34.96L187.59 25.53L201.35 16.61L201.7 16.41L205.1 14.56L209.62 12.32L214.24 10.26L218.95 8.38L223.75 6.67L228.63 5.15L233.6 3.82L238.64 2.68L243.75 1.74L248.92 1.01L254.17 0.47L259.47 0.15L263.64 0.07L264.17 0.06L267.84 0.06L267.84 0.07L268.17 0.07L272.38 0.15L277.68 0.47L282.92 1.01L288.1 1.74L293.21 2.68L298.25 3.82L303.21 5.15L308.1 6.67L312.9 8.38L317.61 10.26L322.22 12.32L326.75 14.56L330.16 16.41L330.49 16.61L344.25 25.53L357.64 34.96L370.65 44.88L383.25 55.29L395.44 66.16L407.21 77.49L418.54 89.25L429.41 101.44L439.81 114.05L433.02 105.82L349.67 272.54L265.92 440.02L182.17 272.54Z" id="i6InsbX7Y"></path><path d="M335.92 302.97L325.8 323.22L206.05 323.22L195.93 302.97L335.92 302.97Z" id="h2y7Cxup7v"></path><path d="M325.92 322.97L205.93 322.97L235.93 382.97L265.93 442.96L295.92 382.97L325.92 322.97Z" id="a3CdQIR4Vt"></path><path d="M267.84 0.06L267.84 0.07L268.17 0.07L272.38 0.15L277.68 0.47L282.92 1.01L288.1 1.74L293.21 2.68L298.25 3.82L303.21 5.15L308.1 6.67L312.9 8.38L317.61 10.26L322.22 12.32L326.75 14.56L330.16 16.41L330.49 16.61L344.25 25.53L357.64 34.96L370.65 44.88L383.25 55.29L395.44 66.16L407.21 77.49L418.54 89.25L429.41 101.44L439.81 114.05L449.74 127.05L459.16 140.44L468.08 154.2L476.48 168.32L484.34 182.79L491.65 197.58L498.4 212.69L504.57 228.1L510.15 243.8L515.12 259.78L519.48 276.02L523.2 292.51L526.27 309.23L528.69 326.17L530.43 343.32L531.49 360.66L531.85 378.18L531.55 392.75L531.55 392.85L531.25 397.7L530.17 408.34L528.67 418.85L526.76 429.23L524.45 439.46L521.75 449.54L518.66 459.46L515.2 469.2L511.37 478.77L507.18 488.14L502.65 497.32L497.77 506.3L492.56 515.06L487.02 523.6L481.17 531.91L475.01 539.98L468.55 547.8L461.81 555.37L454.78 562.67L447.48 569.7L439.91 576.45L432.09 582.91L424.01 589.07L415.71 594.92L407.17 600.45L398.4 605.66L389.43 610.54L380.25 615.08L370.87 619.27L361.3 623.1L351.56 626.56L341.64 629.64L331.57 632.35L321.33 634.66L310.96 636.57L300.44 638.07L289.8 639.15L279.04 639.8L270.49 639.98L261.33 639.98L252.81 639.8L242.05 639.15L231.4 638.07L220.89 636.57L210.51 634.66L200.28 632.35L190.2 629.64L180.29 626.56L170.54 623.1L160.98 619.27L151.6 615.08L142.42 610.54L133.44 605.66L124.68 600.45L116.14 594.92L107.83 589.07L99.76 582.91L91.94 576.45L84.37 569.7L77.07 562.67L70.04 555.37L63.29 547.81L56.83 539.98L50.68 531.91L44.83 523.6L39.29 515.06L34.08 506.3L29.2 497.32L24.66 488.14L20.48 478.77L16.65 469.2L13.18 459.46L10.1 449.54L7.4 439.46L5.09 429.23L3.18 418.85L1.68 408.34L0.59 397.7L0.3 392.85L0.3 392.75L0 378.18L0.36 360.66L1.41 343.32L3.15 326.17L5.57 309.23L8.65 292.51L12.37 276.02L16.73 259.78L21.7 243.8L27.28 228.1L33.45 212.69L40.19 197.58L47.5 182.79L55.36 168.32L63.76 154.21L72.68 140.44L82.11 127.05L92.03 114.05L102.44 101.45L113.31 89.25L124.64 77.49L136.4 66.16L148.59 55.29L161.2 44.88L174.2 34.96L187.59 25.53L201.35 16.61L201.7 16.41L205.1 14.56L209.62 12.32L214.24 10.26L218.95 8.38L223.75 6.67L228.63 5.15L233.6 3.82L238.64 2.68L243.75 1.74L248.92 1.01L254.17 0.47L259.47 0.15L263.64 0.07L264.17 0.06L265.9 0.06L267.84 0.06Z" id="a6PgDMEb9L"></path><radialGradient id="gradientd4Zdwao8j9" gradientUnits="userSpaceOnUse" cx="0" cy="0" r="730.48"><stop style="stop-color: #ffffff;stop-opacity: 0.1" offset="0%"></stop><stop style="stop-color: #ffffff;stop-opacity: 0" offset="100%"></stop></radialGradient><path d="M268.21 0L272.39 0.09L277.69 0.41L282.93 0.94L288.1 1.68L293.22 2.62L298.25 3.76L303.22 5.09L308.1 6.61L312.9 8.31L317.61 10.2L322.23 12.26L326.75 14.5L330.17 16.36L330.5 16.55L344.26 25.47L357.65 34.9L370.65 44.82L383.26 55.22L395.45 66.1L407.21 77.42L418.54 89.19L429.41 101.38L433.03 105.76L431.78 108.25L429.41 105.38L418.54 93.19L407.21 81.42L395.45 70.1L383.26 59.22L370.65 48.82L357.65 38.9L344.26 29.47L330.5 20.55L330.16 20.35L326.75 18.5L322.23 16.26L317.61 14.2L312.9 12.31L308.1 10.61L303.22 9.09L298.25 7.76L293.22 6.62L288.1 5.68L282.93 4.94L277.69 4.41L272.39 4.09L268.19 4L263.68 4L259.47 4.09L254.17 4.41L248.93 4.94L243.75 5.68L238.64 6.62L233.6 7.76L228.64 9.09L223.75 10.61L218.96 12.31L214.25 14.2L209.63 16.26L205.11 18.49L201.68 20.36L201.36 20.55L187.6 29.47L174.21 38.9L161.2 48.82L148.6 59.22L136.41 70.1L124.64 81.42L113.31 93.19L102.44 105.38L100.07 108.25L98.83 105.76L92.04 113.99L102.44 101.38L113.31 89.19L124.64 77.42L136.41 66.1L148.6 55.22L161.2 44.82L174.21 34.9L187.6 25.47L201.36 16.55L201.69 16.35L205.11 14.5L209.63 12.26L214.25 10.2L218.96 8.31L223.75 6.61L228.64 5.09L233.6 3.76L238.64 2.62L243.75 1.68L248.93 0.94L254.17 0.41L259.47 0.09L263.66 0L265.91 0L268.21 0Z" id="d15rqDV5ia"></path><path d="M552.37 320L554.48 320.04L557.13 320.21L559.75 320.47L562.34 320.84L564.9 321.31L567.41 321.88L569.9 322.55L572.34 323.31L574.74 324.16L577.09 325.1L579.4 326.13L581.66 327.25L583.37 328.17L583.54 328.28L590.42 332.74L597.11 337.45L603.62 342.41L609.92 347.62L616.02 353.05L621.9 358.72L627.57 364.6L633 370.7L638.21 377L643.17 383.5L647.88 390.2L652.34 397.08L656.54 404.14L660.47 411.37L664.13 418.77L667.5 426.33L670.59 434.03L673.38 441.89L675.86 449.88L678.04 458L679.9 466.24L681.44 474.6L682.65 483.07L683.52 491.65L684.05 500.32L684.23 509.08L684.08 516.36L684.08 516.42L683.93 518.84L683.39 524.16L682.64 529.42L681.68 534.61L680.53 539.73L679.18 544.77L677.63 549.73L675.9 554.6L673.99 559.38L671.89 564.07L669.63 568.66L667.19 573.15L664.58 577.53L661.81 581.8L658.89 585.96L655.81 589.99L652.58 593.91L649.2 597.69L645.69 601.34L642.04 604.86L638.25 608.23L634.34 611.46L630.31 614.54L626.15 617.47L621.88 620.23L617.5 622.84L613.01 625.28L608.42 627.55L603.73 629.64L598.95 631.56L594.07 633.29L589.11 634.83L584.07 636.18L578.96 637.34L573.77 638.29L568.51 639.04L563.19 639.58L557.81 639.91L553.53 640L548.94 640L544.69 639.91L539.31 639.58L533.99 639.04L528.73 638.29L523.54 637.34L518.42 636.18L513.38 634.83L508.43 633.29L503.55 631.56L498.77 629.64L494.08 627.55L489.49 625.28L485 622.84L480.62 620.23L476.35 617.47L472.19 614.54L468.16 611.46L464.24 608.23L460.46 604.86L456.81 601.34L453.29 597.69L449.92 593.91L446.69 589.99L443.61 585.96L440.69 581.8L437.92 577.53L435.31 573.15L432.87 568.66L430.6 564.07L428.51 559.38L426.59 554.6L424.86 549.73L423.32 544.77L421.97 539.73L420.81 534.61L419.86 529.42L419.11 524.16L418.57 518.84L418.42 516.43L418.42 516.36L418.27 509.08L418.45 500.32L418.98 491.65L419.85 483.07L421.06 474.6L422.59 466.24L424.46 458L426.63 449.88L429.12 441.89L431.91 434.03L435 426.33L438.37 418.77L442.03 411.37L445.96 404.14L450.16 397.08L454.62 390.2L459.33 383.5L464.29 377L469.5 370.7L474.93 364.6L480.6 358.72L486.48 353.05L492.58 347.62L498.88 342.41L505.38 337.45L512.08 332.74L518.96 328.28L519.13 328.18L520.83 327.25L523.1 326.13L525.41 325.1L527.76 324.16L530.16 323.31L532.6 322.55L535.08 321.88L537.6 321.31L540.16 320.84L542.75 320.47L545.37 320.21L548.02 320.04L550.14 320L551.24 320L552.37 320Z" id="gFwawepU6"></path><path d="M552.37 320L554.48 320.04L557.13 320.21L559.75 320.47L562.34 320.84L564.9 321.31L567.41 321.88L569.9 322.55L572.34 323.31L574.74 324.16L577.09 325.1L579.4 326.13L581.66 327.25L583.37 328.17L583.54 328.28L590.42 332.74L597.11 337.45L603.62 342.41L609.92 347.62L616.02 353.05L621.9 358.72L627.57 364.6L633 370.7L638.21 377L643.17 383.5L647.88 390.2L652.34 397.08L656.54 404.14L660.47 411.37L664.13 418.77L667.5 426.33L670.59 434.03L673.38 441.89L675.86 449.88L678.04 458L679.9 466.24L681.44 474.6L682.65 483.07L683.52 491.65L684.05 500.32L684.23 509.08L684.08 516.36L684.08 516.42L683.93 518.84L683.39 524.16L682.64 529.42L681.68 534.61L680.53 539.73L679.18 544.77L677.63 549.73L675.9 554.6L673.99 559.38L671.89 564.07L669.63 568.66L667.19 573.15L664.58 577.53L661.81 581.8L658.89 585.96L655.81 589.99L652.58 593.91L649.2 597.69L645.69 601.34L642.04 604.86L638.25 608.23L634.34 611.46L630.31 614.54L626.15 617.47L621.88 620.23L617.5 622.84L613.01 625.28L608.42 627.55L603.73 629.64L598.95 631.56L594.07 633.29L589.11 634.83L584.07 636.18L578.96 637.34L573.77 638.29L568.51 639.04L563.19 639.58L557.81 639.91L553.53 640L548.94 640L544.69 639.91L539.31 639.58L533.99 639.04L528.73 638.29L523.54 637.34L518.42 636.18L513.38 634.83L508.43 633.29L503.55 631.56L498.77 629.64L494.08 627.55L489.49 625.28L485 622.84L480.62 620.23L476.35 617.47L472.19 614.54L468.16 611.46L464.24 608.23L460.46 604.86L456.81 601.34L453.29 597.69L449.92 593.91L446.69 589.99L443.61 585.96L440.69 581.8L437.92 577.53L435.31 573.15L432.87 568.66L430.6 564.07L428.51 559.38L426.59 554.6L424.86 549.73L423.32 544.77L421.97 539.73L420.81 534.61L419.86 529.42L419.11 524.16L418.57 518.84L418.42 516.43L418.42 516.36L418.27 509.08L418.45 500.32L418.98 491.65L419.85 483.07L421.06 474.6L422.59 466.24L424.46 458L426.63 449.88L429.12 441.89L431.91 434.03L435 426.33L438.37 418.77L442.03 411.37L445.96 404.14L450.16 397.08L454.62 390.2L459.33 383.5L464.29 377L469.5 370.7L474.93 364.6L480.6 358.72L486.48 353.05L492.58 347.62L498.88 342.41L505.38 337.45L512.08 332.74L518.96 328.28L519.13 328.18L520.83 327.25L523.1 326.13L525.41 325.1L527.76 324.16L530.16 323.31L532.6 322.55L535.08 321.88L537.6 321.31L540.16 320.84L542.75 320.47L545.37 320.21L548.02 320.04L550.14 320L551.24 320L552.37 320Z" id="a2zGvvbmuo"></path><radialGradient id="gradienta6jYeditio" gradientUnits="userSpaceOnUse" cx="432.36" cy="333.01" r="345.5"><stop style="stop-color: #ffffff;stop-opacity: 0.1" offset="0%"></stop><stop style="stop-color: #ffffff;stop-opacity: 0" offset="100%"></stop></radialGradient><path d="M618.75 438.13L577.12 438.13L551.25 483.13L524.81 438.13L483.18 438.13L551.25 555.13L618.75 438.13Z" id="k9XSJYScu"></path><path d="M551.25 632.28L438.75 438.2L483.21 438.2L551.25 555.17L618.73 438.2L663.75 438.2L551.25 632.28Z" id="cKZZHkPyy"></path><path d="M551.24 320L551.24 320L552.21 320L552.21 320L552.37 320L554.48 320.04L557.13 320.21L559.75 320.47L562.34 320.84L564.9 321.31L567.42 321.88L569.9 322.55L572.34 323.31L574.74 324.16L577.09 325.1L579.4 326.13L581.66 327.25L583.37 328.18L583.54 328.28L590.42 332.74L597.11 337.45L603.62 342.41L609.92 347.61L616.02 353.05L621.9 358.72L627.56 364.6L633 370.7L634.81 372.88L634.19 374.13L633 372.7L627.56 366.6L621.9 360.72L616.02 355.05L609.92 349.61L603.62 344.41L597.11 339.45L590.42 334.74L583.54 330.28L583.37 330.18L581.66 329.25L579.4 328.13L577.09 327.1L574.74 326.16L572.34 325.31L569.9 324.55L567.42 323.88L564.9 323.31L562.34 322.84L559.75 322.47L557.13 322.21L554.48 322.04L552.37 322L552.21 322L552.21 322L551.24 322L551.24 322L550.37 322L550.37 322L550.14 322L548.02 322.04L545.37 322.2L542.75 322.47L540.16 322.84L537.61 323.31L535.09 323.88L532.6 324.55L530.16 325.31L527.76 326.16L525.41 327.1L523.1 328.13L520.84 329.25L519.12 330.18L518.96 330.28L512.08 334.74L505.39 339.45L498.88 344.41L492.58 349.62L486.48 355.05L480.6 360.72L474.94 366.6L469.5 372.7L468.32 374.13L467.69 372.89L469.5 370.7L474.94 364.6L480.6 358.72L486.48 353.05L492.58 347.62L498.88 342.41L505.39 337.45L512.08 332.74L518.96 328.28L519.12 328.18L520.84 327.25L523.1 326.13L525.41 325.1L527.76 324.16L530.16 323.31L532.6 322.55L535.09 321.88L537.61 321.31L540.16 320.84L542.75 320.47L545.37 320.2L548.02 320.04L550.14 320L550.37 320L550.37 320L551.24 320Z" id="gCvG9TYZW"></path><path d="M559.75 320.47L562.34 320.84L564.89 321.31L567.41 321.88L569.9 322.55L572.34 323.31L574.74 324.16L577.09 325.1L579.4 326.13L581.66 327.25L583.37 328.17L583.54 328.28L590.42 332.74L597.11 337.45L603.62 342.41L609.92 347.62L616.02 353.05L621.9 358.72L627.57 364.6L633 370.7L638.21 377L643.17 383.5L647.88 390.2L652.34 397.08L656.54 404.14L660.47 411.37L664.13 418.77L667.5 426.33L670.59 434.03L673.38 441.89L675.86 449.88L678.04 458L679.9 466.24L681.44 474.6L682.65 483.07L683.52 491.65L684.05 500.32L684.23 509.08L684.08 516.35L684.08 516.43L683.93 518.84L683.39 524.16L682.64 529.42L681.68 534.61L680.53 539.73L679.18 544.77L677.63 549.73L675.9 554.6L673.99 559.38L671.89 564.07L669.63 568.66L667.19 573.15L664.58 577.53L661.81 581.8L658.89 585.96L655.81 590L652.58 593.91L649.2 597.69L645.69 601.34L642.04 604.86L638.25 608.23L634.34 611.46L630.31 614.54L626.15 617.47L621.88 620.23L617.5 622.84L613.01 625.28L608.42 627.55L603.73 629.64L598.95 631.56L594.07 633.29L589.11 634.83L584.07 636.18L578.96 637.34L573.77 638.29L568.51 639.04L563.19 639.58L557.81 639.91L553.55 640L551.25 640L551.25 320L552.39 320L554.48 320.04L557.13 320.21L559.75 320.47Z" id="b2uNCZ56Br"></path><path d="M418.57 516.83L419.11 522.16L419.86 527.41L420.82 532.6L421.97 537.72L423.32 542.76L424.87 547.72L426.6 552.59L428.51 557.37L430.61 562.06L432.88 566.65L435.31 571.14L437.92 575.52L440.69 579.79L443.61 583.95L446.69 587.98L449.92 591.9L453.3 595.68L456.81 599.33L460.46 602.85L464.25 606.22L468.16 609.45L472.19 612.53L476.35 615.45L480.62 618.22L485 620.83L489.49 623.27L494.08 625.54L498.77 627.63L503.55 629.55L508.43 631.28L513.38 632.82L518.42 634.17L523.54 635.33L528.73 636.28L533.99 637.03L539.31 637.57L544.69 637.9L548.93 637.99L549.47 637.99L549.47 637.99L550.24 637.99L551.24 639.99L551.23 639.99L551.23 639.99L549.47 639.99L549.47 639.99L548.93 639.99L544.69 639.9L539.31 639.57L533.99 639.03L528.73 638.28L523.54 637.33L518.42 636.17L513.38 634.82L508.43 633.28L503.55 631.55L498.77 629.63L494.08 627.54L489.49 625.27L485 622.83L480.62 620.22L476.35 617.45L472.19 614.53L468.16 611.45L464.25 608.22L460.46 604.85L456.81 601.33L453.3 597.68L449.92 593.9L446.69 589.98L443.61 585.95L440.69 581.79L437.92 577.52L435.31 573.14L432.88 568.65L430.61 564.06L428.51 559.37L426.6 554.59L424.87 549.72L423.32 544.76L421.97 539.72L420.82 534.6L419.86 529.41L419.11 524.16L418.57 518.83L418.42 516.39L418.27 509.08L418.27 509.08L418.29 508.08L418.29 508.08L418.42 514.39L418.57 516.83ZM551.23 637.99L551.23 637.99L553.19 637.99L553.19 637.99L553.53 637.99L557.81 637.9L563.19 637.57L568.51 637.03L573.77 636.28L578.96 635.33L584.07 634.17L589.11 632.82L594.07 631.28L598.94 629.54L603.73 627.63L608.42 625.54L613.01 623.27L617.49 620.83L621.88 618.22L626.15 615.45L630.3 612.53L634.34 609.45L638.25 606.22L642.03 602.85L645.68 599.33L649.2 595.68L652.57 591.9L655.8 587.98L658.88 583.95L661.81 579.79L664.58 575.52L667.18 571.14L669.62 566.65L671.89 562.06L673.98 557.37L675.9 552.59L677.63 547.72L679.17 542.76L680.52 537.72L681.68 532.6L682.63 527.41L683.38 522.16L683.93 516.83L684.07 514.42L684.08 514.35L684.2 508.08L684.22 509.08L684.22 509.08L684.08 516.35L684.07 516.42L683.93 518.83L683.38 524.16L682.63 529.41L681.68 534.6L680.52 539.72L679.17 544.76L677.63 549.72L675.9 554.59L673.98 559.37L671.89 564.06L669.62 568.65L667.18 573.14L664.58 577.52L661.81 581.79L658.88 585.95L655.8 589.98L652.57 593.9L649.2 597.68L645.68 601.33L642.03 604.85L638.25 608.22L634.34 611.45L630.3 614.53L626.15 617.45L621.88 620.22L617.49 622.83L613.01 625.27L608.42 627.54L603.73 629.63L598.94 631.54L594.07 633.28L589.11 634.82L584.07 636.17L578.96 637.33L573.77 638.28L568.51 639.03L563.19 639.57L557.81 639.9L553.53 639.99L553.19 639.99L553.19 639.99L551.24 639.99L550.24 637.99L551.23 637.99Z" id="b3m0spv990"></path></defs><g><g><g><use xlink:href="#gozUByQNO" opacity="1" fill="#2b6a73" fill-opacity="1"></use><g><use xlink:href="#gozUByQNO" opacity="1" fill-opacity="0" stroke="#000000" stroke-width="1" stroke-opacity="0"></use></g></g><g><use xlink:href="#a2bQtt27w" opacity="1" fill="#2b6a73" fill-opacity="1"></use><g><use xlink:href="#a2bQtt27w" opacity="1" fill-opacity="0" stroke="#000000" stroke-width="1" stroke-opacity="0"></use></g></g><g><use xlink:href="#btwBiVw0" opacity="0.2" fill="#263238" fill-opacity="1"></use><g><use xlink:href="#btwBiVw0" opacity="0.2" fill-opacity="0" stroke="#000000" stroke-width="1" stroke-opacity="0"></use></g></g><g><use xlink:href="#a4Klcd3UE" opacity="0.2" fill="#000000" fill-opacity="1"></use><g><use xlink:href="#a4Klcd3UE" opacity="0.2" fill-opacity="0" stroke="#000000" stroke-width="1" stroke-opacity="0"></use></g></g><g><use xlink:href="#a5AwFGSN8y" opacity="1" fill="#ffae01" fill-opacity="1"></use><g><use xlink:href="#a5AwFGSN8y" opacity="1" fill-opacity="0" stroke="#000000" stroke-width="1" stroke-opacity="0"></use></g></g><g><use xlink:href="#b3ioIVRZKP" opacity="0.2" fill="#bf3603" fill-opacity="1"></use><g><use xlink:href="#b3ioIVRZKP" opacity="0.2" fill-opacity="0" stroke="#000000" stroke-width="1" stroke-opacity="0"></use></g></g><g><use xlink:href="#c4c06N4EAa" opacity="0.2" fill="#000000" fill-opacity="1"></use><g><use xlink:href="#c4c06N4EAa" opacity="0.2" fill-opacity="0" stroke="#000000" stroke-width="1" stroke-opacity="0"></use></g></g><g><use xlink:href="#cdJYv9RQa" opacity="0.2" fill="url(#gradientg4OWzhEHi)"></use></g><g><use xlink:href="#i6InsbX7Y" opacity="1" fill="#ea493f" fill-opacity="1"></use></g><g><use xlink:href="#h2y7Cxup7v" opacity="1" fill="#ffffff" fill-opacity="1"></use><g><use xlink:href="#h2y7Cxup7v" opacity="1" fill-opacity="0" stroke="#000000" stroke-width="1" stroke-opacity="0"></use></g></g><g><use xlink:href="#a3CdQIR4Vt" opacity="1" fill="#000000" fill-opacity="1"></use><g><use xlink:href="#a3CdQIR4Vt" opacity="1" fill-opacity="0" stroke="#000000" stroke-width="1" stroke-opacity="0"></use></g></g><g><use xlink:href="#a6PgDMEb9L" opacity="1" fill="url(#gradientd4Zdwao8j9)"></use><g><use xlink:href="#a6PgDMEb9L" opacity="1" fill-opacity="0" stroke="#000000" stroke-width="1" stroke-opacity="0"></use></g></g><g><use xlink:href="#d15rqDV5ia" opacity="0.2" fill="#ffffff" fill-opacity="1"></use><g><use xlink:href="#d15rqDV5ia" opacity="0.2" fill-opacity="0" stroke="#000000" stroke-width="1" stroke-opacity="0"></use></g></g><g><use xlink:href="#gFwawepU6" opacity="1" fill="#f0ead6" fill-opacity="1"></use><g><use xlink:href="#gFwawepU6" opacity="1" fill-opacity="0" stroke="#000000" stroke-width="1" stroke-opacity="0"></use></g></g><g><use xlink:href="#a2zGvvbmuo" opacity="1" fill="url(#gradienta6jYeditio)"></use><g><use xlink:href="#a2zGvvbmuo" opacity="1" fill-opacity="0" stroke="#000000" stroke-width="1" stroke-opacity="0"></use></g></g><g><use xlink:href="#k9XSJYScu" opacity="1" fill="#35495e" fill-opacity="1"></use><g><use xlink:href="#k9XSJYScu" opacity="1" fill-opacity="0" stroke="#000000" stroke-width="1" stroke-opacity="0"></use></g></g><g><use xlink:href="#cKZZHkPyy" opacity="1" fill="#41b883" fill-opacity="1"></use><g><use xlink:href="#cKZZHkPyy" opacity="1" fill-opacity="0" stroke="#000000" stroke-width="1" stroke-opacity="0"></use></g></g><g><use xlink:href="#gCvG9TYZW" opacity="0.2" fill="#ffffff" fill-opacity="1"></use></g><g><use xlink:href="#b2uNCZ56Br" opacity="0.2" fill="#000000" fill-opacity="1"></use><g><use xlink:href="#b2uNCZ56Br" opacity="0.2" fill-opacity="0" stroke="#000000" stroke-width="1" stroke-opacity="0"></use></g></g><g><use xlink:href="#b3m0spv990" opacity="0.1" fill="#212121" fill-opacity="1"></use></g></g></g></svg>