<?xml version="1.0" encoding="UTF-8" standalone="no"?>
<!DOCTYPE svg PUBLIC "-//W3C//DTD SVG 1.1//EN" "http://www.w3.org/Graphics/SVG/1.1/DTD/svg11.dtd">
<svg version="1.1" xmlns="http://www.w3.org/2000/svg" xmlns:xlink="http://www.w3.org/1999/xlink" preserveAspectRatio="xMidYMid meet" viewBox="0 0 640 640" width="640" height="640"><defs><path d="M513.26 140.39L522.18 154.16L530.58 168.28L538.44 182.74L545.75 197.54L552.5 212.65L558.67 228.06L564.25 243.76L569.22 259.74L573.58 275.98L577.3 292.47L580.38 309.2L582.79 326.14L584.54 343.29L585.59 360.63L585.95 378.15L585.95 378.15L585.65 392.74L585.65 392.81L585.35 397.67L584.27 408.32L582.77 418.83L580.86 429.21L578.55 439.44L575.85 449.52L572.76 459.44L569.3 469.18L565.47 478.75L561.28 488.13L556.75 497.31L551.87 506.29L546.66 515.05L541.12 523.59L535.27 531.9L529.11 539.97L522.65 547.8L515.9 555.36L508.87 562.67L501.57 569.7L494 576.44L486.18 582.9L478.11 589.06L469.8 594.91L461.26 600.45L452.49 605.66L443.52 610.54L434.33 615.08L424.96 619.26L415.39 623.09L405.64 626.56L395.73 629.64L385.65 632.35L375.42 634.66L365.04 636.57L354.52 638.07L343.88 639.15L333.12 639.8L324.57 639.98L323.89 639.98L323.89 639.98L320.02 639.98L431.89 416.25L450.94 378.15L585.95 378.15L585.59 360.65L584.54 343.31L582.79 326.16L580.38 309.22L577.3 292.49L573.58 276.01L569.22 259.77L564.25 243.79L558.67 228.08L552.5 212.67L545.75 197.56L543.51 193.01L543.24 192.48L538.44 182.76L530.58 168.3L522.18 154.18L513.26 140.42L503.83 127.03L493.91 114.02L487.12 105.79L443.51 193.01L418.12 243.79L403.75 272.52L320 440.02L236.24 272.52L152.89 105.79L146.09 114.02L136.17 127.03L126.74 140.42L117.82 154.18L109.42 168.3L101.56 182.76L96.76 192.48L96.5 193.01L94.25 197.56L87.5 212.67L81.33 228.08L75.75 243.79L70.78 259.77L66.42 276.01L62.7 292.5L59.62 309.22L57.21 326.16L55.46 343.31L54.41 360.65L54.05 378.15L189.05 378.15L208.1 416.25L319.97 639.98L319.96 639.98L319.96 639.98L316.44 639.98L316.44 639.98L315.41 639.98L306.88 639.8L296.12 639.15L285.48 638.07L274.96 636.57L264.58 634.66L254.35 632.35L244.27 629.64L234.36 626.56L224.61 623.09L215.04 619.26L205.67 615.08L196.48 610.54L187.51 605.66L178.74 600.45L170.2 594.91L161.89 589.06L153.82 582.9L146 576.44L138.43 569.7L131.13 562.67L124.1 555.36L117.35 547.8L110.89 539.97L104.73 531.9L98.88 523.59L93.34 515.05L88.13 506.29L83.25 497.31L78.72 488.13L74.53 478.75L70.7 469.18L67.24 459.44L64.15 449.52L61.45 439.44L59.14 429.21L57.23 418.83L55.73 408.32L54.65 397.67L54.35 392.81L54.35 392.74L54.05 378.16L54.05 378.16L54.41 360.63L55.46 343.29L57.21 326.14L59.62 309.2L62.7 292.47L66.42 275.98L70.78 259.74L75.75 243.77L81.33 228.06L87.5 212.65L94.25 197.54L101.56 182.74L109.42 168.28L117.82 154.16L126.74 140.39L136.17 127L146.09 114L152.89 105.77L236.24 272.5L320 440L403.75 272.5L487.12 105.77L493.91 114L503.83 127L503.83 127L513.26 140.39Z" id="abpR4Benr"></path><path d="M503.83 127.03L513.26 140.42L522.18 154.18L530.58 168.3L538.44 182.76L543.24 192.48L543.51 193.01L545.75 197.56L552.5 212.67L558.67 228.08L564.25 243.79L569.22 259.77L573.58 276.01L577.3 292.49L580.38 309.22L582.79 326.16L584.54 343.31L585.59 360.65L585.95 378.15L450.94 378.15L431.89 416.25L320.01 640L319.98 640L208.1 416.25L189.05 378.15L54.05 378.15L54.41 360.65L55.46 343.31L57.21 326.16L59.62 309.22L62.7 292.5L66.42 276.01L70.78 259.77L75.75 243.79L81.33 228.08L87.5 212.67L94.25 197.56L96.5 193.01L96.76 192.48L101.56 182.76L109.42 168.3L117.82 154.18L126.74 140.42L136.17 127.03L146.09 114.02L152.89 105.79L236.24 272.52L320 440.02L403.75 272.52L418.12 243.79L443.51 193.01L487.12 105.79L493.91 114.02L503.83 127.03Z" id="b8re5Ftdv"></path><path d="M319.98 0L319.98 0L321.91 0L321.91 0L322.28 0L326.46 0.09L331.76 0.41L337 0.94L342.18 1.68L347.29 2.62L352.33 3.76L357.29 5.09L362.18 6.61L366.98 8.32L371.69 10.2L376.31 12.26L380.83 14.5L384.24 16.35L384.58 16.55L398.34 25.47L411.73 34.9L424.73 44.82L437.34 55.23L449.53 66.1L461.3 77.43L472.63 89.2L483.5 101.39L487.12 105.77L403.75 272.5L320 440L236.24 272.5L152.89 105.77L156.5 101.39L167.37 89.2L178.7 77.43L190.47 66.1L202.66 55.23L215.27 44.82L228.27 34.9L241.66 25.47L255.42 16.55L255.75 16.36L259.17 14.5L263.7 12.26L268.31 10.2L273.02 8.31L277.82 6.61L282.71 5.09L287.67 3.76L292.71 2.62L297.82 1.68L303 0.94L308.24 0.41L313.54 0.09L317.74 0L318.25 0L318.25 0L319.98 0Z" id="d5bBDZrfX"></path><path d="M355 370L390 300L320 300L250 300L285 370L320 440L355 370Z" id="a2bzjluIvJ"></path><path d="M350 380L380 320L320 320L260 320L290 380L320 440L350 380Z" id="i1MjXAECb5"></path></defs><g><g><g><use xlink:href="#abpR4Benr" opacity="1" fill="#2b6a73" fill-opacity="1"></use></g><g><use xlink:href="#b8re5Ftdv" opacity="1" fill="#ffa901" fill-opacity="1"></use></g><g><g><filter id="shadow5480258" x="111.89" y="-41" width="416.23" height="526" filterUnits="userSpaceOnUse" primitiveUnits="userSpaceOnUse"><feFlood></feFlood><feComposite in2="SourceAlpha" operator="in"></feComposite><feGaussianBlur stdDeviation="4"></feGaussianBlur><feOffset dx="0" dy="4" result="afterOffset"></feOffset><feFlood flood-color="#000000" flood-opacity="0.5"></feFlood><feComposite in2="afterOffset" operator="in"></feComposite><feMorphology operator="dilate" radius="0"></feMorphology><feComposite in2="SourceAlpha" operator="out"></feComposite></filter><path d="M319.98 0L319.98 0L321.91 0L321.91 0L322.28 0L326.46 0.09L331.76 0.41L337 0.94L342.18 1.68L347.29 2.62L352.33 3.76L357.29 5.09L362.18 6.61L366.98 8.32L371.69 10.2L376.31 12.26L380.83 14.5L384.24 16.35L384.58 16.55L398.34 25.47L411.73 34.9L424.73 44.82L437.34 55.23L449.53 66.1L461.3 77.43L472.63 89.2L483.5 101.39L487.12 105.77L403.75 272.5L320 440L236.24 272.5L152.89 105.77L156.5 101.39L167.37 89.2L178.7 77.43L190.47 66.1L202.66 55.23L215.27 44.82L228.27 34.9L241.66 25.47L255.42 16.55L255.75 16.36L259.17 14.5L263.7 12.26L268.31 10.2L273.02 8.31L277.82 6.61L282.71 5.09L287.67 3.76L292.71 2.62L297.82 1.68L303 0.94L308.24 0.41L313.54 0.09L317.74 0L318.25 0L318.25 0L319.98 0Z" id="c1x8Sle2oZ" fill="white" fill-opacity="1" filter="url(#shadow5480258)"></path></g><use xlink:href="#d5bBDZrfX" opacity="1" fill="#ea493f" fill-opacity="1"></use></g><g><use xlink:href="#a2bzjluIvJ" opacity="1" fill="#ffffff" fill-opacity="1"></use></g><g><use xlink:href="#i1MjXAECb5" opacity="1" fill="#000000" fill-opacity="1"></use></g></g></g></svg>