<svg xmlns="http://www.w3.org/2000/svg" xmlns:xlink="http://www.w3.org/1999/xlink" viewBox="0 0 640 640" width="640" height="640"><defs><path d="M513.26 140.39l8.92 13.77 8.4 14.12 7.86 14.46 7.31 14.8 6.75 15.11 6.17 15.41 5.58 15.7 4.97 15.98 4.36 16.24 3.72 16.49 3.08 16.73 2.41 16.94 1.75 17.15 1.05 17.34.36 17.52-.3 14.59v.07l-.3 4.86-1.08 10.65-1.5 10.51-1.91 10.38-2.31 10.23-2.7 10.08-3.09 9.92-3.46 9.74-3.83 9.57-4.19 9.38-4.53 9.18-4.88 8.98-5.21 8.76-5.54 8.54-5.85 8.31-6.16 8.07-6.46 7.83-6.75 7.56-7.03 7.31-7.3 7.03-7.57 6.74-7.82 6.46-8.07 6.16-8.31 5.85-8.54 5.54-8.77 5.21-8.97 4.88-9.19 4.54-9.37 4.18-9.57 3.83-9.75 3.47-9.91 3.08-10.08 2.71-10.23 2.31-10.38 1.91-10.52 1.5-10.64 1.08-10.76.65-8.55.18h-4.55l111.87-223.73 19.05-38.1h135.01l-.36-17.5-1.05-17.34-1.75-17.15-2.41-16.94-3.08-16.73-3.72-16.48-4.36-16.24-4.97-15.98-5.58-15.71-6.17-15.41-6.75-15.11-2.24-4.55-.27-.53-4.8-9.72-7.86-14.46-8.4-14.12-8.92-13.76-9.43-13.39-9.92-13.01-6.79-8.23-43.61 87.22-25.39 50.78-14.37 28.73L320 440.02l-83.76-167.5-83.35-166.73-6.8 8.23-9.92 13.01-9.43 13.39-8.92 13.76-8.4 14.12-7.86 14.46-4.8 9.72-.26.53-2.25 4.55-6.75 15.11-6.17 15.41-5.58 15.71-4.97 15.98-4.36 16.24-3.72 16.49-3.08 16.72-2.41 16.94-1.75 17.15-1.05 17.34-.36 17.5h135l19.05 38.1 111.87 223.73h-4.56l-8.53-.18-10.76-.65-10.64-1.08-10.52-1.5-10.38-1.91-10.23-2.31-10.08-2.71-9.91-3.08-9.75-3.47-9.57-3.83-9.37-4.18-9.19-4.54-8.97-4.88-8.77-5.21-8.54-5.54-8.31-5.85-8.07-6.16-7.82-6.46-7.57-6.74-7.3-7.03-7.03-7.31-6.75-7.56-6.46-7.83-6.16-8.07-5.85-8.31-5.54-8.54-5.21-8.76-4.88-8.98-4.53-9.18-4.19-9.38-3.83-9.57-3.46-9.74-3.09-9.92-2.7-10.08-2.31-10.23-1.91-10.38-1.5-10.51-1.08-10.65-.3-4.86v-.07l-.3-14.58.36-17.53 1.05-17.34 1.75-17.15 2.41-16.94 3.08-16.73 3.72-16.49 4.36-16.24 4.97-15.97 5.58-15.71 6.17-15.41 6.75-15.11 7.31-14.8 7.86-14.46 8.4-14.12 8.92-13.77 9.43-13.39 9.92-13 6.8-8.23 83.35 166.73L320 440l83.75-167.5 83.37-166.73 6.79 8.23 9.92 13 9.43 13.39z" id="a"/><path d="M503.83 127.03l9.43 13.39 8.92 13.76 8.4 14.12 7.86 14.46 4.8 9.72.27.53 2.24 4.55 6.75 15.11 6.17 15.41 5.58 15.71 4.97 15.98 4.36 16.24 3.72 16.48 3.08 16.73 2.41 16.94 1.75 17.15 1.05 17.34.36 17.5H450.94l-19.05 38.1L320.01 640h-.03L208.1 416.25l-19.05-38.1h-135l.36-17.5 1.05-17.34 1.75-17.15 2.41-16.94 3.08-16.72 3.72-16.49 4.36-16.24 4.97-15.98 5.58-15.71 6.17-15.41 6.75-15.11 2.25-4.55.26-.53 4.8-9.72 7.86-14.46 8.4-14.12 8.92-13.76 9.43-13.39 9.92-13.01 6.8-8.23 83.35 166.73L320 440.02l83.75-167.5 14.37-28.73 25.39-50.78 43.61-87.22 6.79 8.23 9.92 13.01z" id="b"/><path d="M317.99 635.97h4.02l-2 4h-.02l-2-4z" id="c"/><path d="M54.35 388.82l.29 4.85 1.08 10.64 1.5 10.52 1.91 10.38 2.31 10.23 2.71 10.08 3.08 9.91 3.47 9.75 3.82 9.57 4.19 9.37 4.54 9.19 4.88 8.97 5.21 8.77 5.54 8.54 5.85 8.31 6.16 8.07 6.46 7.82 6.74 7.57 7.03 7.3 7.31 7.03 7.56 6.75 7.83 6.46 8.07 6.16 8.31 5.85 8.54 5.54 8.76 5.21 8.98 4.88 9.18 4.53 9.38 4.19 9.57 3.83 9.74 3.46 9.92 3.09 10.08 2.7 10.23 2.31 10.38 1.91 10.51 1.5 10.65 1.08 10.76.66 8.54.17 1.02.01v-.01h1.55l2 4h-3.55v.01l-1.02-.01-8.54-.17-10.76-.66-10.65-1.08-10.51-1.5-10.38-1.91-10.23-2.31-10.08-2.7-9.92-3.09-9.74-3.46-9.57-3.83-9.38-4.19-9.18-4.53-8.98-4.88-8.76-5.21-8.54-5.54-8.31-5.85-8.07-6.16-7.83-6.46-7.56-6.75-7.31-7.03-7.03-7.3-6.74-7.57-6.46-7.82-6.16-8.07-5.85-8.31-5.54-8.54-5.21-8.77-4.88-8.97-4.54-9.19-4.19-9.37-3.82-9.57-3.47-9.75-3.08-9.91-2.71-10.08-2.31-10.23-1.91-10.38-1.5-10.52-1.08-10.64-.29-4.85-.01-.09-.29-14.58.04-1.99.25 12.57.01.09zm531.6-10.67l-.3 14.6v.04l-.3 4.88-1.08 10.64-1.5 10.52-1.91 10.38-2.31 10.23-2.7 10.08-3.09 9.91-3.46 9.75-3.83 9.57-4.19 9.37-4.54 9.19-4.88 8.97-5.21 8.77-5.53 8.54-5.86 8.31-6.15 8.07-6.46 7.82-6.75 7.57-7.03 7.3-7.3 7.03-7.57 6.75-7.82 6.46-8.08 6.16-8.31 5.85-8.54 5.53-8.76 5.22-8.98 4.88-9.18 4.53-9.38 4.19-9.56 3.83-9.75 3.46-9.92 3.09-10.07 2.7-10.24 2.31-10.38 1.91-10.51 1.5-10.64 1.08-10.77.66-8.5.17h-4.6l2-4h2.6l8.5-.17 10.77-.66 10.64-1.08 10.51-1.5 10.38-1.91 10.24-2.31 10.07-2.7 9.92-3.09 9.75-3.46 9.56-3.83 9.38-4.19 9.18-4.53 8.98-4.88 8.76-5.22 8.54-5.53 8.31-5.85 8.08-6.16 7.82-6.46 7.57-6.75 7.3-7.03 7.03-7.3 6.75-7.57 6.46-7.82 6.15-8.07 5.86-8.31 5.53-8.54 5.21-8.77 4.88-8.97 4.54-9.19 4.19-9.37 3.83-9.57 3.46-9.75 3.09-9.91 2.7-10.08 2.31-10.23 1.91-10.38 1.5-10.52 1.08-10.64.3-4.88v-.04l.26-12.59.04 1.99z" id="d"/><path d="M331.76.41l5.24.53 5.18.74 5.11.94 5.04 1.14 4.96 1.33 4.89 1.52 4.8 1.71 4.71 1.88 4.62 2.06 4.52 2.24 3.41 1.85.34.2 13.76 8.92 13.39 9.43 13 9.92 12.61 10.41 12.19 10.87 11.77 11.33 11.33 11.77 10.87 12.19L493.91 114l9.92 13 9.43 13.39 8.92 13.77 8.4 14.12 7.86 14.46 7.31 14.8 6.75 15.11 6.17 15.41 5.58 15.7 4.97 15.98 4.36 16.24 3.72 16.49 3.08 16.73 2.41 16.94 1.75 17.15 1.05 17.34.36 17.52-.3 14.59v.07l-.3 4.86-1.08 10.65-1.5 10.51-1.91 10.38-2.31 10.23-2.7 10.08-3.09 9.92-3.46 9.74-3.83 9.57-4.19 9.38-4.53 9.18-4.88 8.98-5.21 8.76-5.54 8.54-5.85 8.31-6.16 8.07-6.46 7.83-6.75 7.56-7.03 7.31-7.3 7.03-7.57 6.74-7.82 6.46-8.07 6.16-8.31 5.85-8.54 5.54-8.77 5.21-8.97 4.88-9.19 4.54-9.37 4.18-9.57 3.83-9.75 3.47-9.91 3.08-10.08 2.71-10.23 2.31-10.38 1.91-10.52 1.5-10.64 1.08-10.76.65-8.55.18H320V0h2.28l4.18.09 5.3.32z" id="e"/><path d="M319.98 0h2.3l4.18.09 5.3.32 5.24.53 5.18.74 5.11.94 5.04 1.14 4.96 1.33 4.89 1.52 4.8 1.71 4.71 1.88 4.62 2.06 4.52 2.24 3.41 1.85.34.2 13.76 8.92 13.39 9.43 13 9.92 12.61 10.41 12.19 10.87 11.77 11.33 11.33 11.77 10.87 12.19 3.62 4.38-1.25 2.49-2.37-2.87-10.87-12.19-11.33-11.77-11.77-11.33-12.19-10.87-12.61-10.41-13-9.92-13.39-9.43-13.76-8.92-.34-.2-3.41-1.85-4.52-2.24-4.62-2.06-4.71-1.88-4.8-1.71-4.89-1.52-4.96-1.33-5.04-1.14-5.11-.94-5.18-.74-5.24-.53-5.3-.32-4.18-.09H317.74l-4.2.09-5.3.32-5.24.53-5.18.74-5.11.94-5.04 1.14-4.96 1.33-4.89 1.52-4.8 1.7-4.71 1.89-4.61 2.06-4.53 2.24-3.42 1.86-.33.19-13.76 8.92-13.39 9.43-13 9.92-12.61 10.41-12.19 10.87-11.77 11.33-11.33 11.77-10.87 12.19-2.37 2.87-1.24-2.49 3.61-4.38 10.87-12.19 11.33-11.77 11.77-11.33 12.19-10.87 12.61-10.41 13-9.92 13.39-9.43 13.76-8.92h.01l.32-.19 3.42-1.86 4.53-2.24 4.61-2.06 4.71-1.89 4.8-1.7 4.89-1.52 4.96-1.33 5.04-1.14 5.11-.94L303 .94l5.24-.53 5.3-.32 4.2-.09h2.24z" id="f"/><path d="M319.98 0h2.3l4.18.09 5.3.32 5.24.53 5.18.74 5.11.94 5.04 1.14 4.96 1.33 4.89 1.52 4.8 1.71 4.71 1.88 4.62 2.06 4.52 2.24 3.41 1.85.34.2 13.76 8.92 13.39 9.43 13 9.92 12.61 10.41 12.19 10.87 11.77 11.33 11.33 11.77 10.87 12.19 3.62 4.38-83.37 166.73L320 440l-83.76-167.5-83.35-166.73 3.61-4.38 10.87-12.19 11.33-11.77 11.77-11.33 12.19-10.87 12.61-10.41 13-9.92 13.39-9.43 13.76-8.92.33-.19 3.42-1.86 4.53-2.24 4.61-2.06 4.71-1.89 4.8-1.7 4.89-1.52 4.96-1.33 5.04-1.14 5.11-.94L303 .94l5.24-.53 5.3-.32 4.2-.09h2.24z" id="h"/><path d="M355 370l35-70H250l35 70 35 70 35-70z" id="i"/><path d="M350 380l30-60H260l30 60 30 60 30-60z" id="j"/><path d="M319.98 0h2.3l4.18.09 5.3.32 5.24.53 5.18.74 5.11.94 5.04 1.14 4.96 1.33 4.89 1.52 4.8 1.71 4.71 1.88 4.62 2.06 4.52 2.24 3.41 1.85.34.2 13.76 8.92 13.39 9.43 13 9.92 12.61 10.41 12.19 10.87 11.77 11.33 11.33 11.77 10.87 12.19L493.91 114l9.92 13 9.43 13.39 8.92 13.77 8.4 14.12 7.86 14.46 7.31 14.8 6.75 15.11 6.17 15.41 5.58 15.7 4.97 15.98 4.36 16.24 3.72 16.49 3.08 16.73 2.41 16.94 1.75 17.15 1.05 17.34.36 17.52-.3 14.59v.07l-.3 4.86-1.08 10.65-1.5 10.51-1.91 10.38-2.31 10.23-2.7 10.08-3.09 9.92-3.46 9.74-3.83 9.57-4.19 9.38-4.53 9.18-4.88 8.98-5.21 8.76-5.54 8.54-5.85 8.31-6.16 8.07-6.46 7.83-6.75 7.56-7.03 7.31-7.3 7.03-7.57 6.74-7.82 6.46-8.07 6.16-8.31 5.85-8.54 5.54-8.77 5.21-8.97 4.88-9.19 4.54-9.37 4.18-9.57 3.83-9.75 3.47-9.91 3.08-10.08 2.71-10.23 2.31-10.38 1.91-10.52 1.5-10.64 1.08-10.76.65-8.55.18h-9.16l-8.53-.18-10.76-.65-10.64-1.08-10.52-1.5-10.38-1.91-10.23-2.31-10.08-2.71-9.91-3.08-9.75-3.47-9.57-3.83-9.37-4.18-9.19-4.54-8.97-4.88-8.77-5.21-8.54-5.54-8.31-5.85-8.07-6.16-7.82-6.46-7.57-6.74-7.3-7.03-7.03-7.31-6.75-7.56-6.46-7.83-6.16-8.07-5.85-8.31-5.54-8.54-5.21-8.76-4.88-8.98-4.53-9.18-4.19-9.38-3.83-9.57-3.46-9.74-3.09-9.92-2.7-10.08-2.31-10.23-1.91-10.38-1.5-10.51-1.08-10.65-.3-4.86v-.07l-.3-14.58.36-17.53 1.05-17.34 1.75-17.15 2.41-16.94 3.08-16.73 3.72-16.49 4.36-16.24 4.97-15.97 5.58-15.71 6.17-15.41 6.75-15.11 7.31-14.8 7.86-14.46 8.4-14.12 8.92-13.77 9.43-13.39 9.92-13 10.41-12.61 10.87-12.19 11.33-11.77 11.77-11.33 12.19-10.87 12.61-10.41 13-9.92 13.39-9.43 13.76-8.92.33-.19 3.42-1.86 4.53-2.24 4.61-2.06 4.71-1.89 4.8-1.7 4.89-1.52 4.96-1.33 5.04-1.14 5.11-.94L303 .94l5.24-.53 5.3-.32 4.2-.09h2.24z" id="k"/><radialGradient id="l" gradientUnits="userSpaceOnUse" cx="59.1" cy="-.68" r="728.18"><stop offset="0%" stop-color="#fff" stop-opacity=".1"/><stop offset="100%" stop-color="#fff" stop-opacity="0"/></radialGradient></defs><use xlink:href="#a" fill="#2b6a73"/><use xlink:href="#b" fill="#ffa901"/><use xlink:href="#c" opacity=".2" fill="#bf3603"/><use xlink:href="#d" opacity=".2" fill="#263238"/><use xlink:href="#e" opacity=".2"/><use xlink:href="#f" opacity=".2" fill="#fff"/><filter id="g" x="111.89" y="-41" width="416.23" height="526" filterUnits="userSpaceOnUse"><feFlood/><feComposite in2="SourceAlpha" operator="in"/><feGaussianBlur stdDeviation="4"/><feOffset dy="4" result="afterOffset"/><feFlood flood-color="#000" flood-opacity=".5"/><feComposite in2="afterOffset" operator="in"/><feMorphology operator="dilate"/><feComposite in2="SourceAlpha" operator="out"/></filter><path d="M319.98 0h2.3l4.18.09 5.3.32 5.24.53 5.18.74 5.11.94 5.04 1.14 4.96 1.33 4.89 1.52 4.8 1.71 4.71 1.88 4.62 2.06 4.52 2.24 3.41 1.85.34.2 13.76 8.92 13.39 9.43 13 9.92 12.61 10.41 12.19 10.87 11.77 11.33 11.33 11.77 10.87 12.19 3.62 4.38-83.37 166.73L320 440l-83.76-167.5-83.35-166.73 3.61-4.38 10.87-12.19 11.33-11.77 11.77-11.33 12.19-10.87 12.61-10.41 13-9.92 13.39-9.43 13.76-8.92.33-.19 3.42-1.86 4.53-2.24 4.61-2.06 4.71-1.89 4.8-1.7 4.89-1.52 4.96-1.33 5.04-1.14 5.11-.94L303 .94l5.24-.53 5.3-.32 4.2-.09h2.24z" fill="#fff" filter="url(#g)"/><use xlink:href="#h" fill="#ea493f"/><use xlink:href="#i" fill="#fff"/><g><use xlink:href="#j"/></g><g><use xlink:href="#k" opacity=".6" fill="url(#l)"/></g></svg>