<svg xmlns="http://www.w3.org/2000/svg" xmlns:xlink="http://www.w3.org/1999/xlink" viewBox="0 0 640 640" width="640" height="640"><defs><path d="M322.24 0l4.22.08 5.3.34 5.24.52 5.18.74 5.12.94 5.02 1.14 4.98 1.34 4.88 1.52 4.8 1.7 4.7 1.88 4.62 2.06 4.52 2.24 3.42 1.84.34.22 13.76 8.92 13.38 9.42 13.02 9.92 12.6 10.42 12.2 10.86 11.76 11.34 11.34 11.76 10.86 12.2 10.42 12.6 9.92 13 9.42 13.4 8.92 13.76 8.4 14.12 7.86 14.46 7.32 14.8 6.74 15.12 6.18 15.4 5.58 15.72 4.96 15.98 4.36 16.24 3.72 16.48 3.08 16.72 2.42 16.94 1.74 17.16 1.06 17.34.36 17.52-.3 14.56v.12l-.3 4.84-1.08 10.64-1.5 10.52-1.92 10.38-2.3 10.24-2.7 10.08-3.1 9.92-3.46 9.74-3.82 9.56-4.2 9.38-4.52 9.18-4.88 8.98-5.22 8.76-5.54 8.54-5.84 8.32-6.16 8.06-6.46 7.84-6.76 7.56-7.02 7.3-7.3 7.04-7.58 6.74-7.82 6.46-8.06 6.16-8.32 5.86-8.54 5.52-8.76 5.22-8.98 4.88-9.18 4.54-9.38 4.18-9.56 3.84-9.76 3.46-9.92 3.08-10.08 2.7-10.22 2.32-10.38 1.9-10.52 1.5-10.64 1.08-10.76.66-8.56.18h-9.18l-8.5-.18-10.76-.66-10.64-1.08-10.52-1.5-10.38-1.9-10.24-2.32-10.08-2.7-9.9-3.08-9.76-3.46-9.56-3.84-9.38-4.18-9.18-4.54-8.98-4.88-8.76-5.22-8.54-5.52-8.32-5.86-8.06-6.16-7.84-6.46-7.56-6.74-7.3-7.04-7.04-7.3-6.74-7.56-6.46-7.84-6.16-8.06-5.84-8.32-5.54-8.54-5.22-8.76-4.88-8.98-4.54-9.18-4.18-9.38-3.84-9.56-3.46-9.74-3.08-9.92-2.7-10.08-2.32-10.24-1.9-10.38-1.5-10.52-1.08-10.64-.3-4.82v-.14l-.3-14.56.36-17.52 1.06-17.34 1.74-17.16 2.42-16.94 3.06-16.72L66.42 276l4.34-16.24 4.98-15.98 5.58-15.72 6.18-15.4 6.74-15.12 7.32-14.8 7.86-14.46 8.4-14.12 8.92-13.76 9.42-13.4 9.92-13 10.42-12.6 10.86-12.2 11.34-11.76 11.76-11.34 12.2-10.86 12.6-10.42 13-9.92 13.4-9.42 13.76-8.92.34-.2 3.4-1.86 4.54-2.24 4.62-2.06 4.7-1.88 4.8-1.7 4.88-1.52 4.96-1.34 5.04-1.14 5.12-.94L303 .94l5.24-.52 5.3-.34 4.24-.08h4.46z" id="a"/><path d="M322.24 0l4.22.08 5.3.34 5.24.52 5.18.74 5.12.94 5.02 1.14 4.98 1.34 4.88 1.52 4.8 1.7 4.7 1.88 4.62 2.06 4.52 2.24 3.42 1.84.34.22 13.76 8.92 13.38 9.42 13.02 9.92 12.6 10.42 12.2 10.86 11.76 11.34 11.34 11.76 10.86 12.2 10.42 12.6 9.92 13 9.42 13.4 8.92 13.76 8.4 14.12 7.86 14.46 7.32 14.8 6.74 15.12 6.18 15.4 5.58 15.72 4.96 15.98 4.36 16.24 3.72 16.48 3.08 16.72 2.42 16.94 1.74 17.16 1.06 17.34.36 17.52-.3 14.56v.12l-.3 4.84-1.08 10.64-1.5 10.52-1.92 10.38-2.3 10.24-2.7 10.08-3.1 9.92-3.46 9.74-3.82 9.56-4.2 9.38-4.52 9.18-4.88 8.98-5.22 8.76-5.54 8.54-5.84 8.32-6.16 8.06-6.46 7.84-6.76 7.56-7.02 7.3-7.3 7.04-7.58 6.74-7.82 6.46-8.06 6.16-8.32 5.86-8.54 5.52-8.76 5.22-8.98 4.88-9.18 4.54-9.38 4.18-9.56 3.84-9.76 3.46-9.92 3.08-10.08 2.7-10.22 2.32-10.38 1.9-10.52 1.5-10.64 1.08-10.76.66-8.56.18h-9.18l-8.5-.18-10.76-.66-10.64-1.08-10.52-1.5-10.38-1.9-10.24-2.32-10.08-2.7-9.9-3.08-9.76-3.46-9.56-3.84-9.38-4.18-9.18-4.54-8.98-4.88-8.76-5.22-8.54-5.52-8.32-5.86-8.06-6.16-7.84-6.46-7.56-6.74-7.3-7.04-7.04-7.3-6.74-7.56-6.46-7.84-6.16-8.06-5.84-8.32-5.54-8.54-5.22-8.76-4.88-8.98-4.54-9.18-4.18-9.38-3.84-9.56-3.46-9.74-3.08-9.92-2.7-10.08-2.32-10.24-1.9-10.38-1.5-10.52-1.08-10.64-.3-4.82v-.14l-.3-14.56.36-17.52 1.06-17.34 1.74-17.16 2.42-16.94 3.06-16.72L66.42 276l4.34-16.24 4.98-15.98 5.58-15.72 6.18-15.4 6.74-15.12 7.32-14.8 7.86-14.46 8.4-14.12 8.92-13.76 9.42-13.4 9.92-13 10.42-12.6 10.86-12.2 11.34-11.76 11.76-11.34 12.2-10.86 12.6-10.42 13-9.92 13.4-9.42 13.76-8.92.34-.2 3.4-1.86 4.54-2.24 4.62-2.06 4.7-1.88 4.8-1.7 4.88-1.52 4.96-1.34 5.04-1.14 5.12-.94L303 .94l5.24-.52 5.3-.34 4.24-.08h4.46z" id="b"/><radialGradient id="c" gradientUnits="userSpaceOnUse" cx="82.22" cy="26.02" r="691"><stop offset="0%" stop-color="#fff" stop-opacity=".1"/><stop offset="100%" stop-color="#fff" stop-opacity="0"/></radialGradient><path d="M455 236.26h-83.26l-51.74 90-52.88-90h-83.26l136.14 234 135-234z" id="d"/><path d="M320 624.56L95 236.4h88.92L320 470.34 454.96 236.4H545L320 624.56z" id="e"/><path d="M319.98 0h2.3l4.18.09 5.3.32 5.24.53 5.18.74 5.11.94 5.04 1.14 4.96 1.33 4.89 1.52 4.8 1.71 4.71 1.88 4.62 2.06 4.52 2.24 3.41 1.85.34.2 13.76 8.92 13.39 9.43 13 9.92 12.61 10.41 12.19 10.87 11.77 11.33 11.33 11.77 10.87 12.19 3.62 4.38-1.25 2.49-2.37-2.87-10.87-12.19-11.33-11.77-11.77-11.33-12.19-10.87-12.61-10.41-13-9.92-13.39-9.43-13.76-8.92-.34-.2-3.41-1.85-4.52-2.24-4.62-2.06-4.71-1.88-4.8-1.71-4.89-1.52-4.96-1.33-5.04-1.14-5.11-.94-5.18-.74-5.24-.53-5.3-.32-4.18-.09H317.74l-4.2.09-5.3.32-5.24.53-5.18.74-5.11.94-5.04 1.14-4.96 1.33-4.89 1.52-4.8 1.7-4.71 1.89-4.61 2.06-4.53 2.24-3.42 1.86-.33.19-13.76 8.92-13.39 9.43-13 9.92-12.61 10.41-12.19 10.87-11.77 11.33-11.33 11.77-10.87 12.19-2.37 2.87-1.24-2.49 3.61-4.38 10.87-12.19 11.33-11.77 11.77-11.33 12.19-10.87 12.61-10.41 13-9.92 13.39-9.43 13.76-8.92h.01l.32-.19 3.42-1.86 4.53-2.24 4.61-2.06 4.71-1.89 4.8-1.7 4.89-1.52 4.96-1.33 5.04-1.14 5.11-.94L303 .94l5.24-.53 5.3-.32 4.2-.09h2.24z" id="f"/><path d="M337 .94l5.18.74 5.1.94 5.04 1.14 4.98 1.34 4.88 1.52 4.8 1.7 4.7 1.88 4.62 2.06 4.52 2.24 3.42 1.84.34.22 13.76 8.92 13.38 9.42 13.02 9.92 12.6 10.42 12.2 10.86 11.76 11.34 11.34 11.76 10.86 12.2 10.42 12.6 9.92 13 9.42 13.4 8.92 13.76 8.4 14.12 7.86 14.46 7.32 14.8 6.74 15.12 6.18 15.4 5.58 15.72 4.96 15.98 4.36 16.24 3.72 16.48 3.08 16.72 2.42 16.94 1.74 17.16 1.06 17.34.36 17.52-.3 14.54v.16l-.3 4.82-1.08 10.64-1.5 10.52-1.92 10.38-2.3 10.24-2.7 10.08-3.1 9.92-3.46 9.74-3.82 9.56-4.2 9.38-4.52 9.18-4.88 8.98-5.22 8.76-5.54 8.54-5.84 8.32-6.16 8.08-6.46 7.82-6.76 7.56-7.02 7.3-7.3 7.04-7.58 6.74-7.82 6.46-8.06 6.16-8.32 5.86-8.54 5.52-8.76 5.22-8.98 4.88-9.18 4.54-9.38 4.18-9.56 3.84-9.76 3.46-9.92 3.08-10.08 2.7-10.22 2.32-10.38 1.9-10.52 1.5-10.64 1.08-10.76.66-8.52.18H320V0h2.28l4.18.08 5.3.34 5.24.52z" id="g"/><path d="M316.44 639.97v.01l-1.02-.01-8.54-.17-10.76-.66-10.65-1.08-10.51-1.5-10.38-1.91-10.23-2.31-10.08-2.7-9.92-3.09-9.74-3.46-9.57-3.83-9.38-4.19-9.18-4.53-8.98-4.88-8.76-5.21-8.54-5.54-8.31-5.85-8.07-6.16-7.83-6.46-7.56-6.75-7.31-7.03-7.03-7.3-6.74-7.57-6.46-7.82-6.16-8.07-5.85-8.31-5.54-8.54-5.21-8.77-4.88-8.97-4.54-9.19-4.19-9.37-3.82-9.57-3.47-9.75-3.08-9.91-2.71-10.08-2.31-10.23-1.91-10.38-1.5-10.52-1.08-10.64-.29-4.85-.01-.09-.29-14.58.04-1.99.25 12.57.01.09.29 4.85 1.08 10.64 1.5 10.52 1.91 10.38 2.31 10.23 2.71 10.08 3.08 9.91 3.47 9.75 3.82 9.57 4.19 9.37 4.54 9.19 4.88 8.97 5.21 8.77 5.54 8.54 5.85 8.31 6.16 8.07 6.46 7.82 6.74 7.57 7.03 7.3 7.31 7.03 7.56 6.75 7.83 6.46 8.07 6.16 8.31 5.85 8.54 5.54 8.76 5.21 8.98 4.88 9.18 4.53 9.38 4.19 9.57 3.83 9.74 3.46 9.92 3.09 10.08 2.7 10.23 2.31 10.38 1.91 10.51 1.5 10.65 1.08 10.76.66 8.54.17 1.02.01v-.01h8.17l8.5-.17 10.77-.66 10.64-1.08 10.51-1.5 10.38-1.91 10.24-2.31 10.07-2.7 9.92-3.09 9.75-3.46 9.56-3.83 9.38-4.19 9.18-4.53 8.98-4.88 8.76-5.22 8.54-5.53 8.31-5.85 8.08-6.16 7.82-6.46 7.57-6.75 7.3-7.03 7.03-7.3 6.75-7.57 6.46-7.82 6.15-8.07 5.86-8.31 5.53-8.54 5.21-8.77 4.88-8.97 4.54-9.19 4.19-9.37 3.83-9.57 3.46-9.75 3.09-9.91 2.7-10.08 2.31-10.23 1.91-10.38 1.5-10.52 1.08-10.64.3-4.88v-.04l.26-12.59.04 1.99-.3 14.6v.04l-.3 4.88-1.08 10.64-1.5 10.52-1.91 10.38-2.31 10.23-2.7 10.08-3.09 9.91-3.46 9.75-3.83 9.57-4.19 9.37-4.54 9.19-4.88 8.97-5.21 8.77-5.53 8.54-5.86 8.31-6.15 8.07-6.46 7.82-6.75 7.57-7.03 7.3-7.3 7.03-7.57 6.75-7.82 6.46-8.08 6.16-8.31 5.85-8.54 5.53-8.76 5.22-8.98 4.88-9.18 4.53-9.38 4.19-9.56 3.83-9.75 3.46-9.92 3.09-10.07 2.7-10.24 2.31-10.38 1.91-10.51 1.5-10.64 1.08-10.77.66-8.5.17h-8.17z" id="h"/></defs><use xlink:href="#a" fill="#f0ead6"/><use xlink:href="#a" fill-opacity="0" stroke="#000" stroke-opacity="0"/><use xlink:href="#b" fill="url(#c)"/><use xlink:href="#b" fill-opacity="0" stroke="#000" stroke-opacity="0"/><use xlink:href="#d" fill="#35495e"/><use xlink:href="#d" fill-opacity="0" stroke="#000" stroke-opacity="0"/><use xlink:href="#e" fill="#41b883"/><use xlink:href="#e" fill-opacity="0" stroke="#000" stroke-opacity="0"/><g><use xlink:href="#f" opacity=".2" fill="#fff"/></g><g><use xlink:href="#g" opacity=".2"/><use xlink:href="#g" opacity=".2" fill-opacity="0" stroke="#000" stroke-opacity="0"/></g><g><use xlink:href="#h" opacity=".1" fill="#212121"/></g></svg>