<svg xmlns="http://www.w3.org/2000/svg" xmlns:xlink="http://www.w3.org/1999/xlink" viewBox="0 0 720 640" width="720" height="640"><defs><path d="M.01 378.17h134.98l19.05 38.11 111.86 223.7h-4.57l-8.52-.18-10.76-.65-10.64-1.08-10.52-1.5-10.37-1.91-10.24-2.31-10.07-2.71-9.92-3.08-9.74-3.46-9.57-3.83-9.38-4.19-9.18-4.54-8.97-4.88-8.76-5.21-8.55-5.53-8.3-5.85-8.08-6.16-7.82-6.46-7.57-6.75-7.3-7.03-7.03-7.3-6.74-7.56-6.46-7.83-6.16-8.07-5.85-8.31-5.54-8.54-5.21-8.76-4.88-8.98-4.53-9.18-4.19-9.37-3.83-9.57-3.46-9.74-3.09-9.92-2.7-10.08-2.31-10.23-1.91-10.38-1.5-10.51L.6 397.7l-.3-4.88v-.03L0 378.18v-.02h.01v.01zm531.54 14.66l-.29 4.87-1.09 10.64-1.5 10.51-1.91 10.38-2.31 10.23-2.7 10.08-3.08 9.92-3.47 9.74-3.83 9.57-4.18 9.37-4.54 9.18-4.88 8.98-5.21 8.76-5.53 8.54-5.86 8.31-6.15 8.07-6.46 7.82-6.75 7.57-7.03 7.3-7.3 7.03-7.57 6.75-7.82 6.46-8.07 6.16-8.31 5.85-8.54 5.53-8.76 5.21-8.98 4.88-9.18 4.54-9.38 4.19-9.56 3.83-9.75 3.46-9.91 3.08-10.08 2.71-10.23 2.31-10.38 1.91-10.51 1.5-10.65 1.08-10.76.65-8.54.18H265.94l111.86-223.7 19.05-38.11h135v-.01.02l-.29 14.59-.01.06z" id="a"/><path d="M472.85 254.39l4.87.3 10.64 1.08 10.51 1.5 10.38 1.91 10.23 2.31 10.08 2.7 9.92 3.09 9.74 3.46 9.57 3.83 9.37 4.19 9.19 4.53 8.97 4.88 8.76 5.21 8.54 5.54 8.31 5.85 8.07 6.16 7.83 6.46 7.56 6.74 7.31 7.03 7.02 7.31 6.75 7.56 6.46 7.82 6.16 8.08 5.85 8.31 5.53 8.54 5.22 8.76 4.87 8.97 4.54 9.18 4.19 9.38 3.83 9.57 3.46 9.74 3.09 9.92 2.7 10.08 2.31 10.23 1.91 10.37 1.5 10.52 1.08 10.64.66 10.76.17 8.52V520L496.3 408.14l-38.1-19.05V254.1h-.02.02l14.6.29h.05z" id="b"/><path d="M.3 388.78l.29 4.85 1.09 10.64 1.5 10.52 1.91 10.37L7.4 435.4l2.7 10.07 3.08 9.92 3.47 9.74 3.83 9.57 4.18 9.38 4.54 9.18 4.88 8.97 5.21 8.77 5.54 8.54 5.85 8.31 6.15 8.07 6.46 7.82 6.75 7.57 7.03 7.3 7.3 7.03 7.57 6.74 7.82 6.46 8.07 6.16 8.31 5.85 8.54 5.54 8.76 5.21 8.98 4.88 9.18 4.53 9.38 4.19 9.56 3.83 9.75 3.46 9.91 3.09 10.08 2.7 10.23 2.31 10.38 1.91 10.51 1.5 10.65 1.08 10.76.66 8.53.17H263.91l2 4h-4.59l-8.51-.17-10.76-.66L231.4 638l-10.51-1.5-10.38-1.91-10.23-2.31-10.08-2.7-9.91-3.09-9.75-3.46-9.56-3.83-9.38-4.19-9.18-4.53-8.98-4.88-8.76-5.21-8.54-5.54-8.31-5.85-8.07-6.16-7.82-6.46-7.57-6.74-7.3-7.03-7.03-7.3-6.75-7.57-6.46-7.82-6.15-8.08-5.85-8.3-5.54-8.55-5.21-8.76-4.88-8.97-4.54-9.18-4.18-9.38-3.83-9.57-3.47-9.74-3.08-9.92-2.7-10.07-2.31-10.24-1.91-10.37-1.5-10.52-1.09-10.64-.29-4.85v-.09L0 378.11l.04-1.99.26 12.57v.09zm531.25 3.9v.1l-.3 4.85-1.08 10.64-1.5 10.52-1.91 10.37-2.31 10.23-2.7 10.08-3.09 9.92-3.46 9.74-3.83 9.57-4.19 9.38-4.53 9.18-4.88 8.97-5.21 8.76-5.54 8.54-5.85 8.31-6.16 8.07-6.46 7.83-6.74 7.56-7.03 7.31-7.3 7.03-7.57 6.74-7.82 6.46-8.08 6.16-8.3 5.85-8.54 5.54-8.77 5.21-8.97 4.88-9.18 4.53-9.38 4.19-9.57 3.83-9.74 3.46-9.92 3.09-10.07 2.7-10.24 2.31-10.37 1.91-10.52 1.5-10.64 1.08-10.76.66-8.54.17H265.94l2-4h2.59l8.51-.17 10.76-.66 10.64-1.08 10.52-1.5 10.37-1.91 10.24-2.31 10.07-2.7 9.92-3.09 9.74-3.46 9.57-3.83 9.38-4.19 9.18-4.53 8.97-4.88 8.77-5.21 8.54-5.54 8.3-5.85 8.08-6.16 7.82-6.46 7.57-6.74 7.3-7.03 7.03-7.3 6.74-7.57 6.46-7.82 6.16-8.08 5.85-8.3 5.54-8.55 5.21-8.76 4.88-8.97 4.53-9.18 4.19-9.38 3.83-9.57 3.46-9.74 3.09-9.92 2.7-10.07 2.31-10.24 1.91-10.37 1.5-10.52 1.08-10.64.3-4.84v-.11l.26-12.56.04 1.99-.3 14.57z" id="c"/><path d="M472.85 254.38l4.87.3 10.64 1.08 10.51 1.5 10.38 1.91 10.23 2.31 10.08 2.7 9.92 3.09 9.74 3.46 9.57 3.83 9.37 4.19 9.19 4.53 8.97 4.88 8.76 5.21 8.54 5.54 8.31 5.85 8.07 6.16 7.83 6.46 7.56 6.74 7.31 7.03 7.02 7.31 6.75 7.56 6.46 7.82 6.16 8.08 5.85 8.31 5.53 8.54 5.22 8.76 4.87 8.97 4.54 9.18 4.19 9.38 3.83 9.57 3.46 9.74 3.09 9.92 2.7 10.08 2.31 10.23 1.91 10.37 1.5 10.52 1.08 10.64.66 10.76.17 8.52v4.58L496.3 408.13l-38.1-19.05V254.09h-.02.02l14.6.29h.05z" id="d"/><path d="M449.74 127.08l9.42 13.39 8.92 13.76 8.4 14.12 7.86 14.46 7.31 14.79 6.75 15.11 6.17 15.41 5.58 15.71 4.97 15.97 4.36 16.24 3.72 16.49 3.07 16.72 2.42 16.94 1.74 17.15 1.06 17.34.27 13.4h2.61v-.01.02l-.29 14.81-.01.08-.29 4.93-1.1 10.81-1.51 10.68-1.93 10.54-2.33 10.39-2.73 10.23-3.12 10.07-3.49 9.9-3.87 9.72-4.22 9.52-4.58 9.32-4.93 9.12-5.26 8.9-5.59 8.67-5.9 8.44-6.22 8.2-6.52 7.94-6.81 7.69-7.1 7.42-7.37 7.13-7.64 6.86-7.89 6.56-8.15 6.25-8.39 5.94-8.62 5.63-8.85 5.29-9.06 4.95-9.27 4.61-9.46 4.25-9.66 3.89-9.84 3.52-10.01 3.13-10.17 2.75-10.33 2.34-10.48 1.94-10.61 1.53-10.74 1.1-10.87.66-8.59.18h-4.63l-.01.02h-.02L154.04 416.28l-19.05-38.11H0l.36-17.49 1.05-17.34 1.74-17.15 2.42-16.94 3.08-16.72 3.72-16.49 4.36-16.24 4.97-15.97 5.58-15.71 6.17-15.41 6.74-15.11 2.37-4.79 4.94-10 7.86-14.46 8.4-14.12 8.92-13.76 9.43-13.39 9.92-13.01 6.79-8.23 83.35 166.72 83.75 167.48 83.75-167.48 39.75-79.5.26-.53 43.34-86.69 6.79 8.23 9.93 13.01z" id="e"/><path d="M279.04 635.74l10.76-.66 10.64-1.08 10.52-1.5 10.38-1.91 10.23-2.31 10.08-2.7 9.91-3.09 9.75-3.46 9.56-3.83 9.38-4.19 9.18-4.53 8.98-4.88 8.76-5.21 8.54-5.54 8.31-5.85 8.07-6.16 7.82-6.46 7.57-6.74 7.3-7.03 7.03-7.3 6.75-7.57 6.45-7.82 6.16-8.08 5.85-8.3 5.54-8.55 5.21-8.76 4.88-8.97 4.54-9.18 4.18-9.38 3.83-9.57 3.46-9.74 3.09-9.92 2.7-10.07 2.31-10.24 1.91-10.37 1.5-10.52 1.08-10.64.3-4.87v-.05l.26-12.59.04 1.99-.3 14.6v.05l-.3 4.87-1.08 10.64-1.5 10.52-1.91 10.37-2.31 10.23-2.7 10.08-3.09 9.92-3.46 9.74-3.83 9.57-4.18 9.38-4.54 9.18-4.88 8.97-5.21 8.76-5.54 8.54-5.85 8.31-6.16 8.07-6.45 7.83-6.75 7.56-7.03 7.31-7.3 7.03-7.57 6.74-7.82 6.46-8.07 6.16-8.31 5.85-8.54 5.54-8.76 5.21-8.98 4.88-9.18 4.53-9.38 4.19-9.56 3.83-9.75 3.46-9.91 3.09-10.08 2.7-10.23 2.31-10.38 1.91-10.52 1.5-10.64 1.08-10.76.66-8.54.17H265.94l2-4h2.59l8.51-.17zm-15.13.17h4.03l-2 4h-.04v-.02l-1.99-3.98z" id="f"/><path d="M277.61.43l5.24.53 5.18.74 5.11.94 5.04 1.14 4.96 1.33 4.88 1.52 4.8 1.71 4.72 1.88 4.61 2.06 4.53 2.24 3.41 1.86.33.19 13.76 8.92 13.4 9.43 13 9.93 12.61 10.4 12.19 10.87 11.77 11.33 11.33 11.77 10.87 12.19 10.4 12.61 9.93 13 9.43 13.4 8.92 13.76 8.4 14.12 7.86 14.46 7.31 14.8 6.75 15.11 6.17 15.41 5.58 15.71 4.97 15.97 4.35 16.25 3.73 16.48 3.07 16.73 2.42 16.94 1.75 17.15 1.05 17.34.36 17.53-.3 14.59v.06l-.3 4.86-1.08 10.65-1.5 10.51-1.91 10.38-2.31 10.23-2.7 10.08-3.09 9.92-3.46 9.74-3.83 9.57-4.19 9.38-4.54 9.18-4.88 8.98-5.21 8.76-5.53 8.54-5.86 8.31-6.15 8.07-6.46 7.83-6.75 7.56-7.03 7.31-7.3 7.03-7.57 6.75-7.82 6.45-8.08 6.16-8.31 5.85-8.54 5.54-8.76 5.21-8.98 4.88-9.18 4.54-9.38 4.19-9.56 3.83-9.75 3.46-9.92 3.08-10.07 2.71-10.24 2.31-10.38 1.91-10.51 1.5-10.64 1.08-10.77.65-8.52.18h-4.59V.02h2.25l4.21.09 5.3.32z" id="g"/><path d="M265.92 440.02l-83.75-167.48-83.35-166.72 3.62-4.37 10.87-12.2 11.33-11.76 11.76-11.33 12.19-10.87 12.61-10.41 13-9.92 13.39-9.43 13.76-8.92.35-.2 3.4-1.85 4.52-2.24 4.62-2.06 4.71-1.88 4.8-1.71 4.88-1.52 4.97-1.33 5.04-1.14 5.11-.94 5.17-.73 5.25-.54 5.3-.32 4.17-.08.53-.01h3.67v.01h.33l4.21.08 5.3.32 5.24.54 5.18.73 5.11.94 5.04 1.14 4.96 1.33 4.89 1.52 4.8 1.71 4.71 1.88 4.61 2.06 4.53 2.24 3.41 1.85.33.2 13.76 8.92 13.39 9.43 13.01 9.92 12.6 10.41 12.19 10.87 11.77 11.33 11.33 11.76 10.87 12.19 10.4 12.61-6.79-8.23-83.35 166.72-83.75 167.48z" id="i"/><path d="M300.92 372.97l35-70H195.93l35 70 35 69.99 34.99-69.99z" id="j"/><path d="M295.92 382.97l30-60H205.93l30 60 30 59.99 29.99-59.99z" id="k"/><path d="M265.9.06h1.94v.01h.33l4.21.08 5.3.32 5.24.54 5.18.73 5.11.94 5.04 1.14 4.96 1.33 4.89 1.52 4.8 1.71 4.71 1.88 4.61 2.06 4.53 2.24 3.41 1.85.33.2 13.76 8.92 13.39 9.43 13.01 9.92 12.6 10.41 12.19 10.87 11.77 11.33 11.33 11.76 10.87 12.19 10.4 12.61 9.93 13 9.42 13.39 8.92 13.76 8.4 14.12 7.86 14.47 7.31 14.79 6.75 15.11 6.17 15.41 5.58 15.7 4.97 15.98 4.36 16.24 3.72 16.49 3.07 16.72 2.42 16.94 1.74 17.15 1.06 17.34.36 17.52-.3 14.57v.1l-.3 4.85-1.08 10.64-1.5 10.51-1.91 10.38-2.31 10.23-2.7 10.08-3.09 9.92-3.46 9.74-3.83 9.57-4.19 9.37-4.53 9.18-4.88 8.98-5.21 8.76-5.54 8.54-5.85 8.31-6.16 8.07-6.46 7.82-6.74 7.57-7.03 7.3-7.3 7.03-7.57 6.75-7.82 6.46-8.08 6.16-8.3 5.85-8.54 5.53-8.77 5.21-8.97 4.88-9.18 4.54-9.38 4.19-9.57 3.83-9.74 3.46-9.92 3.08-10.07 2.71-10.24 2.31-10.37 1.91-10.52 1.5-10.64 1.08-10.76.65-8.55.18h-9.16l-8.52-.18-10.76-.65-10.65-1.08-10.51-1.5-10.38-1.91-10.23-2.31-10.08-2.71-9.91-3.08-9.75-3.46-9.56-3.83-9.38-4.19-9.18-4.54-8.98-4.88-8.76-5.21-8.54-5.53-8.31-5.85-8.07-6.16-7.82-6.46-7.57-6.75-7.3-7.03-7.03-7.3-6.75-7.56-6.46-7.83-6.15-8.07-5.85-8.31-5.54-8.54-5.21-8.76-4.88-8.98-4.54-9.18-4.18-9.37-3.83-9.57-3.47-9.74-3.08-9.92-2.7-10.08-2.31-10.23-1.91-10.38-1.5-10.51L.59 397.7l-.29-4.85v-.1L0 378.18l.36-17.52 1.05-17.34 1.74-17.15 2.42-16.94 3.08-16.72 3.72-16.49 4.36-16.24 4.97-15.98 5.58-15.7 6.17-15.41 6.74-15.11 7.31-14.79 7.86-14.47 8.4-14.11 8.92-13.77 9.43-13.39 9.92-13 10.41-12.6 10.87-12.2 11.33-11.76 11.76-11.33 12.19-10.87 12.61-10.41 13-9.92 13.39-9.43 13.76-8.92.35-.2 3.4-1.85 4.52-2.24 4.62-2.06 4.71-1.88 4.8-1.71 4.88-1.52 4.97-1.33 5.04-1.14 5.11-.94 5.17-.73 5.25-.54 5.3-.32 4.17-.08.53-.01h1.73z" id="l"/><radialGradient id="m" gradientUnits="userSpaceOnUse" cx="4.05" cy="6.04" r="724.93"><stop offset="0%" stop-color="#fff" stop-opacity=".1"/><stop offset="100%" stop-color="#fff" stop-opacity="0"/></radialGradient><path d="M265.91 0h2.3l4.18.09 5.3.32 5.24.53 5.17.74 5.12.94 5.03 1.14 4.97 1.33 4.88 1.52 4.8 1.7 4.71 1.89 4.62 2.06 4.52 2.24 3.42 1.86.33.19 13.76 8.92 13.39 9.43 13 9.92 12.61 10.4 12.19 10.88 11.76 11.32 11.33 11.77 10.87 12.19 3.62 4.38-1.25 2.49-2.37-2.87-10.87-12.19-11.33-11.77-11.76-11.32-12.19-10.88-12.61-10.4-13-9.92-13.39-9.43-13.76-8.92-.34-.2-3.41-1.85-4.52-2.24-4.62-2.06-4.71-1.89-4.8-1.7-4.88-1.52-4.97-1.33-5.03-1.14-5.12-.94-5.17-.74-5.24-.53-5.3-.32-4.2-.09h-4.51l-4.21.09-5.3.32-5.24.53-5.18.74-5.11.94-5.04 1.14-4.96 1.33-4.89 1.52-4.79 1.7-4.71 1.89-4.62 2.06-4.52 2.23-3.43 1.87-.32.19-13.76 8.92-13.39 9.43-13.01 9.92-12.6 10.4-12.19 10.88-11.77 11.32-11.33 11.77-10.87 12.19-2.37 2.87-1.24-2.49-6.79 8.23 10.4-12.61 10.87-12.19 11.33-11.77 11.77-11.32 12.19-10.88 12.6-10.4 13.01-9.92 13.39-9.43 13.76-8.92.33-.2 3.42-1.85 4.52-2.24 4.62-2.06 4.71-1.89 4.79-1.7 4.89-1.52 4.96-1.33 5.04-1.14 5.11-.94 5.18-.74 5.24-.53 5.3-.32 4.19-.09h2.25z" id="n"/><path d="M548.86 320h1.13l2.11.04 2.65.17 2.62.26 2.59.37 2.56.47 2.51.57 2.49.67 2.44.76 2.4.85 2.35.94 2.31 1.03 2.26 1.12 1.71.92.17.11 6.88 4.46 6.69 4.71 6.51 4.96 6.3 5.21 6.1 5.43 5.88 5.67 5.67 5.88 5.43 6.1 5.21 6.3 4.96 6.5 4.71 6.7 4.46 6.88 4.2 7.06 3.93 7.23 3.66 7.4 3.37 7.56 3.09 7.7 2.79 7.86 2.48 7.99 2.18 8.12 1.86 8.24 1.54 8.36 1.21 8.47.87 8.58.53 8.67.18 8.76-.15 7.28v.06l-.15 2.42-.54 5.32-.75 5.26-.96 5.19-1.15 5.12-1.35 5.04-1.55 4.96-1.73 4.87-1.91 4.78-2.1 4.69-2.26 4.59-2.44 4.49-2.61 4.38-2.77 4.27-2.92 4.16-3.08 4.03-3.23 3.92-3.38 3.78-3.51 3.65-3.65 3.52-3.79 3.37-3.91 3.23-4.03 3.08-4.16 2.93-4.27 2.76-4.38 2.61-4.49 2.44-4.59 2.27-4.69 2.09-4.78 1.92-4.88 1.73-4.96 1.54-5.04 1.35-5.11 1.16-5.19.95-5.26.75-5.32.54-5.38.33-4.28.09h-4.59l-4.25-.09-5.38-.33-5.32-.54-5.26-.75-5.19-.95-5.12-1.16-5.04-1.35-4.95-1.54-4.88-1.73-4.78-1.92-4.69-2.09-4.59-2.27-4.49-2.44-4.38-2.61-4.27-2.76-4.16-2.93-4.03-3.08-3.92-3.23-3.78-3.37-3.65-3.52-3.52-3.65-3.37-3.78-3.23-3.92-3.08-4.03-2.92-4.16-2.77-4.27-2.61-4.38-2.44-4.49-2.27-4.59-2.09-4.69-1.92-4.78-1.73-4.87-1.54-4.96-1.35-5.04-1.16-5.12-.95-5.19-.75-5.26-.54-5.32-.15-2.41v-.07l-.15-7.28.18-8.76.53-8.67.87-8.58 1.21-8.47 1.53-8.36 1.87-8.24 2.17-8.12 2.49-7.99 2.79-7.86 3.09-7.7 3.37-7.56 3.66-7.4 3.93-7.23 4.2-7.06 4.46-6.88 4.71-6.7 4.96-6.5 5.21-6.3 5.43-6.1 5.67-5.88 5.88-5.67 6.1-5.43 6.3-5.21 6.5-4.96 6.7-4.71 6.88-4.46.17-.1 1.7-.93 2.27-1.12 2.31-1.03 2.35-.94 2.4-.85 2.44-.76 2.48-.67 2.52-.57 2.56-.47 2.59-.37 2.62-.26 2.65-.17 2.12-.04h1.1z" id="o"/><path d="M661.37 438.17l-112.5 194.07-112.5-194.07h86.06l26.44 45 25.87-45h86.63z" id="p"/><path d="M548.87 555.13l67.5-117h-41.63l-25.87 45-26.44-45H480.8l68.07 117z" id="q"/><path d="M554.75 320.21l2.62.26 2.59.37 2.55.47 2.52.57 2.49.67 2.44.76 2.4.85 2.35.94 2.31 1.03 2.26 1.12 1.71.92.17.11 6.88 4.46 6.69 4.71 6.51 4.96 6.3 5.21 6.1 5.43 5.88 5.67 5.67 5.88 5.43 6.1 5.21 6.3 4.96 6.5 4.71 6.7 4.46 6.88 4.2 7.06 3.93 7.23 3.66 7.4 3.37 7.56 3.09 7.7 2.79 7.86 2.48 7.99 2.18 8.12 1.86 8.24 1.54 8.36 1.21 8.47.87 8.58.53 8.67.18 8.76-.15 7.27v.08l-.15 2.41-.54 5.32-.75 5.26-.96 5.19-1.15 5.12-1.35 5.04-1.55 4.96-1.73 4.87-1.91 4.78-2.1 4.69-2.26 4.59-2.44 4.49-2.61 4.38-2.77 4.27-2.92 4.16-3.08 4.04-3.23 3.91-3.38 3.78-3.51 3.65-3.65 3.52-3.79 3.37-3.91 3.23-4.03 3.08-4.16 2.93-4.27 2.76-4.38 2.61-4.49 2.44-4.59 2.27-4.69 2.09-4.78 1.92-4.88 1.73-4.96 1.54-5.04 1.35-5.11 1.16-5.19.95-5.26.75-5.32.54-5.38.33-4.26.09h-2.3V320h1.14l2.09.04 2.65.17z" id="r"/><path d="M548.86 320h1.13l2.11.04 2.65.17 2.62.26 2.59.37 2.56.47 2.51.57 2.49.67 2.44.76 2.4.85 2.35.94 2.31 1.03 2.26 1.12 1.71.92.17.11 6.88 4.46 6.69 4.71 6.51 4.96 6.3 5.21 6.1 5.43 5.88 5.67 5.67 5.88 5.43 6.1 5.21 6.3 4.96 6.5 4.71 6.7 4.46 6.88 4.2 7.06 3.93 7.23 3.66 7.4 3.37 7.56 3.09 7.7 2.79 7.86 2.48 7.99 2.18 8.12 1.86 8.24 1.54 8.36 1.21 8.47.87 8.58.53 8.67.18 8.76-.15 7.28v.06l-.15 2.42-.54 5.32-.75 5.26-.96 5.19-1.15 5.12-1.35 5.04-1.55 4.96-1.73 4.87-1.91 4.78-2.1 4.69-2.26 4.59-2.44 4.49-2.61 4.38-2.77 4.27-2.92 4.16-3.08 4.03-3.23 3.92-3.38 3.78-3.51 3.65-3.65 3.52-3.79 3.37-3.91 3.23-4.03 3.08-4.16 2.93-4.27 2.76-4.38 2.61-4.49 2.44-4.59 2.27-4.69 2.09-4.78 1.92-4.88 1.73-4.96 1.54-5.04 1.35-5.11 1.16-5.19.95-5.26.75-5.32.54-5.38.33-4.28.09h-4.59l-4.25-.09-5.38-.33-5.32-.54-5.26-.75-5.19-.95-5.12-1.16-5.04-1.35-4.95-1.54-4.88-1.73-4.78-1.92-4.69-2.09-4.59-2.27-4.49-2.44-4.38-2.61-4.27-2.76-4.16-2.93-4.03-3.08-3.92-3.23-3.78-3.37-3.65-3.52-3.52-3.65-3.37-3.78-3.23-3.92-3.08-4.03-2.92-4.16-2.77-4.27-2.61-4.38-2.44-4.49-2.27-4.59-2.09-4.69-1.92-4.78-1.73-4.87-1.54-4.96-1.35-5.04-1.16-5.12-.95-5.19-.75-5.26-.54-5.32-.15-2.41v-.07l-.15-7.28.18-8.76.53-8.67.87-8.58 1.21-8.47 1.53-8.36 1.87-8.24 2.17-8.12 2.49-7.99 2.79-7.86 3.09-7.7 3.37-7.56 3.66-7.4 3.93-7.23 4.2-7.06 4.46-6.88 4.71-6.7 4.96-6.5 5.21-6.3 5.43-6.1 5.67-5.88 5.88-5.67 6.1-5.43 6.3-5.21 6.5-4.96 6.7-4.71 6.88-4.46.17-.1 1.7-.93 2.27-1.12 2.31-1.03 2.35-.94 2.4-.85 2.44-.76 2.48-.67 2.52-.57 2.56-.47 2.59-.37 2.62-.26 2.65-.17 2.12-.04h1.1z" id="s"/><radialGradient id="t" gradientUnits="userSpaceOnUse" cx="429.98" cy="333.01" r="346.48"><stop offset="0%" stop-color="#fff" stop-opacity=".1"/><stop offset="100%" stop-color="#fff" stop-opacity="0"/></radialGradient></defs><use xlink:href="#a" fill="#2b6a73"/><use xlink:href="#b" fill="#2b6a73"/><use xlink:href="#c" opacity=".2" fill="#263238"/><use xlink:href="#d" opacity=".2"/><use xlink:href="#e" fill="#ffa901"/><use xlink:href="#f" opacity=".2" fill="#bf3603"/><use xlink:href="#g" opacity=".2"/><filter id="h" x="57.82" y="-40.94" width="422.99" height="525.96" filterUnits="userSpaceOnUse"><feFlood/><feComposite in2="SourceAlpha" operator="in"/><feGaussianBlur stdDeviation="4"/><feOffset dy="4" result="afterOffset"/><feFlood flood-color="#000" flood-opacity=".5"/><feComposite in2="afterOffset" operator="in"/><feMorphology operator="dilate"/><feComposite in2="SourceAlpha" operator="out"/></filter><path d="M265.92 440.02l-83.75-167.48-83.35-166.72 3.62-4.37 10.87-12.2 11.33-11.76 11.76-11.33 12.19-10.87 12.61-10.41 13-9.92 13.39-9.43 13.76-8.92.35-.2 3.4-1.85 4.52-2.24 4.62-2.06 4.71-1.88 4.8-1.71 4.88-1.52 4.97-1.33 5.04-1.14 5.11-.94 5.17-.73 5.25-.54 5.3-.32 4.17-.08.53-.01h3.67v.01h.33l4.21.08 5.3.32 5.24.54 5.18.73 5.11.94 5.04 1.14 4.96 1.33 4.89 1.52 4.8 1.71 4.71 1.88 4.61 2.06 4.53 2.24 3.41 1.85.33.2 13.76 8.92 13.39 9.43 13.01 9.92 12.6 10.41 12.19 10.87 11.77 11.33 11.33 11.76 10.87 12.19 10.4 12.61-6.79-8.23-83.35 166.72-83.75 167.48z" fill="#fff" filter="url(#h)"/><use xlink:href="#i" fill="#ea493f"/><use xlink:href="#j" fill="#fff"/><use xlink:href="#k"/><use xlink:href="#l" fill="url(#m)"/><use xlink:href="#n" opacity=".2" fill="#fff"/><use xlink:href="#o" fill="#f0ead6"/><use xlink:href="#p" fill="#41b883"/><use xlink:href="#p" fill-opacity="0" stroke="#000" stroke-opacity="0"/><g><use xlink:href="#q" fill="#35495e"/><use xlink:href="#q" fill-opacity="0" stroke="#000" stroke-opacity="0"/></g><g><use xlink:href="#r" opacity=".2"/></g><g><use xlink:href="#s" fill="url(#t)"/></g></svg>