<svg xmlns="http://www.w3.org/2000/svg" xmlns:xlink="http://www.w3.org/1999/xlink" viewBox="0 0 640 640" width="640" height="640"><defs><path d="M289.21 381l-52.4-104.79-82.7-165.42-6.74 8.17-9.85 12.9-9.35 13.28-8.85 13.66-8.33 14.01-7.8 14.35-7.26 14.67-6.69 15-6.12 15.29-5.54 15.58-4.93 15.85-4.33 16.11-3.69 16.36-3.05 16.59-2.4 16.81-1.73 17.02-1.05 17.21-.35 17.35h133.94l18.9 37.81 110.99 221.96h-4.54l-8.45-.18-10.68-.65-10.55-1.07-10.44-1.49-10.29-1.89-10.16-2.29-10-2.69-9.83-3.06-9.67-3.43-9.49-3.8-9.31-4.16-9.11-4.5-8.9-4.84-8.7-5.17-8.47-5.49-8.25-5.81-8-6.11-7.77-6.41-7.5-6.69-7.25-6.97-6.97-7.25-6.7-7.51-6.41-7.76-6.11-8.01-5.8-8.24-5.5-8.48-5.17-8.69-4.84-8.91-4.5-9.11-4.15-9.3-3.8-9.49-3.44-9.67-3.06-9.84-2.68-10-2.29-10.15-1.9-10.3-1.49-10.43-1.07-10.56-.29-4.84v-.03l-.3-14.49.35-17.39 1.05-17.2 1.73-17.02 2.4-16.81L64.63 296l3.69-16.36 4.33-16.11 4.93-15.85 5.54-15.58 6.12-15.3 6.69-14.99 7.26-14.68 7.8-14.35 8.33-14 8.85-13.66 9.35-13.28 9.85-12.91 6.74-8.16 82.7 165.42 83.09 166.18L403 276.19l82.71-165.42 6.73 8.16 9.85 12.91 9.35 13.28 8.85 13.66 8.34 14 7.8 14.35 7.25 14.68 6.69 14.99 6.13 15.3 5.53 15.58 4.94 15.85 4.32 16.11 3.69 16.36 3.05 16.59 2.4 16.81 1.73 17.02 1.05 17.2.35 17.39-.29 14.46-.01.09-.29 4.81-1.07 10.56-1.49 10.43-1.9 10.3-2.29 10.15-2.68 10-3.06 9.84-3.44 9.67-3.8 9.49-4.15 9.3-4.5 9.11-4.84 8.91-5.17 8.69-5.5 8.48-5.8 8.24-6.11 8.01-6.41 7.76-6.69 7.51-6.98 7.24-7.24 6.98-7.51 6.69-7.76 6.41-8.01 6.11-8.25 5.81-8.47 5.49-8.69 5.17-8.91 4.84-9.11 4.5-9.3 4.16-9.5 3.8-9.66 3.43-9.84 3.06-10 2.69-10.15 2.29-10.3 1.89-10.43 1.49-10.56 1.07-10.68.65-8.47.18H319.92l110.99-221.96 18.9-37.81h133.95l-.35-17.35-1.05-17.21-1.73-17.02-2.4-16.81-3.05-16.59-3.69-16.36-4.32-16.11-4.94-15.85-5.53-15.58-6.13-15.29-6.69-15-2.23-4.51-.26-.52-4.76-9.64-7.8-14.35-8.34-14.01-8.85-13.66-9.35-13.28-9.85-12.91-6.73-8.16-43.27 86.54L403 276.21l-83.1 166.18L289.21 381z" id="a"/><path d="M442.8 191.01l43-86.01 6.74 8.16 9.84 12.91 9.36 13.28 8.85 13.66 8.33 14.01 7.8 14.35 4.77 9.64.26.52 2.22 4.51 6.7 15 6.12 15.29 5.54 15.58 4.93 15.85 4.32 16.11 3.7 16.36 3.05 16.59 2.4 16.81 1.73 17.02 1.04 17.21.35 17.35H449.91l-18.9 37.81-111 221.98h-.03l-111-221.98-18.9-37.81H56.15l.35-17.35 1.04-17.21 1.73-17.02 2.4-16.81 3.05-16.59 3.7-16.36 4.32-16.11 4.93-15.85 5.54-15.58 6.12-15.29 6.7-15 2.22-4.51.26-.52 4.77-9.64 7.8-14.35 8.33-14.01 8.85-13.66 9.36-13.28 9.84-12.91 6.74-8.16 82.7 165.42 52.4 104.79L320 436.6l83.09-166.18 39.71-79.41z" id="b"/><path d="M319.93 0h2.21l4.13.09 5.18.31 5.12.52 5.06.72 4.99.92 4.93 1.11 4.85 1.3 4.77 1.49 4.69 1.67 4.61 1.84 4.51 2.01 4.42 2.19 3.33 1.81.33.19 13.45 8.72 13.09 9.22 12.71 9.7 12.32 10.16 11.91 10.63 11.5 11.07 11.07 11.5 10.63 11.92 3.53 4.28-81.47 162.94L319.95 430 238.1 266.31l-81.46-162.94 3.53-4.28 10.62-11.92 11.07-11.5 11.5-11.07 11.92-10.62 12.32-10.17 12.71-9.7 13.09-9.22 13.45-8.71.32-.2 3.34-1.81 4.42-2.19 4.51-2.01 4.61-1.84 4.69-1.67 4.77-1.49 4.85-1.3 4.92-1.11 5-.92 5.06-.72 5.12-.52 5.18-.31 4.09-.09h2.2zm169.98 111.41l-6.64-8.04 6.64 8.04z" id="c"/></defs><use xlink:href="#a" fill="#2b6a73"/><use xlink:href="#b" fill="#ffa901"/><use xlink:href="#c" fill="#ea493f"/></svg>