<?xml version="1.0" encoding="UTF-8" standalone="no"?>
<!DOCTYPE svg PUBLIC "-//W3C//DTD SVG 1.1//EN" "http://www.w3.org/Graphics/SVG/1.1/DTD/svg11.dtd">
<svg version="1.1" xmlns="http://www.w3.org/2000/svg" xmlns:xlink="http://www.w3.org/1999/xlink" preserveAspectRatio="xMidYMid meet" viewBox="0 0 40 40" width="40" height="40"><defs><path d="M30.04 2.75C26.98 0.91 23.63 0 20 0C16.37 0 13.03 0.91 9.96 2.75C6.9 4.58 4.47 7.07 2.68 10.21C0.9 13.35 0 16.78 0 20.5C0 24.96 1.27 28.98 3.82 32.55C6.36 36.12 9.65 38.59 13.67 39.96C14.14 40.05 14.49 39.98 14.71 39.77C14.94 39.56 15.05 39.29 15.05 38.97C15.05 38.92 15.05 38.44 15.04 37.53C15.03 36.62 15.03 35.83 15.03 35.15C14.97 35.16 14.49 35.25 14.43 35.26C14.05 35.33 13.56 35.36 12.98 35.35C12.4 35.34 11.8 35.28 11.17 35.17C10.55 35.05 9.97 34.78 9.43 34.37C8.89 33.95 8.51 33.4 8.28 32.72C8.26 32.66 8.05 32.17 8.02 32.11C7.85 31.7 7.57 31.25 7.2 30.75C6.83 30.25 6.45 29.91 6.07 29.73C6.05 29.72 5.9 29.61 5.89 29.6C5.76 29.51 5.65 29.4 5.55 29.28C5.44 29.16 5.37 29.03 5.31 28.91C5.26 28.78 5.3 28.68 5.44 28.6C5.58 28.52 5.83 28.48 6.2 28.48C6.25 28.49 6.67 28.55 6.72 28.56C7.07 28.63 7.5 28.84 8.01 29.2C8.52 29.56 8.94 30.02 9.27 30.59C9.67 31.32 10.15 31.87 10.72 32.26C11.28 32.64 11.85 32.83 12.42 32.83C13 32.83 13.49 32.79 13.91 32.7C14.32 32.61 14.71 32.47 15.08 32.3C15.23 31.1 15.66 30.19 16.35 29.55C15.37 29.44 14.48 29.28 13.69 29.07C12.9 28.85 12.08 28.51 11.24 28.02C10.4 27.54 9.7 26.95 9.14 26.24C8.59 25.52 8.13 24.59 7.77 23.43C7.42 22.28 7.24 20.94 7.24 19.43C7.24 17.28 7.93 15.44 9.3 13.93C8.66 12.31 8.72 10.5 9.48 8.48C9.98 8.32 10.73 8.44 11.72 8.85C12.71 9.25 13.43 9.59 13.89 9.87C14.35 10.16 14.72 10.4 15 10.59C16.62 10.13 18.28 9.9 20 9.9C21.72 9.9 23.39 10.13 25 10.59C25.1 10.53 25.89 10.02 25.99 9.95C26.67 9.53 27.47 9.13 28.39 8.78C29.31 8.42 30.01 8.32 30.5 8.49C31.28 10.5 31.35 12.31 30.7 13.93C32.08 15.44 32.76 17.28 32.76 19.43C32.76 20.94 32.58 22.28 32.23 23.45C31.87 24.61 31.41 25.55 30.85 26.25C30.28 26.95 29.58 27.54 28.74 28.03C27.9 28.51 27.08 28.85 26.29 29.07C25.5 29.28 24.61 29.44 23.62 29.55C24.52 30.35 24.98 31.61 24.98 33.34C24.98 33.9 24.98 38.41 24.98 38.97C24.98 39.29 25.08 39.56 25.3 39.77C25.52 39.98 25.86 40.05 26.33 39.96C30.36 38.59 33.64 36.12 36.19 32.55C38.73 28.98 40 24.96 40 20.5C40 16.78 39.11 13.35 37.32 10.21C35.53 7.07 33.1 4.58 30.04 2.75Z" id="bCXaljji6"></path></defs><g><g><g><use xlink:href="#bCXaljji6" opacity="1" fill="#000000" fill-opacity="1"></use><g><use xlink:href="#bCXaljji6" opacity="1" fill-opacity="0" stroke="#000000" stroke-width="1" stroke-opacity="0"></use></g></g></g></g></svg>