<?xml version="1.0" encoding="UTF-8" standalone="no"?>
<!DOCTYPE svg PUBLIC "-//W3C//DTD SVG 1.1//EN" "http://www.w3.org/Graphics/SVG/1.1/DTD/svg11.dtd">
<svg version="1.1" xmlns="http://www.w3.org/2000/svg" xmlns:xlink="http://www.w3.org/1999/xlink" preserveAspectRatio="xMidYMid meet" viewBox="0 0 720 640" width="720" height="640"><defs><path d="M0.01 378.17L134.99 378.17L154.04 416.28L265.9 639.98L265.89 639.98L265.89 639.98L262.37 639.98L262.37 639.98L261.33 639.98L252.81 639.8L242.05 639.15L231.41 638.07L220.89 636.57L210.52 634.66L200.28 632.35L190.21 629.64L180.29 626.56L170.55 623.1L160.98 619.27L151.6 615.08L142.42 610.54L133.45 605.66L124.69 600.45L116.14 594.92L107.84 589.07L99.76 582.91L91.94 576.45L84.37 569.7L77.07 562.67L70.04 555.37L63.3 547.81L56.84 539.98L50.68 531.91L44.83 523.6L39.29 515.06L34.08 506.3L29.2 497.32L24.67 488.14L20.48 478.77L16.65 469.2L13.19 459.46L10.1 449.54L7.4 439.46L5.09 429.23L3.18 418.85L1.68 408.34L0.6 397.7L0.3 392.82L0.3 392.79L0 378.18L0 378.16L0.01 378.16L0.01 378.17ZM531.55 392.83L531.26 397.7L530.17 408.34L528.67 418.85L526.76 429.23L524.45 439.46L521.75 449.54L518.67 459.46L515.2 469.2L511.37 478.77L507.19 488.14L502.65 497.32L497.77 506.3L492.56 515.06L487.03 523.6L481.17 531.91L475.02 539.98L468.56 547.8L461.81 555.37L454.78 562.67L447.48 569.7L439.91 576.45L432.09 582.91L424.02 589.07L415.71 594.92L407.17 600.45L398.41 605.66L389.43 610.54L380.25 615.08L370.87 619.27L361.31 623.1L351.56 626.56L341.65 629.64L331.57 632.35L321.34 634.66L310.96 636.57L300.45 638.07L289.8 639.15L279.04 639.8L270.5 639.98L269.81 639.98L269.81 639.98L265.94 639.98L377.8 416.28L396.85 378.17L531.85 378.17L531.85 378.16L531.85 378.16L531.85 378.18L531.56 392.77L531.55 392.83Z" id="a3xU4giEXC"></path><path d="M472.85 254.39L477.72 254.69L488.36 255.77L498.87 257.27L509.25 259.18L519.48 261.49L529.56 264.19L539.48 267.28L549.22 270.74L558.79 274.57L568.16 278.76L577.35 283.29L586.32 288.17L595.08 293.38L603.62 298.92L611.93 304.77L620 310.93L627.83 317.39L635.39 324.13L642.7 331.16L649.72 338.47L656.47 346.03L662.93 353.85L669.09 361.93L674.94 370.24L680.47 378.78L685.69 387.54L690.56 396.51L695.1 405.69L699.29 415.07L703.12 424.64L706.58 434.38L709.67 444.3L712.37 454.38L714.68 464.61L716.59 474.98L718.09 485.5L719.17 496.14L719.83 506.9L720 515.42L720 516.13L720 516.13L720 520L496.3 408.14L458.2 389.09L458.2 254.1L458.18 254.1L458.18 254.1L458.2 254.1L472.8 254.39L472.85 254.39Z" id="bVqPJEG37"></path><path d="M0.3 388.78L0.59 393.63L1.68 404.27L3.18 414.79L5.09 425.16L7.4 435.4L10.1 445.47L13.18 455.39L16.65 465.13L20.48 474.7L24.66 484.08L29.2 493.26L34.08 502.23L39.29 511L44.83 519.54L50.68 527.85L56.83 535.92L63.29 543.74L70.04 551.31L77.07 558.61L84.37 565.64L91.94 572.38L99.76 578.84L107.83 585L116.14 590.85L124.68 596.39L133.44 601.6L142.42 606.48L151.6 611.01L160.98 615.2L170.54 619.03L180.29 622.49L190.2 625.58L200.28 628.28L210.51 630.59L220.89 632.5L231.4 634L242.05 635.08L252.81 635.74L261.34 635.91L262.37 635.91L262.37 635.91L263.91 635.91L265.91 639.91L265.88 639.91L265.88 639.91L262.37 639.91L262.37 639.91L261.32 639.91L252.81 639.74L242.05 639.08L231.4 638L220.89 636.5L210.51 634.59L200.28 632.28L190.2 629.58L180.29 626.49L170.54 623.03L160.98 619.2L151.6 615.01L142.42 610.48L133.44 605.6L124.68 600.39L116.14 594.85L107.83 589L99.76 582.84L91.94 576.38L84.37 569.64L77.07 562.61L70.04 555.31L63.29 547.74L56.83 539.92L50.68 531.84L44.83 523.54L39.29 514.99L34.08 506.23L29.2 497.26L24.66 488.08L20.48 478.7L16.65 469.13L13.18 459.39L10.1 449.47L7.4 439.4L5.09 429.16L3.18 418.79L1.68 408.27L0.59 397.63L0.3 392.78L0.3 392.69L0 378.11L0 378.11L0.04 376.12L0.3 388.69L0.3 388.78ZM531.55 392.68L531.55 392.78L531.25 397.63L530.17 408.27L528.67 418.79L526.76 429.16L524.45 439.39L521.75 449.47L518.66 459.39L515.2 469.13L511.37 478.7L507.18 488.08L502.65 497.26L497.77 506.23L492.56 514.99L487.02 523.53L481.17 531.84L475.01 539.91L468.55 547.74L461.81 555.3L454.78 562.61L447.48 569.64L439.91 576.38L432.09 582.84L424.01 589L415.71 594.85L407.17 600.39L398.4 605.6L389.43 610.48L380.25 615.01L370.87 619.2L361.3 623.03L351.56 626.49L341.64 629.58L331.57 632.28L321.33 634.59L310.96 636.5L300.44 638L289.8 639.08L279.04 639.74L270.5 639.91L269.81 639.91L269.81 639.91L265.94 639.91L267.94 635.91L269.81 635.91L269.81 635.91L270.53 635.91L279.04 635.74L289.8 635.08L300.44 634L310.96 632.5L321.33 630.59L331.57 628.28L341.64 625.58L351.56 622.49L361.3 619.03L370.87 615.2L380.25 611.01L389.43 606.48L398.4 601.6L407.17 596.39L415.71 590.85L424.01 585L432.09 578.84L439.91 572.38L447.48 565.64L454.78 558.61L461.81 551.31L468.55 543.74L475.01 535.92L481.17 527.84L487.02 519.54L492.56 510.99L497.77 502.23L502.65 493.26L507.18 484.08L511.37 474.7L515.2 465.13L518.66 455.39L521.75 445.47L524.45 435.4L526.76 425.16L528.67 414.79L530.17 404.27L531.25 393.63L531.55 388.79L531.55 388.68L531.81 376.12L531.85 378.11L531.85 378.11L531.55 392.68Z" id="a5eb5KXZEl"></path><path d="M472.85 254.38L477.72 254.68L488.36 255.76L498.87 257.26L509.25 259.17L519.48 261.48L529.56 264.18L539.48 267.27L549.22 270.73L558.79 274.56L568.16 278.75L577.35 283.28L586.32 288.16L595.08 293.37L603.62 298.91L611.93 304.76L620 310.92L627.83 317.38L635.39 324.12L642.7 331.15L649.72 338.46L656.47 346.02L662.93 353.84L669.09 361.92L674.94 370.23L680.47 378.77L685.69 387.53L690.56 396.5L695.1 405.68L699.29 415.06L703.12 424.63L706.58 434.37L709.67 444.29L712.37 454.37L714.68 464.6L716.59 474.97L718.09 485.49L719.17 496.13L719.83 506.89L720 515.41L720 516.12L720 516.12L720 519.99L496.3 408.13L458.2 389.08L458.2 254.09L458.18 254.09L458.18 254.09L458.2 254.09L472.8 254.38L472.85 254.38Z" id="egMCnqsMx"></path><path d="M449.74 127.08L459.16 140.47L468.08 154.23L476.48 168.35L484.34 182.81L491.65 197.6L498.4 212.71L504.57 228.12L510.15 243.83L515.12 259.8L519.48 276.04L523.2 292.53L526.27 309.25L528.69 326.19L530.43 343.34L531.49 360.68L531.76 374.08L534.37 374.08L534.37 374.07L534.37 374.07L534.37 374.09L534.08 388.9L534.07 388.98L533.78 393.91L532.68 404.72L531.17 415.4L529.24 425.94L526.91 436.33L524.18 446.56L521.06 456.63L517.57 466.53L513.7 476.25L509.48 485.77L504.9 495.09L499.97 504.21L494.71 513.11L489.12 521.78L483.22 530.22L477 538.42L470.48 546.36L463.67 554.05L456.57 561.47L449.2 568.6L441.56 575.46L433.67 582.02L425.52 588.27L417.13 594.21L408.51 599.84L399.66 605.13L390.6 610.08L381.33 614.69L371.87 618.94L362.21 622.83L352.37 626.35L342.36 629.48L332.19 632.23L321.86 634.57L311.38 636.51L300.77 638.04L290.03 639.14L279.16 639.8L270.57 639.98L269.84 639.98L269.84 639.98L265.94 639.98L265.93 640L265.91 640L154.04 416.28L134.99 378.17L0 378.17L0.36 360.68L1.41 343.34L3.15 326.19L5.57 309.25L8.65 292.53L12.37 276.04L16.73 259.8L21.7 243.83L27.28 228.12L33.45 212.71L40.19 197.6L42.56 192.81L47.5 182.81L55.36 168.35L63.76 154.23L72.68 140.47L82.11 127.08L92.03 114.07L98.82 105.84L182.17 272.56L182.17 272.56L265.92 440.04L349.67 272.56L349.67 272.56L389.42 193.06L389.68 192.53L433.02 105.84L439.81 114.07L449.74 127.08Z" id="b2JGWS4TAV"></path><path d="M279.04 635.74L289.8 635.08L300.44 634L310.96 632.5L321.34 630.59L331.57 628.28L341.65 625.58L351.56 622.49L361.31 619.03L370.87 615.2L380.25 611.01L389.43 606.48L398.41 601.6L407.17 596.39L415.71 590.85L424.02 585L432.09 578.84L439.91 572.38L447.48 565.64L454.78 558.61L461.81 551.31L468.56 543.74L475.01 535.92L481.17 527.84L487.02 519.54L492.56 510.99L497.77 502.23L502.65 493.26L507.19 484.08L511.37 474.7L515.2 465.13L518.66 455.39L521.75 445.47L524.45 435.4L526.76 425.16L528.67 414.79L530.17 404.27L531.25 393.63L531.55 388.76L531.55 388.71L531.81 376.12L531.81 376.12L531.85 378.11L531.85 378.11L531.55 392.71L531.55 392.76L531.25 397.63L530.17 408.27L528.67 418.79L526.76 429.16L524.45 439.39L521.75 449.47L518.66 459.39L515.2 469.13L511.37 478.7L507.19 488.08L502.65 497.26L497.77 506.23L492.56 514.99L487.02 523.53L481.17 531.84L475.01 539.91L468.56 547.74L461.81 555.3L454.78 562.61L447.48 569.64L439.91 576.38L432.09 582.84L424.02 589L415.71 594.85L407.17 600.39L398.41 605.6L389.43 610.48L380.25 615.01L370.87 619.2L361.31 623.03L351.56 626.49L341.65 629.58L331.57 632.28L321.34 634.59L310.96 636.5L300.44 638L289.8 639.08L279.04 639.74L270.5 639.91L269.81 639.91L269.81 639.91L265.94 639.91L267.94 635.91L269.81 635.91L269.81 635.91L270.53 635.91L279.04 635.74ZM263.91 635.91L265.88 635.91L265.88 635.91L267.94 635.91L265.94 639.91L265.9 639.91L265.9 639.89L263.91 635.91Z" id="c3jWR2Aqcv"></path><path d="M277.61 0.43L282.85 0.96L288.03 1.7L293.14 2.64L298.18 3.78L303.14 5.11L308.02 6.63L312.82 8.34L317.54 10.22L322.15 12.28L326.68 14.52L330.09 16.38L330.42 16.57L344.18 25.49L357.58 34.92L370.58 44.85L383.19 55.25L395.38 66.12L407.15 77.45L418.48 89.22L429.35 101.41L439.75 114.02L449.68 127.02L459.11 140.42L468.03 154.18L476.43 168.3L484.29 182.76L491.6 197.56L498.35 212.67L504.52 228.08L510.1 243.79L515.07 259.76L519.42 276.01L523.15 292.49L526.22 309.22L528.64 326.16L530.39 343.31L531.44 360.65L531.8 378.18L531.8 378.18L531.5 392.77L531.5 392.83L531.2 397.69L530.12 408.34L528.62 418.85L526.71 429.23L524.4 439.46L521.7 449.54L518.61 459.46L515.15 469.2L511.32 478.77L507.13 488.15L502.59 497.33L497.71 506.31L492.5 515.07L486.97 523.61L481.11 531.92L474.96 539.99L468.5 547.82L461.75 555.38L454.72 562.69L447.42 569.72L439.85 576.47L432.03 582.92L423.95 589.08L415.64 594.93L407.1 600.47L398.34 605.68L389.36 610.56L380.18 615.1L370.8 619.29L361.24 623.12L351.49 626.58L341.57 629.66L331.5 632.37L321.26 634.68L310.88 636.59L300.37 638.09L289.73 639.17L278.96 639.82L270.44 640L269.73 640L269.73 640L265.85 640L265.85 0.02L267.76 0.02L267.76 0.02L268.1 0.02L272.31 0.11L272.31 0.11L277.61 0.43Z" id="b2RZR39PcE"></path><path d="M265.92 440.02L182.17 272.54L98.82 105.82L102.44 101.45L113.31 89.25L124.64 77.49L136.4 66.16L148.59 55.29L161.2 44.88L174.2 34.96L187.59 25.53L201.35 16.61L201.7 16.41L205.1 14.56L209.62 12.32L214.24 10.26L218.95 8.38L223.75 6.67L228.63 5.15L233.6 3.82L238.64 2.68L243.75 1.74L248.92 1.01L254.17 0.47L259.47 0.15L263.64 0.07L264.17 0.06L264.17 0.06L265.9 0.06L265.9 0.06L267.84 0.06L267.84 0.07L268.17 0.07L272.38 0.15L277.68 0.47L282.92 1.01L288.1 1.74L293.21 2.68L298.25 3.82L303.21 5.15L308.1 6.67L312.9 8.38L317.61 10.26L322.22 12.32L326.75 14.56L330.16 16.41L330.49 16.61L344.25 25.53L357.64 34.96L370.65 44.88L383.25 55.29L395.44 66.16L407.21 77.49L418.54 89.25L429.41 101.44L439.81 114.05L433.02 105.82L349.67 272.54L265.92 440.02Z" id="cxabBTwFW"></path><path d="M300.92 372.97L335.92 302.97L265.93 302.97L195.93 302.97L230.93 372.97L265.93 442.96L300.92 372.97Z" id="k14E2BBDon"></path><path d="M295.92 382.97L325.92 322.97L265.93 322.97L205.93 322.97L235.93 382.97L265.93 442.96L295.92 382.97Z" id="a17fwbCFh"></path><path d="M265.9 0.06L267.84 0.06L267.84 0.07L268.17 0.07L272.38 0.15L277.68 0.47L282.92 1.01L288.1 1.74L293.21 2.68L298.25 3.82L303.21 5.15L308.1 6.67L312.9 8.38L317.61 10.26L322.22 12.32L326.75 14.56L330.16 16.41L330.49 16.61L344.25 25.53L357.64 34.96L370.65 44.88L383.25 55.29L395.44 66.16L407.21 77.49L418.54 89.25L429.41 101.44L439.81 114.05L449.74 127.05L459.16 140.44L468.08 154.2L476.48 168.32L484.34 182.79L491.65 197.58L498.4 212.69L504.57 228.1L510.15 243.8L515.12 259.78L519.48 276.02L523.2 292.51L526.27 309.23L528.69 326.17L530.43 343.32L531.49 360.66L531.85 378.18L531.85 378.18L531.55 392.75L531.55 392.85L531.25 397.7L530.17 408.34L528.67 418.85L526.76 429.23L524.45 439.46L521.75 449.54L518.66 459.46L515.2 469.2L511.37 478.77L507.18 488.14L502.65 497.32L497.77 506.3L492.56 515.06L487.02 523.6L481.17 531.91L475.01 539.98L468.55 547.8L461.81 555.37L454.78 562.67L447.48 569.7L439.91 576.45L432.09 582.91L424.01 589.07L415.71 594.92L407.17 600.45L398.4 605.66L389.43 610.54L380.25 615.08L370.87 619.27L361.3 623.1L351.56 626.56L341.64 629.64L331.57 632.35L321.33 634.66L310.96 636.57L300.44 638.07L289.8 639.15L279.04 639.8L270.49 639.98L269.81 639.98L269.81 639.98L265.88 639.98L265.88 639.98L262.37 639.98L262.37 639.98L261.33 639.98L252.81 639.8L242.05 639.15L231.4 638.07L220.89 636.57L210.51 634.66L200.28 632.35L190.2 629.64L180.29 626.56L170.54 623.1L160.98 619.27L151.6 615.08L142.42 610.54L133.44 605.66L124.68 600.45L116.14 594.92L107.83 589.07L99.76 582.91L91.94 576.45L84.37 569.7L77.07 562.67L70.04 555.37L63.29 547.81L56.83 539.98L50.68 531.91L44.83 523.6L39.29 515.06L34.08 506.3L29.2 497.32L24.66 488.14L20.48 478.77L16.65 469.2L13.18 459.46L10.1 449.54L7.4 439.46L5.09 429.23L3.18 418.85L1.68 408.34L0.59 397.7L0.3 392.85L0.3 392.75L0 378.18L0 378.18L0.36 360.66L1.41 343.32L3.15 326.17L5.57 309.23L8.65 292.51L12.37 276.02L16.73 259.78L21.7 243.8L27.28 228.1L33.45 212.69L40.19 197.58L47.5 182.79L55.36 168.32L63.76 154.21L72.68 140.44L82.11 127.05L92.03 114.05L102.44 101.45L113.31 89.25L124.64 77.49L136.4 66.16L148.59 55.29L161.2 44.88L174.2 34.96L187.59 25.53L201.35 16.61L201.7 16.41L205.1 14.56L209.62 12.32L214.24 10.26L218.95 8.38L223.75 6.67L228.63 5.15L233.6 3.82L238.64 2.68L243.75 1.74L248.92 1.01L254.17 0.47L259.47 0.15L263.64 0.07L264.17 0.06L264.17 0.06L265.9 0.06L265.9 0.06L265.9 0.06Z" id="a24sWfhxAe"></path><radialGradient id="gradientg3xQaDAym" gradientUnits="userSpaceOnUse" cx="4.05" cy="6.04" r="724.93"><stop style="stop-color: #ffffff;stop-opacity: 0.1" offset="0%"></stop><stop style="stop-color: #ffffff;stop-opacity: 0" offset="100%"></stop></radialGradient><path d="M265.91 0L265.91 0L267.84 0L267.84 0L268.21 0L272.39 0.09L277.69 0.41L282.93 0.94L288.1 1.68L293.22 2.62L298.25 3.76L303.22 5.09L308.1 6.61L312.9 8.31L317.61 10.2L322.23 12.26L326.75 14.5L330.17 16.36L330.5 16.55L344.26 25.47L357.65 34.9L370.65 44.82L383.26 55.22L395.45 66.1L407.21 77.42L418.54 89.19L429.41 101.38L433.03 105.76L431.78 108.25L429.41 105.38L418.54 93.19L407.21 81.42L395.45 70.1L383.26 59.22L370.65 48.82L357.65 38.9L344.26 29.47L330.5 20.55L330.16 20.35L326.75 18.5L322.23 16.26L317.61 14.2L312.9 12.31L308.1 10.61L303.22 9.09L298.25 7.76L293.22 6.62L288.1 5.68L282.93 4.94L277.69 4.41L272.39 4.09L268.19 4L267.84 4L267.84 4L265.91 4L265.91 4L264.18 4L264.18 4L263.68 4L259.47 4.09L254.17 4.41L248.93 4.94L243.75 5.68L238.64 6.62L233.6 7.76L228.64 9.09L223.75 10.61L218.96 12.31L214.25 14.2L209.63 16.26L205.11 18.49L201.68 20.36L201.36 20.55L187.6 29.47L174.21 38.9L161.2 48.82L148.6 59.22L136.41 70.1L124.64 81.42L113.31 93.19L102.44 105.38L100.07 108.25L98.83 105.76L92.04 113.99L102.44 101.38L113.31 89.19L124.64 77.42L136.41 66.1L148.6 55.22L161.2 44.82L174.21 34.9L187.6 25.47L201.36 16.55L201.69 16.35L205.11 14.5L209.63 12.26L214.25 10.2L218.96 8.31L223.75 6.61L228.64 5.09L233.6 3.76L238.64 2.62L243.75 1.68L248.93 0.94L254.17 0.41L259.47 0.09L263.66 0L264.18 0L264.18 0L265.91 0Z" id="e1s6REQw12"></path><path d="M548.86 320L549.83 320L549.83 320L549.99 320L552.1 320.04L554.75 320.21L557.37 320.47L559.96 320.84L562.52 321.31L565.03 321.88L567.52 322.55L569.96 323.31L572.36 324.16L574.71 325.1L577.02 326.13L579.28 327.25L580.99 328.17L581.16 328.28L588.04 332.74L594.73 337.45L601.24 342.41L607.54 347.62L613.64 353.05L619.52 358.72L625.19 364.6L630.62 370.7L635.83 377L640.79 383.5L645.5 390.2L649.96 397.08L654.16 404.14L658.09 411.37L661.75 418.77L665.12 426.33L668.21 434.03L671 441.89L673.48 449.88L675.66 458L677.52 466.24L679.06 474.6L680.27 483.07L681.14 491.65L681.67 500.32L681.85 509.08L681.85 509.08L681.7 516.36L681.7 516.42L681.55 518.84L681.01 524.16L680.26 529.42L679.3 534.61L678.15 539.73L676.8 544.77L675.25 549.73L673.52 554.6L671.61 559.38L669.51 564.07L667.25 568.66L664.81 573.15L662.2 577.53L659.43 581.8L656.51 585.96L653.43 589.99L650.2 593.91L646.82 597.69L643.31 601.34L639.66 604.86L635.87 608.23L631.96 611.46L627.93 614.54L623.77 617.47L619.5 620.23L615.12 622.84L610.63 625.28L606.04 627.55L601.35 629.64L596.57 631.56L591.69 633.29L586.73 634.83L581.69 636.18L576.58 637.34L571.39 638.29L566.13 639.04L560.81 639.58L555.43 639.91L551.15 640L550.82 640L548.85 640L548.85 640L547.09 640L547.09 640L546.56 640L542.31 639.91L536.93 639.58L531.61 639.04L526.35 638.29L521.16 637.34L516.04 636.18L511 634.83L506.05 633.29L501.17 631.56L496.39 629.64L491.7 627.55L487.11 625.28L482.62 622.84L478.24 620.23L473.97 617.47L469.81 614.54L465.78 611.46L461.86 608.23L458.08 604.86L454.43 601.34L450.91 597.69L447.54 593.91L444.31 589.99L441.23 585.96L438.31 581.8L435.54 577.53L432.93 573.15L430.49 568.66L428.22 564.07L426.13 559.38L424.21 554.6L422.48 549.73L420.94 544.77L419.59 539.73L418.43 534.61L417.48 529.42L416.73 524.16L416.19 518.84L416.04 516.43L416.04 516.36L415.89 509.08L415.89 509.08L416.07 500.32L416.6 491.65L417.47 483.07L418.68 474.6L420.21 466.24L422.08 458L424.25 449.88L426.74 441.89L429.53 434.03L432.62 426.33L435.99 418.77L439.65 411.37L443.58 404.14L447.78 397.08L452.24 390.2L456.95 383.5L461.91 377L467.12 370.7L472.55 364.6L478.22 358.72L484.1 353.05L490.2 347.62L496.5 342.41L503 337.45L509.7 332.74L516.58 328.28L516.75 328.18L518.45 327.25L520.72 326.13L523.03 325.1L525.38 324.16L527.78 323.31L530.22 322.55L532.7 321.88L535.22 321.31L537.78 320.84L540.37 320.47L542.99 320.21L545.64 320.04L547.76 320L547.99 320L547.99 320L548.86 320L548.86 320L548.86 320Z" id="c2CiyGIgSe"></path><path d="M661.37 438.17L548.87 632.24L436.37 438.17L522.43 438.17L548.87 483.17L574.74 438.17L616.37 438.17L661.37 438.17Z" id="apTC4knM7"></path><path d="M548.87 555.13L616.37 438.13L574.74 438.13L548.87 483.13L522.43 438.13L480.8 438.13L548.87 555.13Z" id="a2nyKrFvH3"></path><path d="M554.75 320.21L557.37 320.47L559.96 320.84L562.51 321.31L565.03 321.88L567.52 322.55L569.96 323.31L572.36 324.16L574.71 325.1L577.02 326.13L579.28 327.25L580.99 328.17L581.16 328.28L588.04 332.74L594.73 337.45L601.24 342.41L607.54 347.62L613.64 353.05L619.52 358.72L625.19 364.6L630.62 370.7L635.83 377L640.79 383.5L645.5 390.2L649.96 397.08L654.16 404.14L658.09 411.37L661.75 418.77L665.12 426.33L668.21 434.03L671 441.89L673.48 449.88L675.66 458L677.52 466.24L679.06 474.6L680.27 483.07L681.14 491.65L681.67 500.32L681.85 509.08L681.85 509.08L681.7 516.35L681.7 516.43L681.55 518.84L681.01 524.16L680.26 529.42L679.3 534.61L678.15 539.73L676.8 544.77L675.25 549.73L673.52 554.6L671.61 559.38L669.51 564.07L667.25 568.66L664.81 573.15L662.2 577.53L659.43 581.8L656.51 585.96L653.43 590L650.2 593.91L646.82 597.69L643.31 601.34L639.66 604.86L635.87 608.23L631.96 611.46L627.93 614.54L623.77 617.47L619.5 620.23L615.12 622.84L610.63 625.28L606.04 627.55L601.35 629.64L596.57 631.56L591.69 633.29L586.73 634.83L581.69 636.18L576.58 637.34L571.39 638.29L566.13 639.04L560.81 639.58L555.43 639.91L551.17 640L550.81 640L550.81 640L548.87 640L548.87 320L549.83 320L549.83 320L550.01 320L552.1 320.04L552.1 320.04L554.75 320.21Z" id="b2lIXWJSfY"></path><path d="M548.86 320L549.83 320L549.83 320L549.99 320L552.1 320.04L554.75 320.21L557.37 320.47L559.96 320.84L562.52 321.31L565.03 321.88L567.52 322.55L569.96 323.31L572.36 324.16L574.71 325.1L577.02 326.13L579.28 327.25L580.99 328.17L581.16 328.28L588.04 332.74L594.73 337.45L601.24 342.41L607.54 347.62L613.64 353.05L619.52 358.72L625.19 364.6L630.62 370.7L635.83 377L640.79 383.5L645.5 390.2L649.96 397.08L654.16 404.14L658.09 411.37L661.75 418.77L665.12 426.33L668.21 434.03L671 441.89L673.48 449.88L675.66 458L677.52 466.24L679.06 474.6L680.27 483.07L681.14 491.65L681.67 500.32L681.85 509.08L681.85 509.08L681.7 516.36L681.7 516.42L681.55 518.84L681.01 524.16L680.26 529.42L679.3 534.61L678.15 539.73L676.8 544.77L675.25 549.73L673.52 554.6L671.61 559.38L669.51 564.07L667.25 568.66L664.81 573.15L662.2 577.53L659.43 581.8L656.51 585.96L653.43 589.99L650.2 593.91L646.82 597.69L643.31 601.34L639.66 604.86L635.87 608.23L631.96 611.46L627.93 614.54L623.77 617.47L619.5 620.23L615.12 622.84L610.63 625.28L606.04 627.55L601.35 629.64L596.57 631.56L591.69 633.29L586.73 634.83L581.69 636.18L576.58 637.34L571.39 638.29L566.13 639.04L560.81 639.58L555.43 639.91L551.15 640L550.82 640L548.85 640L548.85 640L547.09 640L547.09 640L546.56 640L542.31 639.91L536.93 639.58L531.61 639.04L526.35 638.29L521.16 637.34L516.04 636.18L511 634.83L506.05 633.29L501.17 631.56L496.39 629.64L491.7 627.55L487.11 625.28L482.62 622.84L478.24 620.23L473.97 617.47L469.81 614.54L465.78 611.46L461.86 608.23L458.08 604.86L454.43 601.34L450.91 597.69L447.54 593.91L444.31 589.99L441.23 585.96L438.31 581.8L435.54 577.53L432.93 573.15L430.49 568.66L428.22 564.07L426.13 559.38L424.21 554.6L422.48 549.73L420.94 544.77L419.59 539.73L418.43 534.61L417.48 529.42L416.73 524.16L416.19 518.84L416.04 516.43L416.04 516.36L415.89 509.08L415.89 509.08L416.07 500.32L416.6 491.65L417.47 483.07L418.68 474.6L420.21 466.24L422.08 458L424.25 449.88L426.74 441.89L429.53 434.03L432.62 426.33L435.99 418.77L439.65 411.37L443.58 404.14L447.78 397.08L452.24 390.2L456.95 383.5L461.91 377L467.12 370.7L472.55 364.6L478.22 358.72L484.1 353.05L490.2 347.62L496.5 342.41L503 337.45L509.7 332.74L516.58 328.28L516.75 328.18L518.45 327.25L520.72 326.13L523.03 325.1L525.38 324.16L527.78 323.31L530.22 322.55L532.7 321.88L535.22 321.31L537.78 320.84L540.37 320.47L542.99 320.21L545.64 320.04L547.76 320L547.99 320L547.99 320L548.86 320L548.86 320L548.86 320Z" id="f3vuCWBcKP"></path><radialGradient id="gradienth4ckx3tvq" gradientUnits="userSpaceOnUse" cx="429.98" cy="333.01" r="346.48"><stop style="stop-color: #ffffff;stop-opacity: 0.1" offset="0%"></stop><stop style="stop-color: #ffffff;stop-opacity: 0" offset="100%"></stop></radialGradient></defs><g><g><g><use xlink:href="#a3xU4giEXC" opacity="1" fill="#2b6a73" fill-opacity="1"></use></g><g><use xlink:href="#bVqPJEG37" opacity="1" fill="#2b6a73" fill-opacity="1"></use></g><g><use xlink:href="#a5eb5KXZEl" opacity="0.2" fill="#263238" fill-opacity="1"></use></g><g><use xlink:href="#egMCnqsMx" opacity="0.2" fill="#000000" fill-opacity="1"></use></g><g><use xlink:href="#b2JGWS4TAV" opacity="1" fill="#ffa901" fill-opacity="1"></use></g><g><use xlink:href="#c3jWR2Aqcv" opacity="0.2" fill="#bf3603" fill-opacity="1"></use></g><g><use xlink:href="#b2RZR39PcE" opacity="0.2" fill="#000000" fill-opacity="1"></use></g><g><g><filter id="shadow7814295" x="57.82" y="-40.94" width="422.99" height="525.96" filterUnits="userSpaceOnUse" primitiveUnits="userSpaceOnUse"><feFlood></feFlood><feComposite in2="SourceAlpha" operator="in"></feComposite><feGaussianBlur stdDeviation="4"></feGaussianBlur><feOffset dx="0" dy="4" result="afterOffset"></feOffset><feFlood flood-color="#000000" flood-opacity="0.5"></feFlood><feComposite in2="afterOffset" operator="in"></feComposite><feMorphology operator="dilate" radius="0"></feMorphology><feComposite in2="SourceAlpha" operator="out"></feComposite></filter><path d="M265.92 440.02L182.17 272.54L98.82 105.82L102.44 101.45L113.31 89.25L124.64 77.49L136.4 66.16L148.59 55.29L161.2 44.88L174.2 34.96L187.59 25.53L201.35 16.61L201.7 16.41L205.1 14.56L209.62 12.32L214.24 10.26L218.95 8.38L223.75 6.67L228.63 5.15L233.6 3.82L238.64 2.68L243.75 1.74L248.92 1.01L254.17 0.47L259.47 0.15L263.64 0.07L264.17 0.06L264.17 0.06L265.9 0.06L265.9 0.06L267.84 0.06L267.84 0.07L268.17 0.07L272.38 0.15L277.68 0.47L282.92 1.01L288.1 1.74L293.21 2.68L298.25 3.82L303.21 5.15L308.1 6.67L312.9 8.38L317.61 10.26L322.22 12.32L326.75 14.56L330.16 16.41L330.49 16.61L344.25 25.53L357.64 34.96L370.65 44.88L383.25 55.29L395.44 66.16L407.21 77.49L418.54 89.25L429.41 101.44L439.81 114.05L433.02 105.82L349.67 272.54L265.92 440.02Z" id="i7cif3f1Gj" fill="white" fill-opacity="1" filter="url(#shadow7814295)"></path></g><use xlink:href="#cxabBTwFW" opacity="1" fill="#ea493f" fill-opacity="1"></use></g><g><use xlink:href="#k14E2BBDon" opacity="1" fill="#ffffff" fill-opacity="1"></use></g><g><use xlink:href="#a17fwbCFh" opacity="1" fill="#000000" fill-opacity="1"></use></g><g><use xlink:href="#a24sWfhxAe" opacity="1" fill="url(#gradientg3xQaDAym)"></use></g><g><use xlink:href="#e1s6REQw12" opacity="0.2" fill="#ffffff" fill-opacity="1"></use></g><g><use xlink:href="#c2CiyGIgSe" opacity="1" fill="#f0ead6" fill-opacity="1"></use></g><g><use xlink:href="#apTC4knM7" opacity="1" fill="#41b883" fill-opacity="1"></use><g><use xlink:href="#apTC4knM7" opacity="1" fill-opacity="0" stroke="#000000" stroke-width="1" stroke-opacity="0"></use></g></g><g><use xlink:href="#a2nyKrFvH3" opacity="1" fill="#35495e" fill-opacity="1"></use><g><use xlink:href="#a2nyKrFvH3" opacity="1" fill-opacity="0" stroke="#000000" stroke-width="1" stroke-opacity="0"></use></g></g><g><use xlink:href="#b2lIXWJSfY" opacity="0.2" fill="#000000" fill-opacity="1"></use></g><g><use xlink:href="#f3vuCWBcKP" opacity="1" fill="url(#gradienth4ckx3tvq)"></use></g></g></g></svg>