<?xml version="1.0" standalone="no"?>
<!DOCTYPE svg PUBLIC "-//W3C//DTD SVG 20010904//EN"
 "http://www.w3.org/TR/2001/REC-SVG-20010904/DTD/svg10.dtd">
<svg version="1.0" xmlns="http://www.w3.org/2000/svg"
 width="700.000000pt" height="700.000000pt" viewBox="0 0 700.000000 700.000000"
 preserveAspectRatio="xMidYMid meet">
<metadata>
Created by potrace 1.11, written by Peter Selinger 2001-2013
</metadata>
<g transform="translate(0.000000,700.000000) scale(0.100000,-0.100000)"
fill="#000000" stroke="none">
<path d="M3359 6996 c-2 -2 -31 -6 -64 -10 -184 -18 -398 -99 -588 -223 -91
-58 -364 -256 -377 -272 -3 -4 -18 -17 -34 -29 -49 -38 -146 -123 -230 -202
-409 -387 -719 -801 -971 -1295 -92 -181 -105 -209 -168 -365 -101 -248 -213
-625 -252 -848 -21 -126 -43 -266 -50 -337 -3 -27 -8 -63 -10 -80 -25 -163
-25 -803 0 -845 2 -3 6 -30 10 -60 3 -30 10 -71 15 -90 5 -19 12 -51 15 -70
19 -113 107 -385 175 -541 101 -230 281 -522 416 -675 10 -12 39 -45 63 -74
149 -175 382 -376 607 -522 325 -212 736 -368 1114 -423 19 -3 44 -7 55 -10
131 -27 651 -27 830 0 65 10 104 17 175 29 14 3 79 18 145 35 1067 268 1901
1143 2119 2223 9 42 18 94 21 115 3 21 7 47 10 58 27 132 27 586 0 865 -9 91
-55 375 -76 473 -11 51 -22 100 -24 111 -85 389 -287 896 -510 1272 -92 156
-236 374 -297 449 -4 6 -31 39 -59 75 -305 391 -665 725 -1086 1006 -162 108
-282 167 -427 209 -96 27 -112 31 -208 44 -61 8 -331 14 -339 7z"/>
</g>
</svg>
